<?xml version="1.0" encoding="UTF-8"?>
<!DOCTYPE svg PUBLIC "-//W3C//DTD SVG 1.1//EN" "http://www.w3.org/Graphics/SVG/1.1/DTD/svg11.dtd">
<svg xmlns="http://www.w3.org/2000/svg" version="1.1" width="400px" height="400px" style="shape-rendering:geometricPrecision; text-rendering:geometricPrecision; image-rendering:optimizeQuality; fill-rule:evenodd; clip-rule:evenodd" xmlns:xlink="http://www.w3.org/1999/xlink">
<g><path style="opacity:0.217" fill="#bfa6d5" d="M 204.5,44.5 C 194.613,43.3622 185.279,45.0289 176.5,49.5C 179.546,46.6433 183.213,44.81 187.5,44C 193.349,43.1816 199.015,43.3483 204.5,44.5 Z"/></g>
<g><path style="opacity:1" fill="#40017f" d="M 222.5,54.5 C 225.378,56.1054 228.378,57.4388 231.5,58.5C 234.681,60.5917 237.681,62.925 240.5,65.5C 242.352,68.2546 245.018,69.9213 248.5,70.5C 249.731,71.6507 249.731,72.8173 248.5,74C 250.833,74.3333 253.167,74.6667 255.5,75C 256.646,75.6449 257.646,76.4783 258.5,77.5C 258.899,80.422 259.066,83.422 259,86.5C 261.14,88.6396 263.306,90.8063 265.5,93C 267.641,93.8837 269.307,93.3837 270.5,91.5C 270.291,90.914 269.957,90.414 269.5,90C 262.479,90.1213 260.313,86.9546 263,80.5C 266.959,82.7889 271.126,84.6223 275.5,86C 276.5,86.8333 277.5,87.6667 278.5,88.5C 278.291,89.086 277.957,89.586 277.5,90C 280.513,90.5022 283.513,91.0022 286.5,91.5C 287.833,91.8333 289.167,92.1667 290.5,92.5C 300.161,98.9998 310.161,105 320.5,110.5C 321.167,111.833 322.167,112.833 323.5,113.5C 323.738,115.404 324.738,116.738 326.5,117.5C 326.427,119.027 327.094,120.027 328.5,120.5C 328.873,123.574 329.539,126.574 330.5,129.5C 330.813,174.19 330.479,218.857 329.5,263.5C 329.5,264.833 329.5,266.167 329.5,267.5C 328.277,271.049 326.277,274.049 323.5,276.5C 321.833,277.5 320.5,278.833 319.5,280.5C 319.027,281.906 318.027,282.573 316.5,282.5C 314.973,282.427 313.973,283.094 313.5,284.5C 313.158,285.338 312.492,285.672 311.5,285.5C 307.797,286.146 304.797,287.812 302.5,290.5C 300.973,290.427 299.973,291.094 299.5,292.5C 298.486,293.674 297.153,294.34 295.5,294.5C 293.011,294.241 291.344,295.241 290.5,297.5C 290.158,298.338 289.492,298.672 288.5,298.5C 285.833,298.833 283.167,299.167 280.5,299.5C 280.5,300.5 280.5,301.5 280.5,302.5C 277.593,302.575 274.927,303.409 272.5,305C 268.334,307.39 264.667,310.223 261.5,313.5C 261.167,313.5 260.833,313.5 260.5,313.5C 258.199,314.06 255.866,314.56 253.5,315C 252.279,317.034 250.945,318.867 249.5,320.5C 249.167,320.5 248.833,320.5 248.5,320.5C 245.738,321.38 243.071,322.546 240.5,324C 238.527,324.495 236.527,324.662 234.5,324.5C 234.5,325.833 234.5,327.167 234.5,328.5C 232.833,328.5 231.167,328.5 229.5,328.5C 229.5,327.5 229.5,326.5 229.5,325.5C 226.978,325.128 224.978,325.961 223.5,328C 224.993,329.368 226.493,329.535 228,328.5C 228.167,329 228.333,329.5 228.5,330C 226.785,331.842 225.118,333.675 223.5,335.5C 222.127,335.343 220.793,335.51 219.5,336C 220.598,336.77 220.598,337.603 219.5,338.5C 219.158,339.338 218.492,339.672 217.5,339.5C 209.943,341.253 202.277,342.919 194.5,344.5C 189.525,344.678 185.192,343.178 181.5,340C 182.167,339.667 182.833,339.333 183.5,339C 181.91,337.954 180.41,336.787 179,335.5C 175.983,335.781 172.817,335.781 169.5,335.5C 166.088,330.794 161.422,328.127 155.5,327.5C 152.125,324.185 148.125,321.685 143.5,320C 144.5,319.667 145.5,319.333 146.5,319C 143.393,318.457 140.56,317.291 138,315.5C 139.507,313.974 140.007,312.14 139.5,310C 137.066,309.667 136.066,310.834 136.5,313.5C 134.833,313.5 133.167,313.5 131.5,313.5C 130.833,313.5 130.167,313.5 129.5,313.5C 128.508,313.672 127.842,313.338 127.5,312.5C 127.027,311.094 126.027,310.427 124.5,310.5C 122.847,310.34 121.514,309.674 120.5,308.5C 120.027,307.094 119.027,306.427 117.5,306.5C 115.847,306.34 114.514,305.674 113.5,304.5C 112.656,302.241 110.989,301.241 108.5,301.5C 107.508,301.672 106.842,301.338 106.5,300.5C 106.144,298.81 105.144,297.81 103.5,297.5C 103.063,295.926 102.063,294.759 100.5,294C 100.833,293.667 101.167,293.333 101.5,293C 97.2182,292.21 93.2182,290.71 89.5,288.5C 85.7895,283.476 80.7895,280.476 74.5,279.5C 72.098,276.765 70.098,273.765 68.5,270.5C 67.7974,268.284 66.4641,266.451 64.5,265C 65.1958,263.512 64.8625,262.012 63.5,260.5C 62.3334,218.171 62.1667,175.837 63,133.5C 63.813,131.564 64.313,129.564 64.5,127.5C 65.8734,127.657 67.2068,127.49 68.5,127C 67.3832,123.927 67.2165,120.76 68,117.5C 70.5297,115.627 73.0297,113.793 75.5,112C 77.4641,110.549 78.7974,108.716 79.5,106.5C 85.3369,103.082 91.0036,99.4158 96.5,95.5C 99.3311,94.9213 101.664,93.588 103.5,91.5C 108.165,90.1722 112.165,87.8389 115.5,84.5C 115.842,83.6618 116.508,83.3284 117.5,83.5C 118.833,83.1667 120.167,82.8333 121.5,82.5C 122.93,82.4208 124.264,82.7542 125.5,83.5C 127.271,82.9646 127.604,82.1313 126.5,81C 128.833,80.6667 131.167,80.3333 133.5,80C 134.833,79 134.833,78 133.5,77C 135,76.5 136.5,76 138,75.5C 138.045,76.923 139.211,77.923 141.5,78.5C 141.833,78.1667 142.167,77.8333 142.5,77.5C 141.833,76.8333 141.167,76.1667 140.5,75.5C 140.972,73.5556 142.305,71.7222 144.5,70C 148.505,67.9974 152.505,65.9974 156.5,64C 157.793,63.51 159.127,63.3433 160.5,63.5C 161.203,61.1274 162.536,59.1274 164.5,57.5C 166.663,55.9172 168.996,54.5839 171.5,53.5C 175.624,53.5169 179.291,52.3502 182.5,50C 182.167,49.6667 181.833,49.3333 181.5,49C 184.868,48.4572 188.201,48.6239 191.5,49.5C 191.5,48.5 191.5,47.5 191.5,46.5C 197.977,46.2809 204.311,47.1142 210.5,49C 214.413,51.1248 218.413,52.9582 222.5,54.5 Z"/></g>
<g><path style="opacity:1" fill="#3e1073" d="M 204.5,44.5 C 205.791,44.2627 206.791,44.596 207.5,45.5C 212.666,48.2484 217.666,51.2484 222.5,54.5C 218.413,52.9582 214.413,51.1248 210.5,49C 204.311,47.1142 197.977,46.2809 191.5,46.5C 191.5,47.5 191.5,48.5 191.5,49.5C 188.201,48.6239 184.868,48.4572 181.5,49C 181.833,49.3333 182.167,49.6667 182.5,50C 179.291,52.3502 175.624,53.5169 171.5,53.5C 173.349,52.407 175.016,51.0737 176.5,49.5C 185.279,45.0289 194.613,43.3622 204.5,44.5 Z"/></g>
<g><path style="opacity:0.018" fill="#e5d7ee" d="M 207.5,45.5 C 211.362,46.4281 215.029,47.9281 218.5,50C 222.898,52.8572 227.232,55.6905 231.5,58.5C 228.378,57.4388 225.378,56.1054 222.5,54.5C 217.666,51.2484 212.666,48.2484 207.5,45.5 Z"/></g>
<g><path style="opacity:0.212" fill="#e4d5eb" d="M 176.5,49.5 C 175.016,51.0737 173.349,52.407 171.5,53.5C 168.996,54.5839 166.663,55.9172 164.5,57.5C 163.833,57.5 163.167,57.5 162.5,57.5C 166.507,53.8255 171.173,51.1588 176.5,49.5 Z"/></g>
<g><path style="opacity:0.071" fill="#ead8f5" d="M 162.5,57.5 C 160.664,59.588 158.331,60.9213 155.5,61.5C 157.336,59.412 159.669,58.0787 162.5,57.5 Z"/></g>
<g><path style="opacity:0.018" fill="#e6d8ed" d="M 231.5,58.5 C 238.332,61.4124 244.666,65.0791 250.5,69.5C 247.167,68.1667 243.833,66.8333 240.5,65.5C 237.681,62.925 234.681,60.5917 231.5,58.5 Z"/></g>
<g><path style="opacity:0.09" fill="#e3d2f1" d="M 155.5,61.5 C 154.341,63.2503 152.674,64.2503 150.5,64.5C 151.659,62.7497 153.326,61.7497 155.5,61.5 Z"/></g>
<g><path style="opacity:0.043" fill="#ebd9f3" d="M 148.5,65.5 C 147.341,67.2503 145.674,68.2503 143.5,68.5C 144.659,66.7497 146.326,65.7497 148.5,65.5 Z"/></g>
<g><path style="opacity:0.11" fill="#dbc9ea" d="M 143.5,68.5 C 142.341,70.2503 140.674,71.2503 138.5,71.5C 139.659,69.7497 141.326,68.7497 143.5,68.5 Z"/></g>
<g><path style="opacity:0.027" fill="#e4d6ef" d="M 250.5,69.5 C 257.332,72.4124 263.666,76.0791 269.5,80.5C 262.668,77.5876 256.334,73.9209 250.5,69.5 Z"/></g>
<g><path style="opacity:0.067" fill="#e2d3ec" d="M 136.5,72.5 C 135.341,74.2503 133.674,75.2503 131.5,75.5C 132.659,73.7497 134.326,72.7497 136.5,72.5 Z"/></g>
<g><path style="opacity:1" fill="#411276" d="M 162.5,57.5 C 163.167,57.5 163.833,57.5 164.5,57.5C 162.536,59.1274 161.203,61.1274 160.5,63.5C 159.127,63.3433 157.793,63.51 156.5,64C 152.505,65.9974 148.505,67.9974 144.5,70C 142.305,71.7222 140.972,73.5556 140.5,75.5C 141.167,76.1667 141.833,76.8333 142.5,77.5C 142.167,77.8333 141.833,78.1667 141.5,78.5C 139.211,77.923 138.045,76.923 138,75.5C 136.5,76 135,76.5 133.5,77C 134.833,78 134.833,79 133.5,80C 131.167,80.3333 128.833,80.6667 126.5,81C 127.604,82.1313 127.271,82.9646 125.5,83.5C 124.264,82.7542 122.93,82.4208 121.5,82.5C 121.833,81.8333 122.167,81.1667 122.5,80.5C 122.842,79.6618 123.508,79.3284 124.5,79.5C 126.674,79.2503 128.341,78.2503 129.5,76.5C 129.842,75.6618 130.508,75.3284 131.5,75.5C 133.674,75.2503 135.341,74.2503 136.5,72.5C 136.842,71.6618 137.508,71.3284 138.5,71.5C 140.674,71.2503 142.341,70.2503 143.5,68.5C 145.674,68.2503 147.341,67.2503 148.5,65.5C 148.842,64.6618 149.508,64.3284 150.5,64.5C 152.674,64.2503 154.341,63.2503 155.5,61.5C 158.331,60.9213 160.664,59.588 162.5,57.5 Z"/></g>
<g><path style="opacity:0.098" fill="#e0d4ea" d="M 129.5,76.5 C 128.341,78.2503 126.674,79.2503 124.5,79.5C 125.659,77.7497 127.326,76.7497 129.5,76.5 Z"/></g>
<g><path style="opacity:1" fill="#441178" d="M 240.5,65.5 C 243.833,66.8333 247.167,68.1667 250.5,69.5C 256.334,73.9209 262.668,77.5876 269.5,80.5C 270.659,82.2503 272.326,83.2503 274.5,83.5C 275.492,83.3284 276.158,83.6618 276.5,84.5C 277.659,86.2503 279.326,87.2503 281.5,87.5C 282.492,87.3284 283.158,87.6618 283.5,88.5C 284.306,89.7281 285.306,90.7281 286.5,91.5C 283.513,91.0022 280.513,90.5022 277.5,90C 277.957,89.586 278.291,89.086 278.5,88.5C 277.5,87.6667 276.5,86.8333 275.5,86C 271.126,84.6223 266.959,82.7889 263,80.5C 260.313,86.9546 262.479,90.1213 269.5,90C 269.957,90.414 270.291,90.914 270.5,91.5C 269.307,93.3837 267.641,93.8837 265.5,93C 263.306,90.8063 261.14,88.6396 259,86.5C 259.066,83.422 258.899,80.422 258.5,77.5C 257.646,76.4783 256.646,75.6449 255.5,75C 253.167,74.6667 250.833,74.3333 248.5,74C 249.731,72.8173 249.731,71.6507 248.5,70.5C 245.018,69.9213 242.352,68.2546 240.5,65.5 Z"/></g>
<g><path style="opacity:0.024" fill="#e2d1e6" d="M 269.5,80.5 C 271.674,80.7497 273.341,81.7497 274.5,83.5C 272.326,83.2503 270.659,82.2503 269.5,80.5 Z"/></g>
<g><path style="opacity:0.082" fill="#e5d8f0" d="M 122.5,80.5 C 122.167,81.1667 121.833,81.8333 121.5,82.5C 120.167,82.8333 118.833,83.1667 117.5,83.5C 118.659,81.7497 120.326,80.7497 122.5,80.5 Z"/></g>
<g><path style="opacity:0.094" fill="#e3d0e6" d="M 276.5,84.5 C 278.674,84.7497 280.341,85.7497 281.5,87.5C 279.326,87.2503 277.659,86.2503 276.5,84.5 Z"/></g>
<g><path style="opacity:0.153" fill="#d6c4e4" d="M 115.5,84.5 C 112.165,87.8389 108.165,90.1722 103.5,91.5C 107.164,88.6654 111.164,86.332 115.5,84.5 Z"/></g>
<g><path style="opacity:0.035" fill="#efdff5" d="M 283.5,88.5 C 286.331,89.0787 288.664,90.412 290.5,92.5C 289.167,92.1667 287.833,91.8333 286.5,91.5C 285.306,90.7281 284.306,89.7281 283.5,88.5 Z"/></g>
<g><path style="opacity:0.09" fill="#e8d8f2" d="M 103.5,91.5 C 101.664,93.588 99.3311,94.9213 96.5,95.5C 98.3356,93.412 100.669,92.0787 103.5,91.5 Z"/></g>
<g><path style="opacity:0.043" fill="#e4d5ed" d="M 290.5,92.5 C 299.098,96.4665 307.432,100.967 315.5,106C 317.618,107.049 319.284,108.549 320.5,110.5C 310.161,105 300.161,98.9998 290.5,92.5 Z"/></g>
<g><path style="opacity:0.031" fill="#efe2f4" d="M 96.5,95.5 C 91.0036,99.4158 85.3369,103.082 79.5,106.5C 78.1667,106.833 76.8333,107.167 75.5,107.5C 82.0035,102.745 89.0035,98.7448 96.5,95.5 Z"/></g>
<g><path style="opacity:1" fill="#3b1a61" d="M 255.5,112.5 C 249.449,111.655 243.449,110.488 237.5,109C 201.833,108.333 166.167,108.333 130.5,109C 129.473,109.513 128.473,110.013 127.5,110.5C 127.5,109.5 127.5,108.5 127.5,107.5C 164.835,107.333 202.168,107.5 239.5,108C 244.552,108.744 249.552,109.744 254.5,111C 255.056,111.383 255.389,111.883 255.5,112.5 Z"/></g>
<g><path style="opacity:0.188" fill="#d5c0e3" d="M 75.5,107.5 C 74.7377,109.262 73.4044,110.262 71.5,110.5C 72.2623,108.738 73.5956,107.738 75.5,107.5 Z"/></g>
<g><path style="opacity:1" fill="#f9f7fb" d="M 255.5,112.5 C 258.22,114.527 261.22,116.193 264.5,117.5C 218.003,118.499 171.336,118.832 124.5,118.5C 124.394,115.921 125.061,113.588 126.5,111.5C 127.167,111.5 127.5,111.167 127.5,110.5C 128.473,110.013 129.473,109.513 130.5,109C 166.167,108.333 201.833,108.333 237.5,109C 243.449,110.488 249.449,111.655 255.5,112.5 Z"/></g>
<g><path style="opacity:0.004" fill="#f2e6f7" d="M 320.5,110.5 C 322.5,110.5 323.5,111.5 323.5,113.5C 322.167,112.833 321.167,111.833 320.5,110.5 Z"/></g>
<g><path style="opacity:0.216" fill="#c1b0d6" d="M 323.5,113.5 C 325.262,114.262 326.262,115.596 326.5,117.5C 324.738,116.738 323.738,115.404 323.5,113.5 Z"/></g>
<g><path style="opacity:0.09" fill="#d8c4e4" d="M 71.5,110.5 C 67.3971,115.055 64.0638,120.055 61.5,125.5C 62.6268,118.882 65.9601,113.882 71.5,110.5 Z"/></g>
<g><path style="opacity:1" fill="#330768" d="M 126.5,111.5 C 125.061,113.588 124.394,115.921 124.5,118.5C 171.335,119.831 218.335,119.831 265.5,118.5C 265.376,117.893 265.043,117.56 264.5,117.5C 261.22,116.193 258.22,114.527 255.5,112.5C 257.467,112.739 259.301,112.406 261,111.5C 261.667,112.833 262.333,114.167 263,115.5C 266.931,114.576 269.098,116.243 269.5,120.5C 220.832,120.667 172.166,120.5 123.5,120C 122.424,118.274 122.257,116.441 123,114.5C 123.422,112.574 124.589,111.574 126.5,111.5 Z"/></g>
<g><path style="opacity:1" fill="#9379aa" d="M 264.5,117.5 C 265.043,117.56 265.376,117.893 265.5,118.5C 218.335,119.831 171.335,119.831 124.5,118.5C 171.336,118.832 218.003,118.499 264.5,117.5 Z"/></g>
<g><path style="opacity:0.078" fill="#e6d2ec" d="M 326.5,117.5 C 327.906,117.973 328.573,118.973 328.5,120.5C 327.094,120.027 326.427,119.027 326.5,117.5 Z"/></g>
<g><path style="opacity:0.58" fill="#a890c2" d="M 328.5,120.5 C 330.472,123.084 331.472,126.084 331.5,129.5C 331.167,129.5 330.833,129.5 330.5,129.5C 329.539,126.574 328.873,123.574 328.5,120.5 Z"/></g>
<g><path style="opacity:1" fill="#fcf9fd" d="M 124.5,128.5 C 174.167,128.5 223.833,128.5 273.5,128.5C 274.167,128.5 274.5,128.833 274.5,129.5C 274.292,131.92 274.626,134.253 275.5,136.5C 225.171,137.5 174.838,137.833 124.5,137.5C 124.5,134.5 124.5,131.5 124.5,128.5 Z"/></g>
<g><path style="opacity:0.767" fill="#6c468e" d="M 330.5,129.5 C 330.833,129.5 331.167,129.5 331.5,129.5C 332.833,173.167 332.833,216.833 331.5,260.5C 330.833,261.5 330.167,262.5 329.5,263.5C 330.479,218.857 330.813,174.19 330.5,129.5 Z"/></g>
<g><path style="opacity:1" fill="#f8e7f9" d="M 124.5,128.5 C 124.5,131.5 124.5,134.5 124.5,137.5C 174.838,137.833 225.171,137.5 275.5,136.5C 274.626,134.253 274.292,131.92 274.5,129.5C 274.833,129.5 275.167,129.5 275.5,129.5C 276.487,132.146 277.487,134.812 278.5,137.5C 226.838,138.5 175.171,138.833 123.5,138.5C 123.187,134.958 123.521,131.625 124.5,128.5 Z"/></g>
<g><path style="opacity:0.987" fill="#3a086d" d="M 79.5,106.5 C 78.7974,108.716 77.4641,110.549 75.5,112C 73.0297,113.793 70.5297,115.627 68,117.5C 67.2165,120.76 67.3832,123.927 68.5,127C 67.2068,127.49 65.8734,127.657 64.5,127.5C 64.313,129.564 63.813,131.564 63,133.5C 62.1667,175.837 62.3334,218.171 63.5,260.5C 64.8625,262.012 65.1958,263.512 64.5,265C 66.4641,266.451 67.7974,268.284 68.5,270.5C 67.5,270.5 66.5,270.5 65.5,270.5C 64.8333,270.167 64.1667,269.833 63.5,269.5C 62.7761,266.157 61.9428,262.824 61,259.5C 60.1927,214.815 60.3594,170.148 61.5,125.5C 64.0638,120.055 67.3971,115.055 71.5,110.5C 73.4044,110.262 74.7377,109.262 75.5,107.5C 76.8333,107.167 78.1667,106.833 79.5,106.5 Z"/></g>
<g><path style="opacity:0.131" fill="#e0c5f4" d="M 61.5,125.5 C 60.3594,170.148 60.1927,214.815 61,259.5C 61.9428,262.824 62.7761,266.157 63.5,269.5C 61.672,266.865 60.5053,263.865 60,260.5C 59.3333,216.833 59.3333,173.167 60,129.5C 60.21,127.942 60.71,126.609 61.5,125.5 Z"/></g>
<g><path style="opacity:1" fill="#491f75" d="M 273.5,128.5 C 223.833,128.5 174.167,128.5 124.5,128.5C 123.521,131.625 123.187,134.958 123.5,138.5C 175.171,138.833 226.838,138.5 278.5,137.5C 277.487,134.812 276.487,132.146 275.5,129.5C 276.833,129.5 278.167,129.5 279.5,129.5C 279.789,133.106 279.456,136.606 278.5,140C 227.833,140.333 177.167,140.667 126.5,141C 125.594,142.699 125.261,144.533 125.5,146.5C 177.501,146.333 229.501,146.5 281.5,147C 282.444,149.719 282.777,152.552 282.5,155.5C 283.675,155.281 284.675,155.614 285.5,156.5C 284.311,157.429 282.978,157.762 281.5,157.5C 280.77,159.045 279.437,159.878 277.5,160C 225.834,160.5 174.168,160.667 122.5,160.5C 121.391,149.722 121.391,138.722 122.5,127.5C 173.003,127.168 223.336,127.501 273.5,128.5 Z"/></g>
<g><path style="opacity:1" fill="#efe4f8" d="M 124.5,148.5 C 124.5,151.167 124.5,153.833 124.5,156.5C 176.5,156.5 228.5,156.5 280.5,156.5C 280.5,153.833 280.5,151.167 280.5,148.5C 281.477,151.287 281.81,154.287 281.5,157.5C 228.833,157.5 176.167,157.5 123.5,157.5C 123.19,154.287 123.523,151.287 124.5,148.5 Z"/></g>
<g><path style="opacity:1" fill="#fdfdfd" d="M 124.5,148.5 C 176.5,148.5 228.5,148.5 280.5,148.5C 280.5,151.167 280.5,153.833 280.5,156.5C 228.5,156.5 176.5,156.5 124.5,156.5C 124.5,153.833 124.5,151.167 124.5,148.5 Z"/></g>
<g><path style="opacity:1" fill="#3f116c" d="M 279.5,167.5 C 227.833,167.5 176.167,167.5 124.5,167.5C 124.167,167.5 123.833,167.5 123.5,167.5C 123.62,166.414 124.287,165.747 125.5,165.5C 176.98,166.158 228.313,166.825 279.5,167.5 Z"/></g>
<g><path style="opacity:1" fill="#f4e2fe" d="M 124.5,168.5 C 124.5,168.167 124.5,167.833 124.5,167.5C 176.167,167.5 227.833,167.5 279.5,167.5C 279.784,169.415 279.451,171.081 278.5,172.5C 278.5,171.167 278.5,169.833 278.5,168.5C 227.167,168.5 175.833,168.5 124.5,168.5 Z"/></g>
<g><path style="opacity:1" fill="#fdfdfd" d="M 124.5,168.5 C 175.833,168.5 227.167,168.5 278.5,168.5C 278.5,169.833 278.5,171.167 278.5,172.5C 278.567,173.959 278.234,175.292 277.5,176.5C 226.5,176.5 175.5,176.5 124.5,176.5C 124.5,173.833 124.5,171.167 124.5,168.5 Z"/></g>
<g><path style="opacity:1" fill="#c8b6d9" d="M 123.5,167.5 C 123.833,167.5 124.167,167.5 124.5,167.5C 124.5,167.833 124.5,168.167 124.5,168.5C 124.5,171.167 124.5,173.833 124.5,176.5C 175.5,176.5 226.5,176.5 277.5,176.5C 226.336,177.499 175.003,177.832 123.5,177.5C 123.5,174.167 123.5,170.833 123.5,167.5 Z"/></g>
<g><path style="opacity:1" fill="#3e1672" d="M 275.5,191.5 C 274.167,190.167 272.833,188.833 271.5,187.5C 222.336,186.501 173.003,186.168 123.5,186.5C 123.169,215.005 123.502,243.338 124.5,271.5C 126.036,275.202 128.703,277.702 132.5,279C 165.498,279.5 198.498,279.667 231.5,279.5C 199.474,281.176 167.141,282.176 134.5,282.5C 132.597,280.438 130.263,279.104 127.5,278.5C 126.099,276.723 124.599,275.056 123,273.5C 122.642,244.446 122.309,215.446 122,186.5C 172.096,185.336 222.263,185.17 272.5,186C 274.607,187.264 275.607,189.097 275.5,191.5 Z"/></g>
<g><path style="opacity:1" fill="#fdfcfd" d="M 271.5,187.5 C 272.833,188.833 274.167,190.167 275.5,191.5C 279.378,196.61 282.711,201.943 285.5,207.5C 288.585,220.057 287.918,232.39 283.5,244.5C 274.047,262.266 259.381,273.266 239.5,277.5C 237.208,277.756 235.041,277.423 233,276.5C 200.056,278.489 166.889,279.155 133.5,278.5C 133.649,277.448 133.483,276.448 133,275.5C 132.282,276.451 131.449,276.617 130.5,276C 128.369,274.152 126.369,272.319 124.5,270.5C 124.5,242.833 124.5,215.167 124.5,187.5C 173.5,187.5 222.5,187.5 271.5,187.5 Z"/></g>
<g><path style="opacity:1" fill="#9b81b6" d="M 271.5,187.5 C 222.5,187.5 173.5,187.5 124.5,187.5C 124.5,215.167 124.5,242.833 124.5,270.5C 124.5,270.833 124.5,271.167 124.5,271.5C 123.502,243.338 123.169,215.005 123.5,186.5C 173.003,186.168 222.336,186.501 271.5,187.5 Z"/></g>
<g><path style="opacity:1" fill="#674193" d="M 225.5,206.5 C 205.14,206.214 184.806,206.547 164.5,207.5C 165.263,206.732 166.263,206.232 167.5,206C 187.004,205.171 206.338,205.338 225.5,206.5 Z"/></g>
<g><path style="opacity:1" fill="#40027f" d="M 216.5,216.5 C 215.176,219.136 215.176,221.802 216.5,224.5C 216.043,225.298 215.376,225.631 214.5,225.5C 209,224.831 206.833,227.165 208,232.5C 211.169,235.237 214.002,234.904 216.5,231.5C 217.451,230.081 217.784,228.415 217.5,226.5C 223.692,225.519 226.359,228.186 225.5,234.5C 222.813,234.336 220.146,234.503 217.5,235C 216.663,236.011 216.33,237.178 216.5,238.5C 217.187,242.352 219.521,244.019 223.5,243.5C 224.496,243.586 225.329,243.252 226,242.5C 226.497,240.19 226.663,237.857 226.5,235.5C 234.491,237.34 237.658,234.34 236,226.5C 235.329,225.748 234.496,225.414 233.5,225.5C 233.167,225.5 232.833,225.5 232.5,225.5C 231.972,224.279 231.305,223.113 230.5,222C 231.517,220.951 231.684,219.784 231,218.5C 228.877,218.034 227.377,216.867 226.5,215C 227.287,212.901 227.62,210.734 227.5,208.5C 230.897,209.374 234.23,210.541 237.5,212C 238.097,213.889 238.431,215.722 238.5,217.5C 240.783,216.15 242.783,216.483 244.5,218.5C 245.537,219.93 246.204,221.597 246.5,223.5C 246.755,231.334 244.921,238.667 241,245.5C 238.533,248.825 235.366,251.325 231.5,253C 209.9,254.467 188.233,254.967 166.5,254.5C 166.056,252.887 165.056,251.72 163.5,251C 164.109,248.942 165.109,248.109 166.5,248.5C 164.577,247.692 162.577,247.192 160.5,247C 159.978,246.439 159.645,245.772 159.5,245C 160.931,242.708 161.764,240.208 162,237.5C 163.356,236.62 164.856,236.286 166.5,236.5C 166.198,239.059 166.532,241.393 167.5,243.5C 167.833,243.5 168.167,243.5 168.5,243.5C 170.607,244.468 172.941,244.802 175.5,244.5C 175.5,241.167 175.5,237.833 175.5,234.5C 178.833,234.5 182.167,234.5 185.5,234.5C 185.5,232.167 185.5,229.833 185.5,227.5C 185.5,227.167 185.5,226.833 185.5,226.5C 185.171,223.968 184.005,222.968 182,223.5C 181.595,220.22 180.095,217.72 177.5,216C 177.833,215.667 178.167,215.333 178.5,215C 177.139,213.416 176.472,211.582 176.5,209.5C 171.301,211.133 165.967,211.633 160.5,211C 163.475,208.996 166.808,207.996 170.5,208C 184.829,207.5 199.163,207.333 213.5,207.5C 213.351,208.552 213.517,209.552 214,210.5C 216.543,207.375 219.209,207.041 222,209.5C 225.697,208.357 226.197,209.19 223.5,212C 221.392,212.36 219.392,213.027 217.5,214C 216.748,214.671 216.414,215.504 216.5,216.5 Z"/></g>
<g><path style="opacity:1" fill="#f8f3f9" d="M 175.5,217.5 C 175.5,220.833 175.5,224.167 175.5,227.5C 178.833,227.5 182.167,227.5 185.5,227.5C 185.5,229.833 185.5,232.167 185.5,234.5C 182.167,234.5 178.833,234.5 175.5,234.5C 175.5,237.833 175.5,241.167 175.5,244.5C 172.941,244.802 170.607,244.468 168.5,243.5C 168.5,240.5 168.5,237.5 168.5,234.5C 165.5,234.5 162.5,234.5 159.5,234.5C 159.5,231.833 159.5,229.167 159.5,226.5C 162.5,226.5 165.5,226.5 168.5,226.5C 168.5,223.5 168.5,220.5 168.5,217.5C 170.833,217.5 173.167,217.5 175.5,217.5 Z"/></g>
<g><path style="opacity:1" fill="#3f017f" d="M 158.5,211.5 C 163.87,213.379 169.537,214.045 175.5,213.5C 175.5,214.5 175.5,215.5 175.5,216.5C 172.5,216.5 169.5,216.5 166.5,216.5C 166.5,219.5 166.5,222.5 166.5,225.5C 163.167,225.5 159.833,225.5 156.5,225.5C 156.996,230.257 156.33,234.757 154.5,239C 155.009,240.169 155.842,241.002 157,241.5C 157.202,239.744 157.702,238.078 158.5,236.5C 159.749,240.351 159.249,244.018 157,247.5C 156.329,246.748 155.496,246.414 154.5,246.5C 145.405,233.529 146.738,221.862 158.5,211.5 Z"/></g>
<g><path style="opacity:1" fill="#3c126a" d="M 225.5,217.5 C 221.315,215.391 218.315,216.391 216.5,220.5C 218.362,224.545 221.362,225.545 225.5,223.5C 225.821,225.048 226.821,225.715 228.5,225.5C 224.749,231.642 226.416,234.475 233.5,234C 236.115,231.093 236.115,228.26 233.5,225.5C 234.496,225.414 235.329,225.748 236,226.5C 237.658,234.34 234.491,237.34 226.5,235.5C 226.663,237.857 226.497,240.19 226,242.5C 225.329,243.252 224.496,243.586 223.5,243.5C 227.298,237.289 225.631,234.789 218.5,236C 217.934,236.995 217.267,237.828 216.5,238.5C 216.33,237.178 216.663,236.011 217.5,235C 220.146,234.503 222.813,234.336 225.5,234.5C 226.359,228.186 223.692,225.519 217.5,226.5C 217.784,228.415 217.451,230.081 216.5,231.5C 216.747,229.142 216.081,227.142 214.5,225.5C 215.376,225.631 216.043,225.298 216.5,224.5C 215.176,221.802 215.176,219.136 216.5,216.5C 219.923,213.588 222.923,213.921 225.5,217.5 Z"/></g>
<g><path style="opacity:1" fill="#997abd" d="M 175.5,217.5 C 176.477,220.287 176.81,223.287 176.5,226.5C 179.5,226.5 182.5,226.5 185.5,226.5C 185.5,226.833 185.5,227.167 185.5,227.5C 182.167,227.5 178.833,227.5 175.5,227.5C 175.5,224.167 175.5,220.833 175.5,217.5 Z"/></g>
<g><path style="opacity:1" fill="#ebe4ed" d="M 214.5,225.5 C 216.081,227.142 216.747,229.142 216.5,231.5C 214.002,234.904 211.169,235.237 208,232.5C 206.833,227.165 209,224.831 214.5,225.5 Z"/></g>
<g><path style="opacity:1" fill="#eae2f0" d="M 228.5,225.5 C 229.833,225.5 231.167,225.5 232.5,225.5C 232.833,225.5 233.167,225.5 233.5,225.5C 236.115,228.26 236.115,231.093 233.5,234C 226.416,234.475 224.749,231.642 228.5,225.5 Z"/></g>
<g><path style="opacity:1" fill="#4e2f6b" d="M 159.5,234.5 C 162.5,234.5 165.5,234.5 168.5,234.5C 168.5,237.5 168.5,240.5 168.5,243.5C 168.167,243.5 167.833,243.5 167.5,243.5C 167.5,240.833 167.5,238.167 167.5,235.5C 164.615,235.806 161.948,235.473 159.5,234.5 Z"/></g>
<g><path style="opacity:1" fill="#f8f2f9" d="M 223.5,243.5 C 219.521,244.019 217.187,242.352 216.5,238.5C 217.267,237.828 217.934,236.995 218.5,236C 225.631,234.789 227.298,237.289 223.5,243.5 Z"/></g>
<g><path style="opacity:1" fill="#3d1a68" d="M 159.5,209.5 C 159.167,210.167 158.833,210.833 158.5,211.5C 146.738,221.862 145.405,233.529 154.5,246.5C 156.219,248.544 157.886,250.544 159.5,252.5C 148.923,245.291 145.089,235.291 148,222.5C 150.009,216.435 153.843,212.101 159.5,209.5 Z"/></g>
<g><path style="opacity:1" fill="#401274" d="M 285.5,207.5 C 286.15,207.804 286.817,208.137 287.5,208.5C 288.444,220.328 288.778,231.994 288.5,243.5C 288,244.5 287.5,245.5 287,246.5C 285.887,245.695 284.721,245.028 283.5,244.5C 287.918,232.39 288.585,220.057 285.5,207.5 Z"/></g>
<g><path style="opacity:1" fill="#3e0676" d="M 225.5,206.5 C 234.263,206.843 240.597,210.843 244.5,218.5C 242.783,216.483 240.783,216.15 238.5,217.5C 238.431,215.722 238.097,213.889 237.5,212C 234.23,210.541 230.897,209.374 227.5,208.5C 227.62,210.734 227.287,212.901 226.5,215C 227.377,216.867 228.877,218.034 231,218.5C 231.684,219.784 231.517,220.951 230.5,222C 231.305,223.113 231.972,224.279 232.5,225.5C 231.167,225.5 229.833,225.5 228.5,225.5C 226.821,225.715 225.821,225.048 225.5,223.5C 225.5,221.5 225.5,219.5 225.5,217.5C 222.923,213.921 219.923,213.588 216.5,216.5C 216.414,215.504 216.748,214.671 217.5,214C 219.392,213.027 221.392,212.36 223.5,212C 226.197,209.19 225.697,208.357 222,209.5C 219.209,207.041 216.543,207.375 214,210.5C 213.517,209.552 213.351,208.552 213.5,207.5C 199.163,207.333 184.829,207.5 170.5,208C 166.808,207.996 163.475,208.996 160.5,211C 165.967,211.633 171.301,211.133 176.5,209.5C 176.472,211.582 177.139,213.416 178.5,215C 178.167,215.333 177.833,215.667 177.5,216C 180.095,217.72 181.595,220.22 182,223.5C 184.005,222.968 185.171,223.968 185.5,226.5C 182.5,226.5 179.5,226.5 176.5,226.5C 176.81,223.287 176.477,220.287 175.5,217.5C 173.167,217.5 170.833,217.5 168.5,217.5C 168.5,220.5 168.5,223.5 168.5,226.5C 165.5,226.5 162.5,226.5 159.5,226.5C 159.5,229.167 159.5,231.833 159.5,234.5C 161.948,235.473 164.615,235.806 167.5,235.5C 167.5,238.167 167.5,240.833 167.5,243.5C 166.532,241.393 166.198,239.059 166.5,236.5C 164.856,236.286 163.356,236.62 162,237.5C 161.764,240.208 160.931,242.708 159.5,245C 159.645,245.772 159.978,246.439 160.5,247C 162.577,247.192 164.577,247.692 166.5,248.5C 165.109,248.109 164.109,248.942 163.5,251C 165.056,251.72 166.056,252.887 166.5,254.5C 163.772,254.829 161.438,254.163 159.5,252.5C 157.886,250.544 156.219,248.544 154.5,246.5C 155.496,246.414 156.329,246.748 157,247.5C 159.249,244.018 159.749,240.351 158.5,236.5C 157.702,238.078 157.202,239.744 157,241.5C 155.842,241.002 155.009,240.169 154.5,239C 156.33,234.757 156.996,230.257 156.5,225.5C 159.833,225.5 163.167,225.5 166.5,225.5C 166.5,222.5 166.5,219.5 166.5,216.5C 169.5,216.5 172.5,216.5 175.5,216.5C 175.5,215.5 175.5,214.5 175.5,213.5C 169.537,214.045 163.87,213.379 158.5,211.5C 158.833,210.833 159.167,210.167 159.5,209.5C 160.635,207.787 162.302,207.12 164.5,207.5C 184.806,206.547 205.14,206.214 225.5,206.5 Z"/></g>
<g><path style="opacity:1" fill="#f4ecf7" d="M 225.5,217.5 C 225.5,219.5 225.5,221.5 225.5,223.5C 221.362,225.545 218.362,224.545 216.5,220.5C 218.315,216.391 221.315,215.391 225.5,217.5 Z"/></g>
<g><path style="opacity:1" fill="#44206f" d="M 246.5,223.5 C 249.854,241.346 242.521,252.18 224.5,256C 206.167,256.667 187.833,256.667 169.5,256C 168.263,255.768 167.263,255.268 166.5,254.5C 188.233,254.967 209.9,254.467 231.5,253C 235.366,251.325 238.533,248.825 241,245.5C 244.921,238.667 246.755,231.334 246.5,223.5 Z"/></g>
<g><path style="opacity:0.055" fill="#c9b6d2" d="M 331.5,260.5 C 331.59,263.152 330.924,265.485 329.5,267.5C 329.5,266.167 329.5,264.833 329.5,263.5C 330.167,262.5 330.833,261.5 331.5,260.5 Z"/></g>
<g><path style="opacity:0.004" fill="#e7dbf0" d="M 63.5,269.5 C 64.1667,269.833 64.8333,270.167 65.5,270.5C 65.8333,271.833 66.1667,273.167 66.5,274.5C 64.7497,273.341 63.7497,271.674 63.5,269.5 Z"/></g>
<g><path style="opacity:0.004" fill="#e2d1ee" d="M 323.5,276.5 C 323.167,278.833 321.833,280.167 319.5,280.5C 320.5,278.833 321.833,277.5 323.5,276.5 Z"/></g>
<g><path style="opacity:1" fill="#faeffc" d="M 124.5,270.5 C 126.369,272.319 128.369,274.152 130.5,276C 131.449,276.617 132.282,276.451 133,275.5C 133.483,276.448 133.649,277.448 133.5,278.5C 166.889,279.155 200.056,278.489 233,276.5C 235.041,277.423 237.208,277.756 239.5,277.5C 237.039,278.531 234.373,279.198 231.5,279.5C 198.498,279.667 165.498,279.5 132.5,279C 128.703,277.702 126.036,275.202 124.5,271.5C 124.5,271.167 124.5,270.833 124.5,270.5 Z"/></g>
<g><path style="opacity:1" fill="#4c2379" d="M 65.5,270.5 C 66.5,270.5 67.5,270.5 68.5,270.5C 70.098,273.765 72.098,276.765 74.5,279.5C 80.7895,280.476 85.7895,283.476 89.5,288.5C 93.2182,290.71 97.2182,292.21 101.5,293C 101.167,293.333 100.833,293.667 100.5,294C 102.063,294.759 103.063,295.926 103.5,297.5C 102.833,297.5 102.167,297.5 101.5,297.5C 99.847,297.34 98.5137,296.674 97.5,295.5C 97.0269,294.094 96.0269,293.427 94.5,293.5C 93.5084,293.672 92.8417,293.338 92.5,292.5C 92.0269,291.094 91.0269,290.427 89.5,290.5C 87.847,290.34 86.5137,289.674 85.5,288.5C 85.0269,287.094 84.0269,286.427 82.5,286.5C 81.5084,286.672 80.8417,286.338 80.5,285.5C 80.0269,284.094 79.0269,283.427 77.5,283.5C 72.9568,281.628 69.2901,278.628 66.5,274.5C 66.1667,273.167 65.8333,271.833 65.5,270.5 Z"/></g>
<g><path style="opacity:0.012" fill="#e8dcf0" d="M 316.5,282.5 C 316.027,283.906 315.027,284.573 313.5,284.5C 313.973,283.094 314.973,282.427 316.5,282.5 Z"/></g>
<g><path style="opacity:0.118" fill="#c7b2e0" d="M 77.5,283.5 C 79.0269,283.427 80.0269,284.094 80.5,285.5C 78.9731,285.573 77.9731,284.906 77.5,283.5 Z"/></g>
<g><path style="opacity:0.102" fill="#d9c6ea" d="M 82.5,286.5 C 84.0269,286.427 85.0269,287.094 85.5,288.5C 83.9731,288.573 82.9731,287.906 82.5,286.5 Z"/></g>
<g><path style="opacity:0.608" fill="#9985ab" d="M 311.5,285.5 C 308.992,287.924 305.992,289.59 302.5,290.5C 304.797,287.812 307.797,286.146 311.5,285.5 Z"/></g>
<g><path style="opacity:0.106" fill="#d5c0ea" d="M 89.5,290.5 C 91.0269,290.427 92.0269,291.094 92.5,292.5C 90.9731,292.573 89.9731,291.906 89.5,290.5 Z"/></g>
<g><path style="opacity:0.008" fill="#e1d4e9" d="M 302.5,290.5 C 302.027,291.906 301.027,292.573 299.5,292.5C 299.973,291.094 300.973,290.427 302.5,290.5 Z"/></g>
<g><path style="opacity:0.098" fill="#dbc9e5" d="M 94.5,293.5 C 96.0269,293.427 97.0269,294.094 97.5,295.5C 95.9731,295.573 94.9731,294.906 94.5,293.5 Z"/></g>
<g><path style="opacity:0.537" fill="#8d71a6" d="M 295.5,294.5 C 294.101,295.89 292.434,296.89 290.5,297.5C 291.344,295.241 293.011,294.241 295.5,294.5 Z"/></g>
<g><path style="opacity:0.749" fill="#8d6da7" d="M 101.5,297.5 C 102.167,297.5 102.833,297.5 103.5,297.5C 105.144,297.81 106.144,298.81 106.5,300.5C 104.566,299.89 102.899,298.89 101.5,297.5 Z"/></g>
<g><path style="opacity:0.949" fill="#725192" d="M 288.5,298.5 C 286.178,300.664 283.511,302.331 280.5,303.5C 280.5,303.167 280.5,302.833 280.5,302.5C 280.5,301.5 280.5,300.5 280.5,299.5C 283.167,299.167 285.833,298.833 288.5,298.5 Z"/></g>
<g><path style="opacity:0.729" fill="#8c6ca8" d="M 108.5,301.5 C 110.989,301.241 112.656,302.241 113.5,304.5C 111.566,303.89 109.899,302.89 108.5,301.5 Z"/></g>
<g><path style="opacity:0.835" fill="#654088" d="M 280.5,302.5 C 280.5,302.833 280.5,303.167 280.5,303.5C 279.486,304.674 278.153,305.34 276.5,305.5C 274.973,305.427 273.973,306.094 273.5,307.5C 272.486,308.674 271.153,309.34 269.5,309.5C 267.973,309.427 266.973,310.094 266.5,311.5C 265.486,312.674 264.153,313.34 262.5,313.5C 262.167,313.5 261.833,313.5 261.5,313.5C 264.667,310.223 268.334,307.39 272.5,305C 274.927,303.409 277.593,302.575 280.5,302.5 Z"/></g>
<g><path style="opacity:0.008" fill="#e6d0f3" d="M 276.5,305.5 C 276.027,306.906 275.027,307.573 273.5,307.5C 273.973,306.094 274.973,305.427 276.5,305.5 Z"/></g>
<g><path style="opacity:0.11" fill="#c4acd3" d="M 117.5,306.5 C 119.027,306.427 120.027,307.094 120.5,308.5C 118.973,308.573 117.973,307.906 117.5,306.5 Z"/></g>
<g><path style="opacity:1" fill="#4a1f7b" d="M 155.5,327.5 C 154.833,327.5 154.167,327.5 153.5,327.5C 152.508,327.672 151.842,327.338 151.5,326.5C 150.341,324.75 148.674,323.75 146.5,323.5C 146.027,322.094 145.027,321.427 143.5,321.5C 141.847,321.34 140.514,320.674 139.5,319.5C 139.027,318.094 138.027,317.427 136.5,317.5C 134.847,317.34 133.514,316.674 132.5,315.5C 132.167,314.833 131.833,314.167 131.5,313.5C 133.167,313.5 134.833,313.5 136.5,313.5C 136.066,310.834 137.066,309.667 139.5,310C 140.007,312.14 139.507,313.974 138,315.5C 140.56,317.291 143.393,318.457 146.5,319C 145.5,319.333 144.5,319.667 143.5,320C 148.125,321.685 152.125,324.185 155.5,327.5 Z"/></g>
<g><path style="opacity:0.012" fill="#e3d2ed" d="M 269.5,309.5 C 269.027,310.906 268.027,311.573 266.5,311.5C 266.973,310.094 267.973,309.427 269.5,309.5 Z"/></g>
<g><path style="opacity:0.122" fill="#bea6d1" d="M 124.5,310.5 C 126.027,310.427 127.027,311.094 127.5,312.5C 125.973,312.573 124.973,311.906 124.5,310.5 Z"/></g>
<g><path style="opacity:0.102" fill="#cdc2dd" d="M 129.5,313.5 C 130.167,313.5 130.833,313.5 131.5,313.5C 131.833,314.167 132.167,314.833 132.5,315.5C 130.973,315.573 129.973,314.906 129.5,313.5 Z"/></g>
<g><path style="opacity:0.012" fill="#e4d1e8" d="M 260.5,313.5 C 260.833,313.5 261.167,313.5 261.5,313.5C 261.833,313.5 262.167,313.5 262.5,313.5C 262.027,314.906 261.027,315.573 259.5,315.5C 259.833,314.833 260.167,314.167 260.5,313.5 Z"/></g>
<g><path style="opacity:0.647" fill="#5e3b7f" d="M 260.5,313.5 C 260.167,314.167 259.833,314.833 259.5,315.5C 259.158,316.338 258.492,316.672 257.5,316.5C 255.973,316.427 254.973,317.094 254.5,318.5C 253.486,319.674 252.153,320.34 250.5,320.5C 250.167,320.5 249.833,320.5 249.5,320.5C 250.945,318.867 252.279,317.034 253.5,315C 255.866,314.56 258.199,314.06 260.5,313.5 Z"/></g>
<g><path style="opacity:0.004" fill="#e8daf3" d="M 257.5,316.5 C 257.027,317.906 256.027,318.573 254.5,318.5C 254.973,317.094 255.973,316.427 257.5,316.5 Z"/></g>
<g><path style="opacity:0.114" fill="#d0bbdd" d="M 136.5,317.5 C 138.027,317.427 139.027,318.094 139.5,319.5C 137.973,319.573 136.973,318.906 136.5,317.5 Z"/></g>
<g><path style="opacity:0.02" fill="#e6d4f4" d="M 248.5,320.5 C 248.833,320.5 249.167,320.5 249.5,320.5C 249.833,320.5 250.167,320.5 250.5,320.5C 250.027,321.906 249.027,322.573 247.5,322.5C 247.833,321.833 248.167,321.167 248.5,320.5 Z"/></g>
<g><path style="opacity:0.129" fill="#c5b3d8" d="M 143.5,321.5 C 145.027,321.427 146.027,322.094 146.5,323.5C 144.973,323.573 143.973,322.906 143.5,321.5 Z"/></g>
<g><path style="opacity:0.082" fill="#dbcceb" d="M 146.5,323.5 C 148.674,323.75 150.341,324.75 151.5,326.5C 149.326,326.25 147.659,325.25 146.5,323.5 Z"/></g>
<g><path style="opacity:0.008" fill="#f0e2f7" d="M 245.5,323.5 C 245.027,324.906 244.027,325.573 242.5,325.5C 242.973,324.094 243.973,323.427 245.5,323.5 Z"/></g>
<g><path style="opacity:1" fill="#603689" d="M 248.5,320.5 C 248.167,321.167 247.833,321.833 247.5,322.5C 247.158,323.338 246.492,323.672 245.5,323.5C 243.973,323.427 242.973,324.094 242.5,325.5C 239.001,327.75 235.335,329.75 231.5,331.5C 229.973,331.427 228.973,332.094 228.5,333.5C 227.486,334.674 226.153,335.34 224.5,335.5C 224.167,335.5 223.833,335.5 223.5,335.5C 225.118,333.675 226.785,331.842 228.5,330C 228.333,329.5 228.167,329 228,328.5C 226.493,329.535 224.993,329.368 223.5,328C 224.978,325.961 226.978,325.128 229.5,325.5C 229.5,326.5 229.5,327.5 229.5,328.5C 231.167,328.5 232.833,328.5 234.5,328.5C 234.5,327.167 234.5,325.833 234.5,324.5C 236.527,324.662 238.527,324.495 240.5,324C 243.071,322.546 245.738,321.38 248.5,320.5 Z"/></g>
<g><path style="opacity:0.078" fill="#e6d6f1" d="M 153.5,327.5 C 154.167,327.5 154.833,327.5 155.5,327.5C 155.833,328.167 156.167,328.833 156.5,329.5C 154.973,329.573 153.973,328.906 153.5,327.5 Z"/></g>
<g><path style="opacity:0.998" fill="#593381" d="M 155.5,327.5 C 161.422,328.127 166.088,330.794 169.5,335.5C 168.833,335.5 168.167,335.5 167.5,335.5C 165.847,335.34 164.514,334.674 163.5,333.5C 163.027,332.094 162.027,331.427 160.5,331.5C 158.847,331.34 157.514,330.674 156.5,329.5C 156.167,328.833 155.833,328.167 155.5,327.5 Z"/></g>
<g><path style="opacity:0.129" fill="#dccbea" d="M 160.5,331.5 C 162.027,331.427 163.027,332.094 163.5,333.5C 161.973,333.573 160.973,332.906 160.5,331.5 Z"/></g>
<g><path style="opacity:0.008" fill="#ebdff2" d="M 231.5,331.5 C 231.027,332.906 230.027,333.573 228.5,333.5C 228.973,332.094 229.973,331.427 231.5,331.5 Z"/></g>
<g><path style="opacity:0.784" fill="#9278a8" d="M 223.5,335.5 C 223.833,335.5 224.167,335.5 224.5,335.5C 223.341,337.25 221.674,338.25 219.5,338.5C 220.598,337.603 220.598,336.77 219.5,336C 220.793,335.51 222.127,335.343 223.5,335.5 Z"/></g>
<g><path style="opacity:0.098" fill="#dcc9ea" d="M 167.5,335.5 C 168.167,335.5 168.833,335.5 169.5,335.5C 169.833,336.167 170.167,336.833 170.5,337.5C 168.973,337.573 167.973,336.906 167.5,335.5 Z"/></g>
<g><path style="opacity:0.098" fill="#dcc3eb" d="M 174.5,339.5 C 176.027,339.427 177.027,340.094 177.5,341.5C 175.973,341.573 174.973,340.906 174.5,339.5 Z"/></g>
<g><path style="opacity:0.082" fill="#c4aecf" d="M 181.5,343.5 C 183.553,343.402 185.22,344.069 186.5,345.5C 184.447,345.598 182.78,344.931 181.5,343.5 Z"/></g>
<g><path style="opacity:0.878" fill="#471d78" d="M 169.5,335.5 C 172.817,335.781 175.983,335.781 179,335.5C 180.41,336.787 181.91,337.954 183.5,339C 182.833,339.333 182.167,339.667 181.5,340C 185.192,343.178 189.525,344.678 194.5,344.5C 202.277,342.919 209.943,341.253 217.5,339.5C 214.753,342.207 211.42,343.873 207.5,344.5C 200.857,345.212 194.191,345.546 187.5,345.5C 187.167,345.5 186.833,345.5 186.5,345.5C 185.22,344.069 183.553,343.402 181.5,343.5C 179.847,343.34 178.514,342.674 177.5,341.5C 177.027,340.094 176.027,339.427 174.5,339.5C 172.847,339.34 171.514,338.674 170.5,337.5C 170.167,336.833 169.833,336.167 169.5,335.5 Z"/></g>
<g><path style="opacity:0.306" fill="#765994" d="M 207.5,344.5 C 203.966,346.048 200.133,346.714 196,346.5C 192.979,346.498 190.146,346.164 187.5,345.5C 194.191,345.546 200.857,345.212 207.5,344.5 Z"/></g>
</svg>
