<?xml version="1.0" encoding="UTF-8"?>
<!DOCTYPE svg PUBLIC "-//W3C//DTD SVG 1.1//EN" "http://www.w3.org/Graphics/SVG/1.1/DTD/svg11.dtd">
<svg xmlns="http://www.w3.org/2000/svg" version="1.1" width="124px" height="124px" style="shape-rendering:geometricPrecision; text-rendering:geometricPrecision; image-rendering:optimizeQuality; fill-rule:evenodd; clip-rule:evenodd" xmlns:xlink="http://www.w3.org/1999/xlink">
<g><path style="opacity:1" fill="#e4efff" d="M 105.5,32.5 C 105.427,34.0269 106.094,35.0269 107.5,35.5C 108.972,53.5091 108.805,71.5091 107,89.5C 93.221,97.638 79.3876,105.638 65.5,113.5C 62.8333,113.5 60.1667,113.5 57.5,113.5C 54.9684,112.404 52.6351,111.071 50.5,109.5C 50.0269,108.094 49.0269,107.427 47.5,107.5C 46.5084,107.672 45.8417,107.338 45.5,106.5C 45.0269,105.094 44.0269,104.427 42.5,104.5C 35.3293,100.749 28.3293,96.7495 21.5,92.5C 21.0269,91.0937 20.0269,90.427 18.5,90.5C 16.2239,90.2435 15.0572,88.9102 15,86.5C 14.3333,69.8333 14.3333,53.1667 15,36.5C 15.7739,34.0607 17.2739,32.2273 19.5,31C 33.3923,22.9335 47.3923,15.1001 61.5,7.5C 76.1637,15.8286 90.8304,24.1619 105.5,32.5 Z M 76.5,22.5 C 76.9731,23.9063 77.9731,24.573 79.5,24.5C 86.7701,28.807 94.1035,33.1404 101.5,37.5C 102.833,53.5 102.833,69.5 101.5,85.5C 88.1433,93.2045 74.8099,100.871 61.5,108.5C 48.298,100.805 34.9646,93.3052 21.5,86C 20.1763,69.8972 20.1763,53.7306 21.5,37.5C 34.8333,29.8333 48.1667,22.1667 61.5,14.5C 66.3951,17.4464 71.3951,20.1131 76.5,22.5 Z"/></g>
<g><path style="opacity:0.267" fill="#7ebfff" d="M 76.5,22.5 C 78.0269,22.427 79.0269,23.0937 79.5,24.5C 77.9731,24.573 76.9731,23.9063 76.5,22.5 Z"/></g>
<g><path style="opacity:0.38" fill="#81bfff" d="M 105.5,32.5 C 106.906,32.9731 107.573,33.9731 107.5,35.5C 106.094,35.0269 105.427,34.0269 105.5,32.5 Z"/></g>
<g><path style="opacity:0.412" fill="#68b1e8" d="M 37.5,46.5 C 36.5084,46.3284 35.8417,46.6618 35.5,47.5C 31.6836,46.0908 28.3503,43.9242 25.5,41C 30.1051,41.4685 34.1051,43.3019 37.5,46.5 Z"/></g>
<g><path style="opacity:0.608" fill="#6db1e5" d="M 85.5,48.5 C 85.1583,47.6618 84.4916,47.3284 83.5,47.5C 87.5582,43.9702 92.2249,41.8035 97.5,41C 93.9482,44.2728 89.9482,46.7728 85.5,48.5 Z"/></g>
<g><path style="opacity:0.89" fill="#8fbcd9" d="M 37.5,46.5 C 45.4025,50.7014 53.2359,55.0348 61,59.5C 68.5905,55.6221 76.0905,51.6221 83.5,47.5C 84.4916,47.3284 85.1583,47.6618 85.5,48.5C 78.1481,53.2669 70.6481,57.9335 63,62.5C 62.5002,71.8274 62.3335,81.1607 62.5,90.5C 61.8333,90.5 61.1667,90.5 60.5,90.5C 59.5554,81.1754 59.3887,71.8421 60,62.5C 51.6861,57.6001 43.5194,52.6001 35.5,47.5C 35.8417,46.6618 36.5084,46.3284 37.5,46.5 Z"/></g>
<g><path style="opacity:0.267" fill="#77bcff" d="M 18.5,90.5 C 20.0269,90.427 21.0269,91.0937 21.5,92.5C 19.9731,92.573 18.9731,91.9063 18.5,90.5 Z"/></g>
<g><path style="opacity:0.422" fill="#539ee4" d="M 60.5,90.5 C 61.1667,90.5 61.8333,90.5 62.5,90.5C 62.8242,94.5546 62.4909,98.5546 61.5,102.5C 60.7078,100.535 60.0412,98.5352 59.5,96.5C 60.3482,94.5914 60.6816,92.5914 60.5,90.5 Z"/></g>
<g><path style="opacity:0.294" fill="#7ebfff" d="M 42.5,104.5 C 44.0269,104.427 45.0269,105.094 45.5,106.5C 43.9731,106.573 42.9731,105.906 42.5,104.5 Z"/></g>
<g><path style="opacity:0.208" fill="#6cb7ff" d="M 47.5,107.5 C 49.0269,107.427 50.0269,108.094 50.5,109.5C 48.9731,109.573 47.9731,108.906 47.5,107.5 Z"/></g>
<g><path style="opacity:0.996" fill="#a0ccff" d="M 57.5,113.5 C 60.1667,113.5 62.8333,113.5 65.5,113.5C 62.8333,116.167 60.1667,116.167 57.5,113.5 Z"/></g>
</svg>
