<?xml version="1.0" encoding="UTF-8"?>
<!DOCTYPE svg PUBLIC "-//W3C//DTD SVG 1.1//EN" "http://www.w3.org/Graphics/SVG/1.1/DTD/svg11.dtd">
<svg xmlns="http://www.w3.org/2000/svg" version="1.1" width="320px" height="320px" style="shape-rendering:geometricPrecision; text-rendering:geometricPrecision; image-rendering:optimizeQuality; fill-rule:evenodd; clip-rule:evenodd" xmlns:xlink="http://www.w3.org/1999/xlink">
<g><path style="opacity:1" fill="#4f5662" d="M 69.5,74.5 C 70.1667,74.5 70.8333,74.5 71.5,74.5C 76.8437,74.334 82.1771,74.5006 87.5,75C 86.8333,75.6667 86.1667,76.3333 85.5,77C 83.2922,77.1909 81.2922,77.6909 79.5,78.5C 75.0968,76.7006 70.4302,76.034 65.5,76.5C 66.8333,75.8333 68.1667,75.1667 69.5,74.5 Z"/></g>
<g><path style="opacity:1" fill="#90949b" d="M 71.5,74.5 C 77.987,73.346 84.6536,73.1794 91.5,74C 92.4506,74.7175 92.6172,75.5509 92,76.5C 91.2411,78.0629 90.0744,79.0629 88.5,79.5C 89.5624,78.4246 89.5624,77.4246 88.5,76.5C 87.1861,77.3128 86.0195,78.3128 85,79.5C 83.3005,78.5939 81.4672,78.2606 79.5,78.5C 81.2922,77.6909 83.2922,77.1909 85.5,77C 86.1667,76.3333 86.8333,75.6667 87.5,75C 82.1771,74.5006 76.8437,74.334 71.5,74.5 Z"/></g>
<g><path style="opacity:1" fill="#3a3d42" d="M 65.5,76.5 C 70.4302,76.034 75.0968,76.7006 79.5,78.5C 81.4672,78.2606 83.3005,78.5939 85,79.5C 86.0195,78.3128 87.1861,77.3128 88.5,76.5C 89.5624,77.4246 89.5624,78.4246 88.5,79.5C 87.0937,79.9731 86.427,80.9731 86.5,82.5C 86.3404,84.153 85.6737,85.4863 84.5,86.5C 82.8333,89.8333 81.1667,93.1667 79.5,96.5C 79.8918,92.4185 80.5584,88.4185 81.5,84.5C 81.7148,82.8212 81.0481,81.8212 79.5,81.5C 78.0813,80.5489 76.4147,80.2155 74.5,80.5C 73.3784,79.8442 72.0451,79.5108 70.5,79.5C 63.8954,80.8232 57.2287,81.4899 50.5,81.5C 50.5,81.1667 50.5,80.8333 50.5,80.5C 55.5007,79.1664 60.5007,77.833 65.5,76.5 Z"/></g>
<g><path style="opacity:0.745" fill="#a6a8ab" d="M 69.5,74.5 C 68.1667,75.1667 66.8333,75.8333 65.5,76.5C 60.5007,77.833 55.5007,79.1664 50.5,80.5C 56.2067,76.933 62.54,74.933 69.5,74.5 Z"/></g>
<g><path style="opacity:0.098" fill="#cccdce" d="M 88.5,79.5 C 88.573,81.0269 87.9063,82.0269 86.5,82.5C 86.427,80.9731 87.0937,79.9731 88.5,79.5 Z"/></g>
<g><path style="opacity:1" fill="#d9cfad" d="M 74.5,80.5 C 76.4147,80.2155 78.0813,80.5489 79.5,81.5C 75.9046,83.1023 72.5712,85.1023 69.5,87.5C 69.5,86.5 69.5,85.5 69.5,84.5C 64.8592,85.1266 60.1925,85.4599 55.5,85.5C 61.3661,82.4574 67.6995,80.7907 74.5,80.5 Z"/></g>
<g><path style="opacity:1" fill="#e6d191" d="M 69.5,87.5 C 69.4431,88.609 69.1098,89.609 68.5,90.5C 67.0256,91.4363 66.0256,92.7697 65.5,94.5C 65.1667,94.5 64.8333,94.5 64.5,94.5C 64.2148,92.712 64.5481,91.0453 65.5,89.5C 68.123,88.5074 68.623,87.1741 67,85.5C 63.5981,86.7259 60.0981,87.3926 56.5,87.5C 56.5,89.8333 56.5,92.1667 56.5,94.5C 56.1667,94.5 55.8333,94.5 55.5,94.5C 55.2962,91.4824 54.9629,88.4824 54.5,85.5C 54.8333,85.5 55.1667,85.5 55.5,85.5C 60.1925,85.4599 64.8592,85.1266 69.5,84.5C 69.5,85.5 69.5,86.5 69.5,87.5 Z"/></g>
<g><path style="opacity:0.808" fill="#a9acb2" d="M 38.5,84.5 C 34.6754,87.5822 30.3421,89.9155 25.5,91.5C 24.2776,93.9783 22.2776,94.9783 19.5,94.5C 25.0777,89.8762 31.4111,86.5429 38.5,84.5 Z"/></g>
<g><path style="opacity:1" fill="#f5e381" d="M 64.5,94.5 C 62.7376,95.2623 61.7376,96.5956 61.5,98.5C 59.0885,98.1367 57.5885,99.1367 57,101.5C 56.5034,99.1902 56.3367,96.8568 56.5,94.5C 56.5,92.1667 56.5,89.8333 56.5,87.5C 60.0981,87.3926 63.5981,86.7259 67,85.5C 68.623,87.1741 68.123,88.5074 65.5,89.5C 64.5481,91.0453 64.2148,92.712 64.5,94.5 Z"/></g>
<g><path style="opacity:1" fill="#4a171c" d="M 79.5,81.5 C 81.0481,81.8212 81.7148,82.8212 81.5,84.5C 79.9032,85.7373 78.7365,87.404 78,89.5C 76.5168,92.8026 75.3501,96.1359 74.5,99.5C 74.5,97.5 74.5,95.5 74.5,93.5C 71.2624,95.2968 69.2624,94.2968 68.5,90.5C 69.1098,89.609 69.4431,88.609 69.5,87.5C 72.5712,85.1023 75.9046,83.1023 79.5,81.5 Z"/></g>
<g><path style="opacity:1" fill="#6e7278" d="M 44.5,136.5 C 43.8333,132.167 43.1667,127.833 42.5,123.5C 42.8516,109.463 42.5183,98.1298 41.5,89.5C 41.1667,89.5 40.8333,89.5 40.5,89.5C 28.8024,91.9003 18.8024,97.4003 10.5,106C 9.5,106.667 8.5,106.667 7.5,106C 9.11613,105.385 10.4495,104.385 11.5,103C 10.9056,102.536 10.2389,102.369 9.5,102.5C 10.1667,101.5 10.8333,100.5 11.5,99.5C 13.0269,99.573 14.0269,98.9063 14.5,97.5C 16.8477,97.4077 18.5144,96.4077 19.5,94.5C 22.2776,94.9783 24.2776,93.9783 25.5,91.5C 30.3421,89.9155 34.6754,87.5822 38.5,84.5C 40.1708,82.9923 42.0041,82.6589 44,83.5C 44.4999,101.164 44.6666,118.83 44.5,136.5 Z"/></g>
<g><path style="opacity:0.133" fill="#c9cbce" d="M 84.5,86.5 C 82.4689,92.922 80.4689,99.2553 78.5,105.5C 78.7038,102.482 79.0371,99.4824 79.5,96.5C 81.1667,93.1667 82.8333,89.8333 84.5,86.5 Z"/></g>
<g><path style="opacity:1" fill="#5a1a16" d="M 68.5,90.5 C 69.2624,94.2968 71.2624,95.2968 74.5,93.5C 74.5,95.5 74.5,97.5 74.5,99.5C 74.6716,100.492 74.3382,101.158 73.5,101.5C 73.1344,100.305 72.301,99.6387 71,99.5C 65.2546,101.641 63.4213,99.974 65.5,94.5C 66.0256,92.7697 67.0256,91.4363 68.5,90.5 Z"/></g>
<g><path style="opacity:0.353" fill="#c5c7ca" d="M 19.5,94.5 C 18.5144,96.4077 16.8477,97.4077 14.5,97.5C 15.6594,95.7497 17.326,94.7497 19.5,94.5 Z"/></g>
<g><path style="opacity:0.345" fill="#d5d6d9" d="M 14.5,97.5 C 14.0269,98.9063 13.0269,99.573 11.5,99.5C 11.9731,98.0937 12.9731,97.427 14.5,97.5 Z"/></g>
<g><path style="opacity:1" fill="#752d19" d="M 64.5,94.5 C 64.8333,94.5 65.1667,94.5 65.5,94.5C 63.4213,99.974 65.2546,101.641 71,99.5C 72.301,99.6387 73.1344,100.305 73.5,101.5C 73.0199,106.822 72.6865,112.155 72.5,117.5C 72.1667,117.5 71.8333,117.5 71.5,117.5C 71.5,114.167 71.5,110.833 71.5,107.5C 72.4614,105.735 72.7947,103.735 72.5,101.5C 69.4606,102.01 66.4606,102.677 63.5,103.5C 63.5079,100.455 63.8413,97.4552 64.5,94.5 Z"/></g>
<g><path style="opacity:1" fill="#f0edd3" d="M 37.5,92.5 C 38.3764,92.3691 39.0431,92.7025 39.5,93.5C 38.7542,94.7362 38.4208,96.0695 38.5,97.5C 38.1667,97.5 37.8333,97.5 37.5,97.5C 36.6857,95.7274 35.3524,95.2274 33.5,96C 27.0673,98.9727 21.4007,102.806 16.5,107.5C 13.1742,107.033 12.8409,105.866 15.5,104C 22.4143,99.3761 29.7476,95.5428 37.5,92.5 Z"/></g>
<g><path style="opacity:1" fill="#f7e27c" d="M 37.5,100.5 C 37.5,103.167 37.5,105.833 37.5,108.5C 37.1667,108.5 36.8333,108.5 36.5,108.5C 37.0362,105.135 35.7028,103.135 32.5,102.5C 29.5147,102.993 26.848,104.16 24.5,106C 23.8288,106.986 23.8288,108.153 24.5,109.5C 25.2341,110.708 25.5674,112.041 25.5,113.5C 23.6115,112.396 21.9448,111.063 20.5,109.5C 22.6161,105.883 25.2827,102.716 28.5,100C 31.733,97.9157 34.733,98.0824 37.5,100.5 Z"/></g>
<g><path style="opacity:1" fill="#43250e" d="M 40.5,89.5 C 40.8333,89.5 41.1667,89.5 41.5,89.5C 41.5,106.167 41.5,122.833 41.5,139.5C 40.507,131.016 40.1736,122.349 40.5,113.5C 40.825,105.981 40.4916,98.6476 39.5,91.5C 39.8333,90.8333 40.1667,90.1667 40.5,89.5 Z"/></g>
<g><path style="opacity:1" fill="#1d1e1c" d="M 74.5,80.5 C 67.6995,80.7907 61.3661,82.4574 55.5,85.5C 55.1667,85.5 54.8333,85.5 54.5,85.5C 54.1667,85.5 53.8333,85.5 53.5,85.5C 53.1624,103.357 52.1624,121.024 50.5,138.5C 50.5,137.833 50.5,137.167 50.5,136.5C 50.5,118.167 50.5,99.8333 50.5,81.5C 57.2287,81.4899 63.8954,80.8232 70.5,79.5C 72.0451,79.5108 73.3784,79.8442 74.5,80.5 Z"/></g>
<g><path style="opacity:0.663" fill="#9b9c9e" d="M 11.5,99.5 C 10.8333,100.5 10.1667,101.5 9.5,102.5C 8.07797,103.925 6.4113,104.925 4.5,105.5C 6.23931,102.757 8.57265,100.757 11.5,99.5 Z"/></g>
<g><path style="opacity:1" fill="#f9eda1" d="M 37.5,97.5 C 37.5,98.5 37.5,99.5 37.5,100.5C 34.733,98.0824 31.733,97.9157 28.5,100C 25.2827,102.716 22.6161,105.883 20.5,109.5C 19.1667,109.167 17.8333,108.833 16.5,108.5C 16.5,108.167 16.5,107.833 16.5,107.5C 21.4007,102.806 27.0673,98.9727 33.5,96C 35.3524,95.2274 36.6857,95.7274 37.5,97.5 Z"/></g>
<g><path style="opacity:1" fill="#fbe268" d="M 36.5,108.5 C 34.1282,108.532 31.4615,108.699 28.5,109C 27.436,110.511 26.1026,110.677 24.5,109.5C 23.8288,108.153 23.8288,106.986 24.5,106C 26.848,104.16 29.5147,102.993 32.5,102.5C 35.7028,103.135 37.0362,105.135 36.5,108.5 Z"/></g>
<g><path style="opacity:0.596" fill="#909191" d="M 4.5,105.5 C 4.55688,106.609 4.89022,107.609 5.5,108.5C 2.28549,108.013 1.95216,107.013 4.5,105.5 Z"/></g>
<g><path style="opacity:1" fill="#262424" d="M 40.5,89.5 C 40.1667,90.1667 39.8333,90.8333 39.5,91.5C 38.5084,91.3284 37.8417,91.6618 37.5,92.5C 29.7476,95.5428 22.4143,99.3761 15.5,104C 12.8409,105.866 13.1742,107.033 16.5,107.5C 16.5,107.833 16.5,108.167 16.5,108.5C 21.4645,114.33 22.7978,120.997 20.5,128.5C 19.5269,130.948 19.1936,133.615 19.5,136.5C 18.8333,135.833 18.1667,135.167 17.5,134.5C 17.8229,128.31 17.4896,122.31 16.5,116.5C 16.1436,114.81 15.1436,113.81 13.5,113.5C 12.7377,111.738 11.4044,110.738 9.5,110.5C 7.84702,110.34 6.51369,109.674 5.5,108.5C 4.89022,107.609 4.55688,106.609 4.5,105.5C 6.4113,104.925 8.07797,103.925 9.5,102.5C 10.2389,102.369 10.9056,102.536 11.5,103C 10.4495,104.385 9.11613,105.385 7.5,106C 8.5,106.667 9.5,106.667 10.5,106C 18.8024,97.4003 28.8024,91.9003 40.5,89.5 Z"/></g>
<g><path style="opacity:1" fill="#a26a4a" d="M 37.5,92.5 C 37.8417,91.6618 38.5084,91.3284 39.5,91.5C 40.4916,98.6476 40.825,105.981 40.5,113.5C 40.1667,113.5 39.8333,113.5 39.5,113.5C 38.5119,108.36 38.1786,103.026 38.5,97.5C 38.4208,96.0695 38.7542,94.7362 39.5,93.5C 39.0431,92.7025 38.3764,92.3691 37.5,92.5 Z"/></g>
<g><path style="opacity:1" fill="#953617" d="M 71.5,107.5 C 69.5987,108.931 67.432,109.931 65,110.5C 64.7679,109.263 64.2679,108.263 63.5,107.5C 63.5,106.167 63.5,104.833 63.5,103.5C 66.4606,102.677 69.4606,102.01 72.5,101.5C 72.7947,103.735 72.4614,105.735 71.5,107.5 Z"/></g>
<g><path style="opacity:0.306" fill="#b1b2b2" d="M 9.5,110.5 C 11.4044,110.738 12.7377,111.738 13.5,113.5C 11.5956,113.262 10.2623,112.262 9.5,110.5 Z"/></g>
<g><path style="opacity:1" fill="#f4c23d" d="M 55.5,94.5 C 55.8333,94.5 56.1667,94.5 56.5,94.5C 56.3367,96.8568 56.5034,99.1902 57,101.5C 57.5885,99.1367 59.0885,98.1367 61.5,98.5C 61.5,106.833 61.5,115.167 61.5,123.5C 59.8333,124.833 58.1667,126.167 56.5,127.5C 56.1667,127.5 55.8333,127.5 55.5,127.5C 55.5,116.5 55.5,105.5 55.5,94.5 Z"/></g>
<g><path style="opacity:0.693" fill="#7a7c7b" d="M 50.5,80.5 C 50.5,80.8333 50.5,81.1667 50.5,81.5C 50.5,99.8333 50.5,118.167 50.5,136.5C 50.1667,136.5 49.8333,136.5 49.5,136.5C 49.5,124.167 49.5,111.833 49.5,99.5C 48.1271,93.0013 48.4604,86.668 50.5,80.5 Z"/></g>
<g><path style="opacity:1" fill="#bb5523" d="M 63.5,107.5 C 64.2679,108.263 64.7679,109.263 65,110.5C 67.432,109.931 69.5987,108.931 71.5,107.5C 71.5,110.833 71.5,114.167 71.5,117.5C 71.1667,117.5 70.8333,117.5 70.5,117.5C 69.027,118.74 67.3604,119.74 65.5,120.5C 64.8182,119.757 64.1515,119.091 63.5,118.5C 63.5,114.833 63.5,111.167 63.5,107.5 Z"/></g>
<g><path style="opacity:1" fill="#501f18" d="M 16.5,108.5 C 17.8333,108.833 19.1667,109.167 20.5,109.5C 21.9448,111.063 23.6115,112.396 25.5,113.5C 26.7729,115.713 27.7729,118.046 28.5,120.5C 27.6082,123.292 25.6082,124.625 22.5,124.5C 21.6576,129.787 21.3243,135.12 21.5,140.5C 21.5,145.833 21.5,151.167 21.5,156.5C 21.5,169.167 21.5,181.833 21.5,194.5C 21.5,195.5 21.5,196.5 21.5,197.5C 21.1667,197.5 20.8333,197.5 20.5,197.5C 20.5,174.5 20.5,151.5 20.5,128.5C 22.7978,120.997 21.4645,114.33 16.5,108.5 Z"/></g>
<g><path style="opacity:1" fill="#efc061" d="M 64.5,94.5 C 63.8413,97.4552 63.5079,100.455 63.5,103.5C 63.5,104.833 63.5,106.167 63.5,107.5C 63.5,111.167 63.5,114.833 63.5,118.5C 63.5,119.833 63.5,121.167 63.5,122.5C 62.8333,122.833 62.1667,123.167 61.5,123.5C 61.5,115.167 61.5,106.833 61.5,98.5C 61.7376,96.5956 62.7376,95.2623 64.5,94.5 Z"/></g>
<g><path style="opacity:1" fill="#c7733c" d="M 53.5,85.5 C 53.8333,85.5 54.1667,85.5 54.5,85.5C 54.9629,88.4824 55.2962,91.4824 55.5,94.5C 55.5,105.5 55.5,116.5 55.5,127.5C 55.1667,128.5 54.5,129.167 53.5,129.5C 53.5,114.833 53.5,100.167 53.5,85.5 Z"/></g>
<g><path style="opacity:1" fill="#e5a044" d="M 70.5,117.5 C 70.5,119.5 70.5,121.5 70.5,123.5C 68.0504,123.702 65.717,123.369 63.5,122.5C 63.5,121.167 63.5,119.833 63.5,118.5C 64.1515,119.091 64.8182,119.757 65.5,120.5C 67.3604,119.74 69.027,118.74 70.5,117.5 Z"/></g>
<g><path style="opacity:1" fill="#f5c134" d="M 36.5,108.5 C 36.8333,108.5 37.1667,108.5 37.5,108.5C 38.2493,119.484 38.5826,130.484 38.5,141.5C 35.5999,142.443 33.2666,144.11 31.5,146.5C 32.1335,137.502 32.3001,128.502 32,119.5C 30.8111,117.767 29.6444,116.1 28.5,114.5C 27.609,113.89 26.609,113.557 25.5,113.5C 25.5674,112.041 25.2341,110.708 24.5,109.5C 26.1026,110.677 27.436,110.511 28.5,109C 31.4615,108.699 34.1282,108.532 36.5,108.5 Z"/></g>
<g><path style="opacity:0.331" fill="#afb1b5" d="M 156.5,124.5 C 147.833,124.5 139.167,124.5 130.5,124.5C 122.826,124.334 115.159,124.5 107.5,125C 106.956,125.717 106.289,126.217 105.5,126.5C 105.414,125.504 105.748,124.671 106.5,124C 123.338,123.172 140.005,123.338 156.5,124.5 Z"/></g>
<g><path style="opacity:0.2" fill="#c1c3c6" d="M 270.5,124.5 C 254.167,124.5 237.833,124.5 221.5,124.5C 221.811,123.522 222.478,122.855 223.5,122.5C 235.833,123.833 248.167,123.833 260.5,122.5C 263.971,123.097 267.305,123.764 270.5,124.5 Z"/></g>
<g><path style="opacity:0.051" fill="#d4d5d8" d="M 307.5,156.5 C 307.5,157.167 307.167,157.5 306.5,157.5C 304.5,157.5 302.5,157.5 300.5,157.5C 300.5,146.5 300.5,135.5 300.5,124.5C 294.833,124.5 289.167,124.5 283.5,124.5C 281.167,124.5 278.833,124.5 276.5,124.5C 276.5,125.833 276.5,127.167 276.5,128.5C 276.167,128.5 275.833,128.5 275.5,128.5C 275.5,126.833 275.5,125.167 275.5,123.5C 284.21,123.441 292.71,123.441 301,123.5C 301.5,134.495 301.667,145.495 301.5,156.5C 303.5,156.5 305.5,156.5 307.5,156.5 Z"/></g>
<g><path style="opacity:0.89" fill="#3a3c3e" d="M 221.5,125.5 C 221.5,125.167 221.5,124.833 221.5,124.5C 237.833,124.5 254.167,124.5 270.5,124.5C 271.5,126.167 272.833,127.5 274.5,128.5C 274.5,129.5 274.5,130.5 274.5,131.5C 273.609,130.89 272.609,130.557 271.5,130.5C 270.5,130.167 269.833,129.5 269.5,128.5C 269.389,127.883 269.056,127.383 268.5,127C 261.858,126.169 255.191,125.669 248.5,125.5C 244.761,125.514 241.428,126.18 238.5,127.5C 236.5,127.5 235.5,128.5 235.5,130.5C 234.833,130.833 234.167,131.167 233.5,131.5C 233.421,130.07 233.754,128.736 234.5,127.5C 230.283,126.088 225.95,125.421 221.5,125.5 Z"/></g>
<g><path style="opacity:0.012" fill="#cfcfd2" d="M 270.5,124.5 C 272.833,124.833 274.167,126.167 274.5,128.5C 272.833,127.5 271.5,126.167 270.5,124.5 Z"/></g>
<g><path style="opacity:0.858" fill="#3e4044" d="M 283.5,124.5 C 289.167,124.5 294.833,124.5 300.5,124.5C 300.5,135.5 300.5,146.5 300.5,157.5C 302.5,157.5 304.5,157.5 306.5,157.5C 304.562,159.163 302.228,159.829 299.5,159.5C 299.821,153.974 299.488,148.64 298.5,143.5C 298.821,137.974 298.488,132.64 297.5,127.5C 292.909,126.108 288.243,125.108 283.5,124.5 Z"/></g>
<g><path style="opacity:1" fill="#e7a349" d="M 37.5,97.5 C 37.8333,97.5 38.1667,97.5 38.5,97.5C 38.1786,103.026 38.5119,108.36 39.5,113.5C 39.5,122.5 39.5,131.5 39.5,140.5C 39.5,140.833 39.5,141.167 39.5,141.5C 39.1667,141.5 38.8333,141.5 38.5,141.5C 38.5826,130.484 38.2493,119.484 37.5,108.5C 37.5,105.833 37.5,103.167 37.5,100.5C 37.5,99.5 37.5,98.5 37.5,97.5 Z"/></g>
<g><path style="opacity:1" fill="#515354" d="M 84.5,124.5 C 89.1667,124.5 93.8333,124.5 98.5,124.5C 98.8333,125.167 99.1667,125.833 99.5,126.5C 96.7104,126.751 93.7104,126.751 90.5,126.5C 88.5,125.833 86.5,125.167 84.5,124.5 Z"/></g>
<g><path style="opacity:1" fill="#26282b" d="M 130.5,124.5 C 135.167,125.167 139.833,125.833 144.5,126.5C 131.451,126.204 118.451,126.537 105.5,127.5C 105.5,127.167 105.5,126.833 105.5,126.5C 106.289,126.217 106.956,125.717 107.5,125C 115.159,124.5 122.826,124.334 130.5,124.5 Z"/></g>
<g><path style="opacity:0.998" fill="#1e1e1c" d="M 180.5,127.5 C 175.833,127.5 171.167,127.5 166.5,127.5C 165.535,128.721 165.702,130.054 167,131.5C 167.499,137.157 167.666,142.824 167.5,148.5C 166.833,148.167 166.167,147.833 165.5,147.5C 166.032,140.952 165.365,134.618 163.5,128.5C 162.15,127.176 162.317,126.176 164,125.5C 169.645,126.102 175.145,126.769 180.5,127.5 Z"/></g>
<g><path style="opacity:1" fill="#55575b" d="M 212.5,124.5 C 212.5,124.833 212.5,125.167 212.5,125.5C 205.035,126.101 197.702,126.768 190.5,127.5C 190.167,127.5 189.833,127.5 189.5,127.5C 188.209,126.458 188.209,125.292 189.5,124C 197.345,123.178 205.011,123.344 212.5,124.5 Z"/></g>
<g><path style="opacity:0.022" fill="#e9ebea" d="M 13.5,113.5 C 15.1436,113.81 16.1436,114.81 16.5,116.5C 16.5,123.5 16.5,130.5 16.5,137.5C 15.9402,129.541 14.9402,121.541 13.5,113.5 Z"/></g>
<g><path style="opacity:1" fill="#28211a" d="M 90.5,126.5 C 93.7104,126.751 96.7104,126.751 99.5,126.5C 100.955,131.247 102.955,131.58 105.5,127.5C 118.451,126.537 131.451,126.204 144.5,126.5C 148.296,126.162 151.296,126.495 153.5,127.5C 145.167,127.5 136.833,127.5 128.5,127.5C 124.867,127.443 124.7,128.443 128,130.5C 128.499,136.157 128.666,141.824 128.5,147.5C 128.167,148.5 127.5,149.167 126.5,149.5C 126.823,142.978 126.49,136.645 125.5,130.5C 125.167,130.5 124.833,130.5 124.5,130.5C 123.833,130.5 123.5,130.167 123.5,129.5C 121.668,128.282 120.668,128.949 120.5,131.5C 120.672,132.492 120.338,133.158 119.5,133.5C 117.674,135.147 116.34,137.147 115.5,139.5C 113.75,140.659 112.75,142.326 112.5,144.5C 111.094,144.973 110.427,145.973 110.5,147.5C 109.549,148.919 109.216,150.585 109.5,152.5C 108.833,157.833 108.167,163.167 107.5,168.5C 107.5,161.167 107.5,153.833 107.5,146.5C 109.975,140.219 113.475,134.553 118,129.5C 118.692,128.563 118.525,127.897 117.5,127.5C 113.988,126.945 110.988,127.612 108.5,129.5C 105.806,131.527 103.473,133.861 101.5,136.5C 101.068,135.29 100.401,134.29 99.5,133.5C 98.8331,129.459 96.4997,127.459 92.5,127.5C 89.6146,127.194 86.9479,127.527 84.5,128.5C 84.1667,128.5 83.8333,128.5 83.5,128.5C 83.3893,127.883 83.056,127.383 82.5,127C 85.146,126.503 87.8127,126.336 90.5,126.5 Z"/></g>
<g><path style="opacity:0.337" fill="#bbbdc1" d="M 156.5,124.5 C 158.727,125.401 159.727,127.067 159.5,129.5C 158.11,128.101 157.11,126.434 156.5,124.5 Z"/></g>
<g><path style="opacity:0.286" fill="#c6c7c7" d="M 212.5,124.5 C 214.262,125.262 215.262,126.596 215.5,128.5C 214.167,127.833 213.167,126.833 212.5,125.5C 212.5,125.167 212.5,124.833 212.5,124.5 Z"/></g>
<g><path style="opacity:1" fill="#252322" d="M 81.5,84.5 C 80.5584,88.4185 79.8918,92.4185 79.5,96.5C 79.0371,99.4824 78.7038,102.482 78.5,105.5C 78.5,105.833 78.5,106.167 78.5,106.5C 76.0474,115.193 75.0474,124.193 75.5,133.5C 74.7281,134.694 73.7281,135.694 72.5,136.5C 72.5,130.167 72.5,123.833 72.5,117.5C 72.6865,112.155 73.0199,106.822 73.5,101.5C 74.3382,101.158 74.6716,100.492 74.5,99.5C 75.3501,96.1359 76.5168,92.8026 78,89.5C 78.7365,87.404 79.9032,85.7373 81.5,84.5 Z"/></g>
<g><path style="opacity:1" fill="#ddcc96" d="M 84.5,128.5 C 86.9479,127.527 89.6146,127.194 92.5,127.5C 91.2112,128.637 90.2112,129.97 89.5,131.5C 88.3406,129.75 86.674,128.75 84.5,128.5 Z"/></g>
<g><path style="opacity:1" fill="#b4aa84" d="M 128.5,127.5 C 136.833,127.5 145.167,127.5 153.5,127.5C 153.5,127.833 153.5,128.167 153.5,128.5C 147.5,128.5 141.5,128.5 135.5,128.5C 133.901,128.232 132.568,128.566 131.5,129.5C 130.833,129.167 130.167,128.833 129.5,128.5C 128.833,128.5 128.5,128.167 128.5,127.5 Z"/></g>
<g><path style="opacity:1" fill="#3e4144" d="M 130.5,124.5 C 139.167,124.5 147.833,124.5 156.5,124.5C 157.11,126.434 158.11,128.101 159.5,129.5C 159.5,129.833 159.5,130.167 159.5,130.5C 159.813,134.042 159.479,137.375 158.5,140.5C 158.665,137.482 158.498,134.482 158,131.5C 157.583,130.244 156.75,129.577 155.5,129.5C 154.833,129.167 154.167,128.833 153.5,128.5C 153.5,128.167 153.5,127.833 153.5,127.5C 151.296,126.495 148.296,126.162 144.5,126.5C 139.833,125.833 135.167,125.167 130.5,124.5 Z"/></g>
<g><path style="opacity:0.694" fill="#9a8c67" d="M 166.5,127.5 C 171.167,127.5 175.833,127.5 180.5,127.5C 180.5,139.5 180.5,151.5 180.5,163.5C 179.532,161.393 179.198,159.059 179.5,156.5C 179.5,151.167 179.5,145.833 179.5,140.5C 180.089,136.029 179.423,132.029 177.5,128.5C 174.615,128.194 171.948,128.527 169.5,129.5C 168.29,129.068 167.29,128.401 166.5,127.5 Z"/></g>
<g><path style="opacity:0.843" fill="#737574" d="M 189.5,127.5 C 189.833,127.5 190.167,127.5 190.5,127.5C 192.167,128.5 193.5,129.833 194.5,131.5C 194.167,131.5 193.833,131.5 193.5,131.5C 191.833,130.5 190.5,129.167 189.5,127.5 Z"/></g>
<g><path style="opacity:0.506" fill="#b8bab9" d="M 221.5,124.5 C 221.5,124.833 221.5,125.167 221.5,125.5C 220.404,127.103 219.07,128.603 217.5,130C 216.184,130.528 215.517,130.028 215.5,128.5C 217.795,127.525 219.795,126.192 221.5,124.5 Z"/></g>
<g><path style="opacity:0.059" fill="#cfcfcf" d="M 238.5,127.5 C 239.167,127.5 239.5,127.833 239.5,128.5C 237.938,128.733 236.605,129.4 235.5,130.5C 235.5,128.5 236.5,127.5 238.5,127.5 Z"/></g>
<g><path style="opacity:1" fill="#b7a789" d="M 283.5,127.5 C 288.167,127.5 292.833,127.5 297.5,127.5C 297.5,127.833 297.5,128.167 297.5,128.5C 293.629,128.185 289.962,128.518 286.5,129.5C 285.29,129.068 284.29,128.401 283.5,127.5 Z"/></g>
<g><path style="opacity:1" fill="#c69d55" d="M 39.5,113.5 C 39.8333,113.5 40.1667,113.5 40.5,113.5C 40.1736,122.349 40.507,131.016 41.5,139.5C 41.5,139.833 41.5,140.167 41.5,140.5C 40.8333,140.5 40.1667,140.5 39.5,140.5C 39.5,131.5 39.5,122.5 39.5,113.5 Z"/></g>
<g><path style="opacity:1" fill="#fae88b" d="M 63.5,122.5 C 63.5,127.167 63.5,131.833 63.5,136.5C 62.1103,137.899 61.1103,139.566 60.5,141.5C 59.596,140.791 59.2627,139.791 59.5,138.5C 58.5,138.5 57.5,138.5 56.5,138.5C 56.7678,140.099 56.4345,141.432 55.5,142.5C 56.1637,137.527 56.4971,132.527 56.5,127.5C 58.1667,126.167 59.8333,124.833 61.5,123.5C 62.1667,123.167 62.8333,122.833 63.5,122.5 Z"/></g>
<g><path style="opacity:0.035" fill="#c3c4c4" d="M 98.5,124.5 C 100.257,125.292 101.591,126.625 102.5,128.5C 103.518,127.807 104.518,127.141 105.5,126.5C 105.5,126.833 105.5,127.167 105.5,127.5C 102.955,131.58 100.955,131.247 99.5,126.5C 99.1667,125.833 98.8333,125.167 98.5,124.5 Z"/></g>
<g><path style="opacity:1" fill="#d1bf87" d="M 117.5,127.5 C 116.833,128.833 115.833,129.833 114.5,130.5C 113.081,129.549 111.415,129.216 109.5,129.5C 109.167,129.5 108.833,129.5 108.5,129.5C 110.988,127.612 113.988,126.945 117.5,127.5 Z"/></g>
<g><path style="opacity:1" fill="#ecc96a" d="M 131.5,129.5 C 132.568,128.566 133.901,128.232 135.5,128.5C 136.9,129.1 137.9,130.1 138.5,131.5C 138.5,135.5 138.5,139.5 138.5,143.5C 137.835,141.302 137.168,138.969 136.5,136.5C 134.829,140.364 134.329,144.364 135,148.5C 136.011,149.337 137.178,149.67 138.5,149.5C 138.5,150.167 138.5,150.833 138.5,151.5C 136.833,152.833 135.167,152.833 133.5,151.5C 133.666,144.492 133.5,137.492 133,130.5C 132.617,129.944 132.117,129.611 131.5,129.5 Z"/></g>
<g><path style="opacity:1" fill="#ddca99" d="M 135.5,128.5 C 141.5,128.5 147.5,128.5 153.5,128.5C 154.167,128.833 154.833,129.167 155.5,129.5C 156.301,131.042 156.634,132.708 156.5,134.5C 155.751,133.469 155.085,132.302 154.5,131C 151.304,130.195 148.304,130.362 145.5,131.5C 143.833,131.5 142.167,131.5 140.5,131.5C 139.833,131.5 139.167,131.5 138.5,131.5C 137.9,130.1 136.9,129.1 135.5,128.5 Z"/></g>
<g><path style="opacity:1" fill="#c7ae7f" d="M 269.5,128.5 C 269.833,129.5 270.5,130.167 271.5,130.5C 272.625,131.652 272.625,132.652 271.5,133.5C 270.942,132.21 269.942,131.377 268.5,131C 265.518,130.502 262.518,130.335 259.5,130.5C 257.883,129.028 255.883,128.361 253.5,128.5C 251.955,128.511 250.622,128.844 249.5,129.5C 248.167,129.167 246.833,128.833 245.5,128.5C 252.799,127.191 260.799,127.191 269.5,128.5 Z"/></g>
<g><path style="opacity:0.698" fill="#8b8c8c" d="M 276.5,128.5 C 278.833,128.833 280.167,130.167 280.5,132.5C 278.833,131.5 277.5,130.167 276.5,128.5 Z"/></g>
<g><path style="opacity:1" fill="#e6c590" d="M 286.5,129.5 C 289.962,128.518 293.629,128.185 297.5,128.5C 297.5,133.5 297.5,138.5 297.5,143.5C 296.527,141.052 296.194,138.385 296.5,135.5C 296.5,133.5 296.5,131.5 296.5,129.5C 293.355,129.493 290.689,130.493 288.5,132.5C 288.573,130.973 287.906,129.973 286.5,129.5 Z"/></g>
<g><path style="opacity:1" fill="#f0c353" d="M 70.5,117.5 C 70.8333,117.5 71.1667,117.5 71.5,117.5C 71.5,137.167 71.5,156.833 71.5,176.5C 71.1667,176.5 70.8333,176.5 70.5,176.5C 70.5,175.167 70.5,173.833 70.5,172.5C 70.5,170.833 70.5,169.167 70.5,167.5C 70.5,161.167 70.5,154.833 70.5,148.5C 70.8256,144.116 70.4922,139.783 69.5,135.5C 67.9019,133.027 66.4019,133.027 65,135.5C 64.8195,138.695 64.3195,141.695 63.5,144.5C 63.5,141.833 63.5,139.167 63.5,136.5C 63.5,131.833 63.5,127.167 63.5,122.5C 65.717,123.369 68.0504,123.702 70.5,123.5C 70.5,121.5 70.5,119.5 70.5,117.5 Z"/></g>
<g><path style="opacity:0.716" fill="#e7cea1" d="M 169.5,129.5 C 171.948,128.527 174.615,128.194 177.5,128.5C 176.306,129.272 175.306,130.272 174.5,131.5C 173.833,131.833 173.167,132.167 172.5,132.5C 172.167,131.5 171.5,130.833 170.5,130.5C 170.5,129.833 170.167,129.5 169.5,129.5 Z"/></g>
<g><path style="opacity:1" fill="#802c1b" d="M 28.5,120.5 C 29.3382,120.842 29.6716,121.508 29.5,122.5C 29.5987,125.237 29.2653,127.904 28.5,130.5C 27.089,132.539 25.089,133.539 22.5,133.5C 22.8016,136.059 22.4682,138.393 21.5,140.5C 21.3243,135.12 21.6576,129.787 22.5,124.5C 25.6082,124.625 27.6082,123.292 28.5,120.5 Z"/></g>
<g><path style="opacity:0.098" fill="#bcbdbc" d="M 123.5,129.5 C 122.5,130.167 121.5,130.833 120.5,131.5C 120.668,128.949 121.668,128.282 123.5,129.5 Z"/></g>
<g><path style="opacity:1" fill="#66281c" d="M 197.5,128.5 C 201.288,128.309 204.288,129.642 206.5,132.5C 205.817,134.176 204.483,134.843 202.5,134.5C 202.5,135.5 202.5,136.5 202.5,137.5C 200.583,134.669 198.917,131.669 197.5,128.5 Z"/></g>
<g><path style="opacity:1" fill="#9e582c" d="M 259.5,130.5 C 262.518,130.335 265.518,130.502 268.5,131C 269.942,131.377 270.942,132.21 271.5,133.5C 267.5,133.5 263.5,133.5 259.5,133.5C 258.596,134.209 258.263,135.209 258.5,136.5C 257.603,137.598 256.77,137.598 256,136.5C 255.505,134.527 255.338,132.527 255.5,130.5C 256.833,130.5 258.167,130.5 259.5,130.5 Z"/></g>
<g><path style="opacity:1" fill="#5a2c1e" d="M 128.5,127.5 C 128.5,128.167 128.833,128.5 129.5,128.5C 129.5,132.833 129.5,137.167 129.5,141.5C 129.795,143.735 129.461,145.735 128.5,147.5C 128.666,141.824 128.499,136.157 128,130.5C 124.7,128.443 124.867,127.443 128.5,127.5 Z"/></g>
<g><path style="opacity:1" fill="#63271d" d="M 283.5,127.5 C 284.29,128.401 285.29,129.068 286.5,129.5C 286.818,134.032 286.485,138.366 285.5,142.5C 285.665,139.15 285.498,135.817 285,132.5C 284.617,131.944 284.117,131.611 283.5,131.5C 282.859,130.518 282.193,129.518 281.5,128.5C 281.957,127.702 282.624,127.369 283.5,127.5 Z"/></g>
<g><path style="opacity:1" fill="#8d6928" d="M 108.5,129.5 C 108.833,129.5 109.167,129.5 109.5,129.5C 107.42,131.573 105.754,133.907 104.5,136.5C 103.348,137.625 102.348,137.625 101.5,136.5C 103.473,133.861 105.806,131.527 108.5,129.5 Z"/></g>
<g><path style="opacity:0.52" fill="#97999c" d="M 161.5,124.5 C 168.982,123.508 176.648,123.175 184.5,123.5C 184.724,129.498 184.724,135.498 184.5,141.5C 184.5,148.5 184.5,155.5 184.5,162.5C 183.51,156.355 183.177,150.022 183.5,143.5C 183.5,137.167 183.5,130.833 183.5,124.5C 176.167,124.5 168.833,124.5 161.5,124.5 Z"/></g>
<g><path style="opacity:1" fill="#e2bb59" d="M 211.5,130.5 C 212.737,131.965 213.737,133.632 214.5,135.5C 213.833,137.167 213.167,138.833 212.5,140.5C 210.347,138.206 208.68,135.54 207.5,132.5C 206.652,129.306 207.985,128.639 211.5,130.5 Z"/></g>
<g><path style="opacity:0.992" fill="#231f1b" d="M 269.5,128.5 C 260.799,127.191 252.799,127.191 245.5,128.5C 246.584,134.783 246.751,141.116 246,147.5C 244.624,148.705 243.458,150.038 242.5,151.5C 241.596,152.209 241.263,153.209 241.5,154.5C 242.833,154.5 244.167,154.5 245.5,154.5C 245.5,159.5 245.5,164.5 245.5,169.5C 244.662,169.842 244.328,170.508 244.5,171.5C 244.167,171.5 243.833,171.5 243.5,171.5C 243.5,166.167 243.5,160.833 243.5,155.5C 241.833,155.5 240.167,155.5 238.5,155.5C 238.5,154.5 238.5,153.5 238.5,152.5C 244.2,147.475 246.033,141.142 244,133.5C 243.623,132.058 242.79,131.058 241.5,130.5C 240.5,130.167 239.833,129.5 239.5,128.5C 239.5,127.833 239.167,127.5 238.5,127.5C 241.428,126.18 244.761,125.514 248.5,125.5C 255.191,125.669 261.858,126.169 268.5,127C 269.056,127.383 269.389,127.883 269.5,128.5 Z"/></g>
<g><path style="opacity:1" fill="#643a21" d="M 140.5,132.5 C 140.5,132.167 140.5,131.833 140.5,131.5C 142.167,131.5 143.833,131.5 145.5,131.5C 146.833,131.5 148.167,131.5 149.5,131.5C 149.5,133.833 149.5,136.167 149.5,138.5C 149.167,138.5 148.833,138.5 148.5,138.5C 148.739,136.533 148.406,134.699 147.5,133C 145.19,132.503 142.857,132.337 140.5,132.5 Z"/></g>
<g><path style="opacity:0.129" fill="#c0c2c1" d="M 193.5,131.5 C 193.833,131.5 194.167,131.5 194.5,131.5C 195.441,133.05 196.107,134.716 196.5,136.5C 194.75,135.341 193.75,133.674 193.5,131.5 Z"/></g>
<g><path style="opacity:1" fill="#231d19" d="M 212.5,125.5 C 213.167,126.833 214.167,127.833 215.5,128.5C 215.517,130.028 216.184,130.528 217.5,130C 219.07,128.603 220.404,127.103 221.5,125.5C 225.95,125.421 230.283,126.088 234.5,127.5C 233.754,128.736 233.421,130.07 233.5,131.5C 233.5,132.167 233.167,132.5 232.5,132.5C 231.884,131.798 231.884,130.798 232.5,129.5C 231.486,128.235 229.986,127.569 228,127.5C 226.293,127.508 224.793,127.842 223.5,128.5C 220.833,131.167 218.167,133.833 215.5,136.5C 215.5,135.833 215.167,135.5 214.5,135.5C 213.737,133.632 212.737,131.965 211.5,130.5C 211.586,129.504 211.252,128.671 210.5,128C 205.98,127.186 201.646,127.353 197.5,128.5C 198.917,131.669 200.583,134.669 202.5,137.5C 203.529,139.517 204.529,141.517 205.5,143.5C 207.081,145.142 207.747,147.142 207.5,149.5C 206.599,150.29 205.932,151.29 205.5,152.5C 203.147,154.86 201.147,157.527 199.5,160.5C 197.331,162.34 195.998,164.674 195.5,167.5C 197.5,167.5 199.5,167.5 201.5,167.5C 201.833,167.5 202.167,167.5 202.5,167.5C 202.611,168.117 202.944,168.617 203.5,169C 202.263,169.232 201.263,169.732 200.5,170.5C 195.792,170.22 191.458,169.22 187.5,167.5C 188.167,167.5 188.833,167.5 189.5,167.5C 190.906,167.027 191.573,166.027 191.5,164.5C 192.906,164.027 193.573,163.027 193.5,161.5C 195.9,159.704 197.567,157.37 198.5,154.5C 200.317,152.508 201.984,150.341 203.5,148C 201.524,143.869 199.191,140.036 196.5,136.5C 196.107,134.716 195.441,133.05 194.5,131.5C 193.5,129.833 192.167,128.5 190.5,127.5C 197.702,126.768 205.035,126.101 212.5,125.5 Z"/></g>
<g><path style="opacity:1" fill="#cec193" d="M 223.5,128.5 C 224.793,127.842 226.293,127.508 228,127.5C 229.986,127.569 231.486,128.235 232.5,129.5C 231.5,130.167 230.5,130.833 229.5,131.5C 228.448,129.744 226.781,129.077 224.5,129.5C 224.5,128.833 224.167,128.5 223.5,128.5 Z"/></g>
<g><path style="opacity:1" fill="#cab68b" d="M 197.5,128.5 C 201.646,127.353 205.98,127.186 210.5,128C 211.252,128.671 211.586,129.504 211.5,130.5C 207.985,128.639 206.652,129.306 207.5,132.5C 207.167,132.5 206.833,132.5 206.5,132.5C 204.288,129.642 201.288,128.309 197.5,128.5 Z"/></g>
<g><path style="opacity:0.565" fill="#8a8c8d" d="M 274.5,128.5 C 274.833,128.5 275.167,128.5 275.5,128.5C 276.15,130.435 276.483,132.435 276.5,134.5C 275.599,133.71 274.932,132.71 274.5,131.5C 274.5,130.5 274.5,129.5 274.5,128.5 Z"/></g>
<g><path style="opacity:1" fill="#794027" d="M 245.5,128.5 C 246.833,128.833 248.167,129.167 249.5,129.5C 250.833,130.167 251.833,131.167 252.5,132.5C 252.5,133.5 252.5,134.5 252.5,135.5C 248.5,134.833 246.833,136.5 247.5,140.5C 248.192,144.721 247.192,148.387 244.5,151.5C 245.325,152.386 246.325,152.719 247.5,152.5C 247.5,154.5 247.5,156.5 247.5,158.5C 246.549,157.081 246.216,155.415 246.5,153.5C 244.517,153.843 243.183,153.176 242.5,151.5C 243.458,150.038 244.624,148.705 246,147.5C 246.751,141.116 246.584,134.783 245.5,128.5 Z"/></g>
<g><path style="opacity:0.102" fill="#cdcecd" d="M 119.5,133.5 C 119.155,136.198 117.822,138.198 115.5,139.5C 116.34,137.147 117.674,135.147 119.5,133.5 Z"/></g>
<g><path style="opacity:1" fill="#be782a" d="M 177.5,128.5 C 179.423,132.029 180.089,136.029 179.5,140.5C 177.605,141.973 175.939,143.64 174.5,145.5C 174.5,145.167 174.5,144.833 174.5,144.5C 174.5,140.167 174.5,135.833 174.5,131.5C 175.306,130.272 176.306,129.272 177.5,128.5 Z"/></g>
<g><path style="opacity:1" fill="#7e4425" d="M 223.5,128.5 C 224.167,128.5 224.5,128.833 224.5,129.5C 224.85,132.453 223.85,134.787 221.5,136.5C 219.259,136.954 217.259,136.954 215.5,136.5C 218.167,133.833 220.833,131.167 223.5,128.5 Z"/></g>
<g><path style="opacity:0.047" fill="#cdcdcd" d="M 235.5,130.5 C 234.567,133.37 232.9,135.704 230.5,137.5C 231.167,135.833 231.833,134.167 232.5,132.5C 233.167,132.5 233.5,132.167 233.5,131.5C 234.167,131.167 234.833,130.833 235.5,130.5 Z"/></g>
<g><path style="opacity:0.388" fill="#918e8d" d="M 276.5,134.5 C 277.043,134.56 277.376,134.893 277.5,135.5C 275.5,135.833 273.5,136.167 271.5,136.5C 268.628,136.979 265.961,136.979 263.5,136.5C 262.566,137.568 262.232,138.901 262.5,140.5C 261.549,139.081 261.216,137.415 261.5,135.5C 266.695,135.821 271.695,135.487 276.5,134.5 Z"/></g>
<g><path style="opacity:1" fill="#291f14" d="M 140.5,132.5 C 142.857,132.337 145.19,132.503 147.5,133C 148.406,134.699 148.739,136.533 148.5,138.5C 148.672,139.492 148.338,140.158 147.5,140.5C 146.833,140.5 146.5,140.167 146.5,139.5C 146.5,137.833 146.5,136.167 146.5,134.5C 144.833,134.5 143.167,134.5 141.5,134.5C 141.5,136.5 141.5,138.5 141.5,140.5C 141.167,141.167 140.833,141.833 140.5,142.5C 139.167,139.167 139.167,135.833 140.5,132.5 Z"/></g>
<g><path style="opacity:0.029" fill="#dedede" d="M 146.5,139.5 C 144.883,140.038 143.216,140.371 141.5,140.5C 141.5,138.5 141.5,136.5 141.5,134.5C 143.167,134.5 144.833,134.5 146.5,134.5C 146.5,136.167 146.5,137.833 146.5,139.5 Z"/></g>
<g><path style="opacity:1" fill="#d2a048" d="M 145.5,131.5 C 148.304,130.362 151.304,130.195 154.5,131C 155.085,132.302 155.751,133.469 156.5,134.5C 156.5,135.833 156.5,137.167 156.5,138.5C 155.577,137.697 154.577,137.53 153.5,138C 152.751,139.734 152.251,141.567 152,143.5C 151.329,144.252 150.496,144.586 149.5,144.5C 149.5,142.5 149.5,140.5 149.5,138.5C 149.5,136.167 149.5,133.833 149.5,131.5C 148.167,131.5 146.833,131.5 145.5,131.5 Z"/></g>
<g><path style="opacity:0.99" fill="#231c14" d="M 271.5,130.5 C 272.609,130.557 273.609,130.89 274.5,131.5C 274.932,132.71 275.599,133.71 276.5,134.5C 271.695,135.487 266.695,135.821 261.5,135.5C 261.216,137.415 261.549,139.081 262.5,140.5C 263.568,141.434 264.901,141.768 266.5,141.5C 266.813,145.042 266.479,148.375 265.5,151.5C 265.5,150.833 265.5,150.167 265.5,149.5C 265.808,147.076 265.474,144.743 264.5,142.5C 263.583,143.127 262.583,143.461 261.5,143.5C 259.598,140.663 258.931,137.329 259.5,133.5C 263.5,133.5 267.5,133.5 271.5,133.5C 272.625,132.652 272.625,131.652 271.5,130.5 Z"/></g>
<g><path style="opacity:1" fill="#312f2e" d="M 84.5,124.5 C 86.5,125.167 88.5,125.833 90.5,126.5C 87.8127,126.336 85.146,126.503 82.5,127C 83.056,127.383 83.3893,127.883 83.5,128.5C 88.2034,134.694 91.87,142.027 94.5,150.5C 94.1881,162.58 94.5214,174.58 95.5,186.5C 93.8414,175.705 92.8414,164.705 92.5,153.5C 91.8698,151.25 90.8698,149.25 89.5,147.5C 86.5155,142.202 83.5155,136.868 80.5,131.5C 79.791,130.596 78.791,130.263 77.5,130.5C 77.5,128.5 77.5,126.5 77.5,124.5C 79.8333,124.5 82.1667,124.5 84.5,124.5 Z"/></g>
<g><path style="opacity:1" fill="#532511" d="M 83.5,128.5 C 83.8333,128.5 84.1667,128.5 84.5,128.5C 86.674,128.75 88.3406,129.75 89.5,131.5C 91.4383,135.043 93.1049,138.71 94.5,142.5C 94.4013,145.237 94.7347,147.904 95.5,150.5C 95.1667,150.5 94.8333,150.5 94.5,150.5C 91.87,142.027 88.2034,134.694 83.5,128.5 Z"/></g>
<g><path style="opacity:1" fill="#ebcb64" d="M 109.5,129.5 C 111.415,129.216 113.081,129.549 114.5,130.5C 112.593,133.975 110.426,137.309 108,140.5C 106.872,142.345 106.372,144.345 106.5,146.5C 106.825,154.352 106.492,162.018 105.5,169.5C 105.227,159.304 105.561,149.138 106.5,139C 106.316,137.624 105.649,136.791 104.5,136.5C 105.754,133.907 107.42,131.573 109.5,129.5 Z"/></g>
<g><path style="opacity:1" fill="#93602a" d="M 117.5,127.5 C 118.525,127.897 118.692,128.563 118,129.5C 113.475,134.553 109.975,140.219 107.5,146.5C 107.167,146.5 106.833,146.5 106.5,146.5C 106.372,144.345 106.872,142.345 108,140.5C 110.426,137.309 112.593,133.975 114.5,130.5C 115.833,129.833 116.833,128.833 117.5,127.5 Z"/></g>
<g><path style="opacity:1" fill="#4f3e04" d="M 138.5,131.5 C 139.167,131.5 139.833,131.5 140.5,131.5C 140.5,131.833 140.5,132.167 140.5,132.5C 139.167,135.833 139.167,139.167 140.5,142.5C 140.5,142.833 140.5,143.167 140.5,143.5C 139.833,143.5 139.167,143.5 138.5,143.5C 138.5,139.5 138.5,135.5 138.5,131.5 Z"/></g>
<g><path style="opacity:0.961" fill="#414347" d="M 161.5,124.5 C 168.833,124.5 176.167,124.5 183.5,124.5C 183.5,130.833 183.5,137.167 183.5,143.5C 182.762,138.125 181.762,132.791 180.5,127.5C 175.145,126.769 169.645,126.102 164,125.5C 162.317,126.176 162.15,127.176 163.5,128.5C 163.167,128.5 162.833,128.5 162.5,128.5C 160.481,127.462 160.147,126.128 161.5,124.5 Z"/></g>
<g><path style="opacity:1" fill="#bb632c" d="M 206.5,132.5 C 206.833,132.5 207.167,132.5 207.5,132.5C 208.68,135.54 210.347,138.206 212.5,140.5C 212.5,141.833 212.5,143.167 212.5,144.5C 210.097,144.552 207.764,144.219 205.5,143.5C 204.529,141.517 203.529,139.517 202.5,137.5C 202.5,136.5 202.5,135.5 202.5,134.5C 204.483,134.843 205.817,134.176 206.5,132.5 Z"/></g>
<g><path style="opacity:1" fill="#e1b852" d="M 224.5,129.5 C 226.781,129.077 228.448,129.744 229.5,131.5C 226.526,136.149 223.526,140.816 220.5,145.5C 218.5,145.5 216.5,145.5 214.5,145.5C 216.427,142.233 218.761,139.233 221.5,136.5C 223.85,134.787 224.85,132.453 224.5,129.5 Z"/></g>
<g><path style="opacity:1" fill="#2e2315" d="M 42.5,123.5 C 42.5,128.5 42.5,133.5 42.5,138.5C 45.1667,138.5 47.8333,138.5 50.5,138.5C 52.1624,121.024 53.1624,103.357 53.5,85.5C 53.5,100.167 53.5,114.833 53.5,129.5C 53.5,132.833 53.5,136.167 53.5,139.5C 49.5,139.5 45.5,139.5 41.5,139.5C 41.5,122.833 41.5,106.167 41.5,89.5C 42.5183,98.1298 42.8516,109.463 42.5,123.5 Z"/></g>
<g><path style="opacity:0.835" fill="#373939" d="M 42.5,123.5 C 43.1667,127.833 43.8333,132.167 44.5,136.5C 45.1667,136.5 45.8333,136.5 46.5,136.5C 47.5,136.5 48.5,136.5 49.5,136.5C 49.8333,136.5 50.1667,136.5 50.5,136.5C 50.5,137.167 50.5,137.833 50.5,138.5C 47.8333,138.5 45.1667,138.5 42.5,138.5C 42.5,133.5 42.5,128.5 42.5,123.5 Z"/></g>
<g><path style="opacity:0.021" fill="#efefef" d="M 49.5,99.5 C 49.5,111.833 49.5,124.167 49.5,136.5C 48.5,136.5 47.5,136.5 46.5,136.5C 48.1262,124.238 49.1262,111.904 49.5,99.5 Z"/></g>
<g><path style="opacity:1" fill="#edc240" d="M 99.5,133.5 C 100.401,134.29 101.068,135.29 101.5,136.5C 102.348,137.625 103.348,137.625 104.5,136.5C 105.649,136.791 106.316,137.624 106.5,139C 105.561,149.138 105.227,159.304 105.5,169.5C 105.5,170.167 105.5,170.833 105.5,171.5C 104.85,171.196 104.183,170.863 103.5,170.5C 102.402,167.247 101.736,163.914 101.5,160.5C 102.055,156.294 101.055,152.627 98.5,149.5C 98.5,149.167 98.5,148.833 98.5,148.5C 96.9243,143.512 94.9243,138.679 92.5,134C 94.9206,132.952 97.2539,132.786 99.5,133.5 Z"/></g>
<g><path style="opacity:1" fill="#a05931" d="M 252.5,132.5 C 253.468,134.607 253.802,136.941 253.5,139.5C 251.379,139.325 249.379,139.659 247.5,140.5C 246.833,136.5 248.5,134.833 252.5,135.5C 252.5,134.5 252.5,133.5 252.5,132.5 Z"/></g>
<g><path style="opacity:1" fill="#e1b65e" d="M 249.5,129.5 C 250.622,128.844 251.955,128.511 253.5,128.5C 255.883,128.361 257.883,129.028 259.5,130.5C 258.167,130.5 256.833,130.5 255.5,130.5C 255.338,132.527 255.505,134.527 256,136.5C 256.77,137.598 257.603,137.598 258.5,136.5C 258.5,139.167 258.5,141.833 258.5,144.5C 259.791,144.737 260.791,144.404 261.5,143.5C 262.583,143.461 263.583,143.127 264.5,142.5C 265.474,144.743 265.808,147.076 265.5,149.5C 264.833,149.5 264.5,149.167 264.5,148.5C 264.657,147.127 264.49,145.793 264,144.5C 260.511,145.893 257.011,146.227 253.5,145.5C 253.5,143.5 253.5,141.5 253.5,139.5C 253.802,136.941 253.468,134.607 252.5,132.5C 251.833,131.167 250.833,130.167 249.5,129.5 Z"/></g>
<g><path style="opacity:1" fill="#8d331b" d="M 129.5,128.5 C 130.167,128.833 130.833,129.167 131.5,129.5C 132.36,133.434 132.693,137.434 132.5,141.5C 131.5,141.5 130.5,141.5 129.5,141.5C 129.5,137.167 129.5,132.833 129.5,128.5 Z"/></g>
<g><path style="opacity:1" fill="#2d1a12" d="M 166.5,127.5 C 167.29,128.401 168.29,129.068 169.5,129.5C 170.167,129.5 170.5,129.833 170.5,130.5C 168.826,142.625 168.159,154.958 168.5,167.5C 168.167,167.5 167.833,167.5 167.5,167.5C 167.5,161.167 167.5,154.833 167.5,148.5C 167.666,142.824 167.499,137.157 167,131.5C 165.702,130.054 165.535,128.721 166.5,127.5 Z"/></g>
<g><path style="opacity:0.953" fill="#343025" d="M 232.5,129.5 C 231.884,130.798 231.884,131.798 232.5,132.5C 231.833,134.167 231.167,135.833 230.5,137.5C 227.902,139.845 225.902,142.678 224.5,146C 225.711,148.92 227.044,151.753 228.5,154.5C 228.076,159.996 230.409,163.663 235.5,165.5C 237.042,166.301 238.708,166.634 240.5,166.5C 241.833,168.167 241.833,169.833 240.5,171.5C 239.167,171.5 237.833,171.5 236.5,171.5C 235.737,170.732 234.737,170.232 233.5,170C 233.833,169.667 234.167,169.333 234.5,169C 229.316,168.826 224.316,168.326 219.5,167.5C 222.5,167.5 225.5,167.5 228.5,167.5C 229.873,167.657 231.207,167.49 232.5,167C 230.45,165.035 228.783,162.868 227.5,160.5C 226.008,156.182 224.008,152.182 221.5,148.5C 221.443,147.391 221.11,146.391 220.5,145.5C 223.526,140.816 226.526,136.149 229.5,131.5C 230.5,130.833 231.5,130.167 232.5,129.5 Z"/></g>
<g><path style="opacity:0.047" fill="#c8c9c9" d="M 241.5,130.5 C 242.79,131.058 243.623,132.058 244,133.5C 246.033,141.142 244.2,147.475 238.5,152.5C 238.989,149.533 240.155,146.867 242,144.5C 242.717,139.78 242.55,135.114 241.5,130.5 Z"/></g>
<g><path style="opacity:0.068" fill="#e7e7e7" d="M 280.5,132.5 C 281.338,132.842 281.672,133.508 281.5,134.5C 281.5,146.833 281.5,159.167 281.5,171.5C 280.635,166.006 279.969,160.339 279.5,154.5C 280.35,147.191 280.684,139.858 280.5,132.5 Z"/></g>
<g><path style="opacity:1" fill="#944319" d="M 286.5,129.5 C 287.906,129.973 288.573,130.973 288.5,132.5C 288.666,137.179 288.499,141.845 288,146.5C 287.292,147.381 286.458,148.047 285.5,148.5C 285.5,146.5 285.5,144.5 285.5,142.5C 286.485,138.366 286.818,134.032 286.5,129.5 Z"/></g>
<g><path style="opacity:1" fill="#fdd04d" d="M 70.5,148.5 C 67.8883,149.779 65.5549,151.445 63.5,153.5C 63.5,150.5 63.5,147.5 63.5,144.5C 64.3195,141.695 64.8195,138.695 65,135.5C 66.4019,133.027 67.9019,133.027 69.5,135.5C 70.4922,139.783 70.8256,144.116 70.5,148.5 Z"/></g>
<g><path style="opacity:0.996" fill="#4d4b3b" d="M 146.5,139.5 C 146.5,140.167 146.833,140.5 147.5,140.5C 145.321,141.677 142.987,142.677 140.5,143.5C 140.5,143.167 140.5,142.833 140.5,142.5C 140.833,141.833 141.167,141.167 141.5,140.5C 143.216,140.371 144.883,140.038 146.5,139.5 Z"/></g>
<g><path style="opacity:0.584" fill="#9ea0a1" d="M 162.5,128.5 C 162.833,128.5 163.167,128.5 163.5,128.5C 165.365,134.618 166.032,140.952 165.5,147.5C 165.5,155.5 165.5,163.5 165.5,171.5C 165.5,171.833 165.5,172.167 165.5,172.5C 163.981,166.238 163.314,159.738 163.5,153C 163.587,147.315 163.92,141.648 164.5,136C 164.261,133.365 163.594,130.865 162.5,128.5 Z"/></g>
<g><path style="opacity:1" fill="#af4924" d="M 28.5,130.5 C 28.6653,134.182 28.4986,137.848 28,141.5C 27.0718,144.035 25.2385,145.035 22.5,144.5C 22.5,148.167 22.5,151.833 22.5,155.5C 22.5,155.833 22.5,156.167 22.5,156.5C 22.1667,156.5 21.8333,156.5 21.5,156.5C 21.5,151.167 21.5,145.833 21.5,140.5C 22.4682,138.393 22.8016,136.059 22.5,133.5C 25.089,133.539 27.089,132.539 28.5,130.5 Z"/></g>
<g><path style="opacity:1" fill="#e3c879" d="M 55.5,127.5 C 55.8333,127.5 56.1667,127.5 56.5,127.5C 56.4971,132.527 56.1637,137.527 55.5,142.5C 50.8888,141.515 46.2221,140.848 41.5,140.5C 41.5,140.167 41.5,139.833 41.5,139.5C 45.5,139.5 49.5,139.5 53.5,139.5C 53.5,136.167 53.5,132.833 53.5,129.5C 54.5,129.167 55.1667,128.5 55.5,127.5 Z"/></g>
<g><path style="opacity:0.141" fill="#cbcbcb" d="M 115.5,139.5 C 115.25,141.674 114.25,143.341 112.5,144.5C 112.75,142.326 113.75,140.659 115.5,139.5 Z"/></g>
<g><path style="opacity:1" fill="#7d3d1e" d="M 170.5,130.5 C 171.5,130.833 172.167,131.5 172.5,132.5C 172.5,136.167 172.5,139.833 172.5,143.5C 171.175,142.047 170.342,142.381 170,144.5C 169.503,147.146 169.336,149.813 169.5,152.5C 169.5,157.167 169.5,161.833 169.5,166.5C 169.5,167.167 169.5,167.833 169.5,168.5C 168.833,168.5 168.5,168.167 168.5,167.5C 168.159,154.958 168.826,142.625 170.5,130.5 Z"/></g>
<g><path style="opacity:0.01" fill="#f0f1f2" d="M 184.5,141.5 C 185.226,149.369 185.893,157.369 186.5,165.5C 185.094,165.027 184.427,164.027 184.5,162.5C 184.5,155.5 184.5,148.5 184.5,141.5 Z"/></g>
<g><path style="opacity:1" fill="#84672e" d="M 259.5,133.5 C 258.931,137.329 259.598,140.663 261.5,143.5C 260.791,144.404 259.791,144.737 258.5,144.5C 258.5,141.833 258.5,139.167 258.5,136.5C 258.263,135.209 258.596,134.209 259.5,133.5 Z"/></g>
<g><path style="opacity:1" fill="#d9ae55" d="M 92.5,127.5 C 96.4997,127.459 98.8331,129.459 99.5,133.5C 97.2539,132.786 94.9206,132.952 92.5,134C 94.9243,138.679 96.9243,143.512 98.5,148.5C 97.1667,146.5 95.8333,144.5 94.5,142.5C 93.1049,138.71 91.4383,135.043 89.5,131.5C 90.2112,129.97 91.2112,128.637 92.5,127.5 Z"/></g>
<g><path style="opacity:1" fill="#1c1714" d="M 283.5,124.5 C 288.243,125.108 292.909,126.108 297.5,127.5C 292.833,127.5 288.167,127.5 283.5,127.5C 282.624,127.369 281.957,127.702 281.5,128.5C 282.193,129.518 282.859,130.518 283.5,131.5C 284.128,143.629 284.795,155.629 285.5,167.5C 293.984,168.493 302.651,168.826 311.5,168.5C 310.737,169.268 309.737,169.768 308.5,170C 309.833,170.333 311.167,170.667 312.5,171C 302.506,171.5 292.506,171.666 282.5,171.5C 282.829,158.989 282.495,146.655 281.5,134.5C 281.672,133.508 281.338,132.842 280.5,132.5C 280.167,130.167 278.833,128.833 276.5,128.5C 276.5,127.167 276.5,125.833 276.5,124.5C 278.833,124.5 281.167,124.5 283.5,124.5 Z"/></g>
<g><path style="opacity:1" fill="#eed07a" d="M 148.5,138.5 C 148.833,138.5 149.167,138.5 149.5,138.5C 149.5,140.5 149.5,142.5 149.5,144.5C 146.167,145.5 142.833,146.5 139.5,147.5C 139.567,146.041 139.234,144.708 138.5,143.5C 139.167,143.5 139.833,143.5 140.5,143.5C 142.987,142.677 145.321,141.677 147.5,140.5C 148.338,140.158 148.672,139.492 148.5,138.5 Z"/></g>
<g><path style="opacity:0.631" fill="#a2a3a4" d="M 159.5,130.5 C 160.652,135.985 160.818,141.651 160,147.5C 158.989,148.337 157.822,148.67 156.5,148.5C 158.202,146.2 158.868,143.533 158.5,140.5C 159.479,137.375 159.813,134.042 159.5,130.5 Z"/></g>
<g><path style="opacity:1" fill="#fce34f" d="M 39.5,143.5 C 42.0277,144.166 44.6944,144.832 47.5,145.5C 48.1667,146.833 48.8333,148.167 49.5,149.5C 45.9058,151.001 42.2391,152.001 38.5,152.5C 37.5111,157.975 37.1778,163.642 37.5,169.5C 37.5,172.167 37.5,174.833 37.5,177.5C 37.1667,177.5 36.8333,177.5 36.5,177.5C 36.2783,168.895 34.945,160.562 32.5,152.5C 32.2197,147.369 34.553,144.369 39.5,143.5 Z"/></g>
<g><path style="opacity:1" fill="#fceb6b" d="M 60.5,141.5 C 60.5,146.167 60.5,150.833 60.5,155.5C 59.2058,156.29 58.0391,157.29 57,158.5C 56.8019,156.618 56.3019,154.952 55.5,153.5C 50.0247,152.511 44.358,152.178 38.5,152.5C 42.2391,152.001 45.9058,151.001 49.5,149.5C 48.8333,148.167 48.1667,146.833 47.5,145.5C 44.6944,144.832 42.0277,144.166 39.5,143.5C 39.5,142.833 39.5,142.167 39.5,141.5C 39.5,141.167 39.5,140.833 39.5,140.5C 40.1667,140.5 40.8333,140.5 41.5,140.5C 46.2221,140.848 50.8888,141.515 55.5,142.5C 56.4345,141.432 56.7678,140.099 56.5,138.5C 57.5,138.5 58.5,138.5 59.5,138.5C 59.2627,139.791 59.596,140.791 60.5,141.5 Z"/></g>
<g><path style="opacity:1" fill="#e09e5f" d="M 174.5,131.5 C 174.5,135.833 174.5,140.167 174.5,144.5C 173.833,145.833 173.167,147.167 172.5,148.5C 172.5,146.833 172.5,145.167 172.5,143.5C 172.5,139.833 172.5,136.167 172.5,132.5C 173.167,132.167 173.833,131.833 174.5,131.5 Z"/></g>
<g><path style="opacity:1" fill="#9f5424" d="M 214.5,135.5 C 215.167,135.5 215.5,135.833 215.5,136.5C 217.259,136.954 219.259,136.954 221.5,136.5C 218.761,139.233 216.427,142.233 214.5,145.5C 212.004,146.58 209.67,147.914 207.5,149.5C 207.747,147.142 207.081,145.142 205.5,143.5C 207.764,144.219 210.097,144.552 212.5,144.5C 212.5,143.167 212.5,141.833 212.5,140.5C 213.167,138.833 213.833,137.167 214.5,135.5 Z"/></g>
<g><path style="opacity:0.008" fill="#dededf" d="M 230.5,137.5 C 229.035,140.264 227.702,143.097 226.5,146C 227.367,148.896 228.367,151.729 229.5,154.5C 229.167,154.5 228.833,154.5 228.5,154.5C 227.044,151.753 225.711,148.92 224.5,146C 225.902,142.678 227.902,139.845 230.5,137.5 Z"/></g>
<g><path style="opacity:1" fill="#c16f33" d="M 253.5,139.5 C 253.5,141.5 253.5,143.5 253.5,145.5C 253.5,149.5 253.5,153.5 253.5,157.5C 253.5,158.833 253.5,160.167 253.5,161.5C 251.5,160.833 249.5,160.167 247.5,159.5C 247.5,159.167 247.5,158.833 247.5,158.5C 247.5,156.5 247.5,154.5 247.5,152.5C 246.325,152.719 245.325,152.386 244.5,151.5C 247.192,148.387 248.192,144.721 247.5,140.5C 249.379,139.659 251.379,139.325 253.5,139.5 Z"/></g>
<g><path style="opacity:1" fill="#f2c645" d="M 138.5,143.5 C 139.234,144.708 139.567,146.041 139.5,147.5C 138.662,147.842 138.328,148.508 138.5,149.5C 137.178,149.67 136.011,149.337 135,148.5C 134.329,144.364 134.829,140.364 136.5,136.5C 137.168,138.969 137.835,141.302 138.5,143.5 Z"/></g>
<g><path style="opacity:1" fill="#90582b" d="M 156.5,138.5 C 156.756,140.792 156.423,142.959 155.5,145C 150.202,147.152 144.869,148.985 139.5,150.5C 139.5,154.833 139.5,159.167 139.5,163.5C 138.517,159.702 138.183,155.702 138.5,151.5C 138.5,150.833 138.5,150.167 138.5,149.5C 138.328,148.508 138.662,147.842 139.5,147.5C 142.833,146.5 146.167,145.5 149.5,144.5C 150.496,144.586 151.329,144.252 152,143.5C 152.251,141.567 152.751,139.734 153.5,138C 154.577,137.53 155.577,137.697 156.5,138.5 Z"/></g>
<g><path style="opacity:1" fill="#edbf4c" d="M 264.5,148.5 C 262.833,148.5 261.167,148.5 259.5,148.5C 259.5,149.5 259.5,150.5 259.5,151.5C 256.824,152.961 255.324,155.294 255,158.5C 254.617,157.944 254.117,157.611 253.5,157.5C 253.5,153.5 253.5,149.5 253.5,145.5C 257.011,146.227 260.511,145.893 264,144.5C 264.49,145.793 264.657,147.127 264.5,148.5 Z"/></g>
<g><path style="opacity:1" fill="#696141" d="M 297.5,127.5 C 298.488,132.64 298.821,137.974 298.5,143.5C 298.5,149.167 298.5,154.833 298.5,160.5C 301.5,160.5 304.5,160.5 307.5,160.5C 304.375,161.479 301.042,161.813 297.5,161.5C 297.5,155.5 297.5,149.5 297.5,143.5C 297.5,138.5 297.5,133.5 297.5,128.5C 297.5,128.167 297.5,127.833 297.5,127.5 Z"/></g>
<g><path style="opacity:1" fill="#c05d25" d="M 29.5,122.5 C 29.7405,131.642 29.7405,140.975 29.5,150.5C 28.8333,150.5 28.5,150.833 28.5,151.5C 26.2459,152.415 24.2459,153.748 22.5,155.5C 22.5,151.833 22.5,148.167 22.5,144.5C 25.2385,145.035 27.0718,144.035 28,141.5C 28.4986,137.848 28.6653,134.182 28.5,130.5C 29.2653,127.904 29.5987,125.237 29.5,122.5 Z"/></g>
<g><path style="opacity:1" fill="#f1d668" d="M 63.5,136.5 C 63.5,139.167 63.5,141.833 63.5,144.5C 63.5,147.5 63.5,150.5 63.5,153.5C 62.8333,154.167 62.1667,154.833 61.5,155.5C 61.1667,155.5 60.8333,155.5 60.5,155.5C 60.5,150.833 60.5,146.167 60.5,141.5C 61.1103,139.566 62.1103,137.899 63.5,136.5 Z"/></g>
<g><path style="opacity:0.996" fill="#423631" d="M 155.5,129.5 C 156.75,129.577 157.583,130.244 158,131.5C 158.498,134.482 158.665,137.482 158.5,140.5C 158.868,143.533 158.202,146.2 156.5,148.5C 152.784,150.405 148.784,151.739 144.5,152.5C 144.167,152.5 143.833,152.5 143.5,152.5C 142.817,150.824 141.483,150.157 139.5,150.5C 144.869,148.985 150.202,147.152 155.5,145C 156.423,142.959 156.756,140.792 156.5,138.5C 156.5,137.167 156.5,135.833 156.5,134.5C 156.634,132.708 156.301,131.042 155.5,129.5 Z"/></g>
<g><path style="opacity:1" fill="#b6612a" d="M 172.5,143.5 C 172.5,145.167 172.5,146.833 172.5,148.5C 172.5,149.167 172.5,149.833 172.5,150.5C 171.5,151.167 170.5,151.833 169.5,152.5C 169.336,149.813 169.503,147.146 170,144.5C 170.342,142.381 171.175,142.047 172.5,143.5 Z"/></g>
<g><path style="opacity:0.533" fill="#87898a" d="M 16.5,116.5 C 17.4896,122.31 17.8229,128.31 17.5,134.5C 17.5,142.833 17.5,151.167 17.5,159.5C 17.1667,159.5 16.8333,159.5 16.5,159.5C 16.4021,152.274 16.4021,144.941 16.5,137.5C 16.5,130.5 16.5,123.5 16.5,116.5 Z"/></g>
<g><path style="opacity:1" fill="#fcc23c" d="M 70.5,148.5 C 70.5,154.833 70.5,161.167 70.5,167.5C 68.0744,165.62 65.4077,164.287 62.5,163.5C 62.8064,160.615 62.4731,157.948 61.5,155.5C 62.1667,154.833 62.8333,154.167 63.5,153.5C 65.5549,151.445 67.8883,149.779 70.5,148.5 Z"/></g>
<g><path style="opacity:1" fill="#312d22" d="M 71.5,117.5 C 71.8333,117.5 72.1667,117.5 72.5,117.5C 72.5,123.833 72.5,130.167 72.5,136.5C 74.1035,144.27 75.1035,159.936 75.5,183.5C 76.8333,183.833 78.1667,184.167 79.5,184.5C 78.8166,186.176 77.4832,186.843 75.5,186.5C 74.5222,190.623 72.8555,194.457 70.5,198C 71.0556,199.011 71.7222,199.844 72.5,200.5C 69.8333,203.5 67.1667,206.5 64.5,209.5C 64.5,210.167 64.1667,210.5 63.5,210.5C 62.391,210.557 61.391,210.89 60.5,211.5C 59.1667,211.5 57.8333,211.5 56.5,211.5C 62.2121,208.121 66.5455,203.454 69.5,197.5C 69.8333,196.167 70.1667,194.833 70.5,193.5C 72.002,191.825 73.3353,189.992 74.5,188C 73.9056,187.536 73.2389,187.369 72.5,187.5C 71.5773,183.936 71.244,180.269 71.5,176.5C 71.5,156.833 71.5,137.167 71.5,117.5 Z"/></g>
<g><path style="opacity:0.211" fill="#c3c5c7" d="M 78.5,106.5 C 78.1691,109.825 77.8357,113.159 77.5,116.5C 77.288,119.011 77.9546,121.178 79.5,123C 86.0133,123.172 92.3466,123.672 98.5,124.5C 93.8333,124.5 89.1667,124.5 84.5,124.5C 82.1667,124.5 79.8333,124.5 77.5,124.5C 77.5,126.5 77.5,128.5 77.5,130.5C 78.791,130.263 79.791,130.596 80.5,131.5C 79.5,131.5 78.5,131.5 77.5,131.5C 76.2092,148.478 76.2092,165.478 77.5,182.5C 83.1313,184.865 83.4646,188.198 78.5,192.5C 79.1557,190.516 79.8224,188.516 80.5,186.5C 80.4573,185.584 80.1239,184.917 79.5,184.5C 78.1667,184.167 76.8333,183.833 75.5,183.5C 75.5,166.833 75.5,150.167 75.5,133.5C 75.0474,124.193 76.0474,115.193 78.5,106.5 Z"/></g>
<g><path style="opacity:1" fill="#c08d45" d="M 264.5,148.5 C 264.5,149.167 264.833,149.5 265.5,149.5C 265.5,150.167 265.5,150.833 265.5,151.5C 264.072,150.76 262.405,150.76 260.5,151.5C 260.167,151.5 259.833,151.5 259.5,151.5C 259.5,150.5 259.5,149.5 259.5,148.5C 261.167,148.5 262.833,148.5 264.5,148.5 Z"/></g>
<g><path style="opacity:0.014" fill="#f0f0f1" d="M 112.5,144.5 C 111.96,148.642 111.294,152.642 110.5,156.5C 110.5,153.5 110.5,150.5 110.5,147.5C 110.427,145.973 111.094,144.973 112.5,144.5 Z"/></g>
<g><path style="opacity:1" fill="#b76128" d="M 131.5,129.5 C 132.117,129.611 132.617,129.944 133,130.5C 133.5,137.492 133.666,144.492 133.5,151.5C 133.5,152.5 133.5,153.5 133.5,154.5C 131.806,155.527 130.473,156.861 129.5,158.5C 129.5,156.5 129.5,154.5 129.5,152.5C 128.5,152.5 127.5,152.5 126.5,152.5C 126.5,151.5 126.5,150.5 126.5,149.5C 127.5,149.167 128.167,148.5 128.5,147.5C 129.461,145.735 129.795,143.735 129.5,141.5C 130.5,141.5 131.5,141.5 132.5,141.5C 132.693,137.434 132.36,133.434 131.5,129.5 Z"/></g>
<g><path style="opacity:0.18" fill="#cdcdcd" d="M 196.5,136.5 C 199.191,140.036 201.524,143.869 203.5,148C 201.984,150.341 200.317,152.508 198.5,154.5C 199.094,152.145 200.094,149.978 201.5,148C 199.66,144.162 197.994,140.329 196.5,136.5 Z"/></g>
<g><path style="opacity:1" fill="#292b2d" d="M 17.5,134.5 C 18.1667,135.167 18.8333,135.833 19.5,136.5C 19.6666,151.17 19.4999,165.837 19,180.5C 18.8255,185.351 18.3255,190.018 17.5,194.5C 17.5,182.833 17.5,171.167 17.5,159.5C 17.5,151.167 17.5,142.833 17.5,134.5 Z"/></g>
<g><path style="opacity:1" fill="#7c4916" d="M 94.5,142.5 C 95.8333,144.5 97.1667,146.5 98.5,148.5C 98.5,148.833 98.5,149.167 98.5,149.5C 98.81,152.713 98.4767,155.713 97.5,158.5C 96.5073,166.65 96.1739,174.983 96.5,183.5C 95.5054,172.679 95.1721,161.679 95.5,150.5C 94.7347,147.904 94.4013,145.237 94.5,142.5 Z"/></g>
<g><path style="opacity:0.02" fill="#e2e3e4" d="M 124.5,130.5 C 124.833,130.5 125.167,130.5 125.5,130.5C 125.666,135.844 125.499,141.177 125,146.5C 123.223,149.059 121.723,151.726 120.5,154.5C 120.167,154.5 119.833,154.5 119.5,154.5C 119.83,150.979 121.33,147.979 124,145.5C 124.499,140.511 124.666,135.511 124.5,130.5 Z"/></g>
<g><path style="opacity:1" fill="#764629" d="M 126.5,149.5 C 126.5,150.5 126.5,151.5 126.5,152.5C 127.5,152.5 128.5,152.5 129.5,152.5C 129.5,154.5 129.5,156.5 129.5,158.5C 129.5,161.5 129.5,164.5 129.5,167.5C 129.5,167.833 129.5,168.167 129.5,168.5C 128.513,163.695 128.179,158.695 128.5,153.5C 126.517,153.843 125.183,153.176 124.5,151.5C 125.167,150.833 125.833,150.167 126.5,149.5 Z"/></g>
<g><path style="opacity:1" fill="#cd8034" d="M 214.5,145.5 C 216.5,145.5 218.5,145.5 220.5,145.5C 221.11,146.391 221.443,147.391 221.5,148.5C 220.027,147.929 218.36,147.929 216.5,148.5C 216.629,150.216 216.962,151.883 217.5,153.5C 216.395,154.6 215.062,155.267 213.5,155.5C 213.664,152.813 213.497,150.146 213,147.5C 209.752,150.357 207.252,153.69 205.5,157.5C 205.167,157.5 204.833,157.5 204.5,157.5C 204.629,155.784 204.962,154.117 205.5,152.5C 205.932,151.29 206.599,150.29 207.5,149.5C 209.67,147.914 212.004,146.58 214.5,145.5 Z"/></g>
<g><path style="opacity:0.314" fill="#bcbdbe" d="M 263.5,136.5 C 264.918,138.308 266.918,138.975 269.5,138.5C 269.5,144.5 269.5,150.5 269.5,156.5C 268.167,156.833 268.167,157.167 269.5,157.5C 267.393,158.468 265.059,158.802 262.5,158.5C 262.34,156.801 262.506,155.134 263,153.5C 264.444,155.155 266.278,155.822 268.5,155.5C 268.5,150.167 268.5,144.833 268.5,139.5C 266.435,139.517 264.435,139.85 262.5,140.5C 262.232,138.901 262.566,137.568 263.5,136.5 Z"/></g>
<g><path style="opacity:0.932" fill="#333636" d="M 75.5,133.5 C 75.5,150.167 75.5,166.833 75.5,183.5C 75.1035,159.936 74.1035,144.27 72.5,136.5C 73.7281,135.694 74.7281,134.694 75.5,133.5 Z"/></g>
<g><path style="opacity:1" fill="#f0d65b" d="M 179.5,140.5 C 179.5,145.833 179.5,151.167 179.5,156.5C 177.621,157.341 175.621,157.675 173.5,157.5C 173.505,153.466 173.838,149.466 174.5,145.5C 175.939,143.64 177.605,141.973 179.5,140.5 Z"/></g>
<g><path style="opacity:1" fill="#e1b44e" d="M 221.5,148.5 C 224.008,152.182 226.008,156.182 227.5,160.5C 225.901,161.562 224.234,161.562 222.5,160.5C 221.079,157.991 219.412,155.657 217.5,153.5C 216.962,151.883 216.629,150.216 216.5,148.5C 218.36,147.929 220.027,147.929 221.5,148.5 Z"/></g>
<g><path style="opacity:1" fill="#402b12" d="M 283.5,131.5 C 284.117,131.611 284.617,131.944 285,132.5C 285.498,135.817 285.665,139.15 285.5,142.5C 285.5,144.5 285.5,146.5 285.5,148.5C 285.5,154.833 285.5,161.167 285.5,167.5C 284.795,155.629 284.128,143.629 283.5,131.5 Z"/></g>
<g><path style="opacity:1" fill="#dfa049" d="M 296.5,135.5 C 294.197,137.978 292.031,140.645 290,143.5C 289.883,149.419 288.716,155.086 286.5,160.5C 286.667,162.167 286.833,163.833 287,165.5C 287.308,164.692 287.808,164.025 288.5,163.5C 289.288,164.77 290.288,165.77 291.5,166.5C 289.735,167.461 287.735,167.795 285.5,167.5C 285.5,161.167 285.5,154.833 285.5,148.5C 286.458,148.047 287.292,147.381 288,146.5C 288.499,141.845 288.666,137.179 288.5,132.5C 290.689,130.493 293.355,129.493 296.5,129.5C 296.5,131.5 296.5,133.5 296.5,135.5 Z"/></g>
<g><path style="opacity:1" fill="#d87a2f" d="M 28.5,151.5 C 28.831,159.528 28.4977,167.528 27.5,175.5C 26.3247,176.855 25.3247,176.688 24.5,175C 24.8333,174.667 25.1667,174.333 25.5,174C 23.9963,172.509 23.1629,170.676 23,168.5C 22.5012,164.514 22.3345,160.514 22.5,156.5C 22.5,156.167 22.5,155.833 22.5,155.5C 24.2459,153.748 26.2459,152.415 28.5,151.5 Z"/></g>
<g><path style="opacity:0.31" fill="#bbbcbf" d="M 143.5,152.5 C 143.833,152.5 144.167,152.5 144.5,152.5C 144.208,157.042 144.208,161.709 144.5,166.5C 143.833,166.167 143.167,165.833 142.5,165.5C 142.182,160.968 142.515,156.634 143.5,152.5 Z"/></g>
<g><path style="opacity:1" fill="#99663a" d="M 205.5,152.5 C 204.962,154.117 204.629,155.784 204.5,157.5C 203.542,158.962 202.376,160.295 201,161.5C 200.51,162.793 200.343,164.127 200.5,165.5C 199.549,164.081 199.216,162.415 199.5,160.5C 201.147,157.527 203.147,154.86 205.5,152.5 Z"/></g>
<g><path style="opacity:0.022" fill="#e5e6e6" d="M 119.5,156.5 C 121.5,156.5 123.5,156.5 125.5,156.5C 125.5,161.833 125.5,167.167 125.5,172.5C 124.674,168.018 124.174,163.351 124,158.5C 122.378,157.901 120.878,157.234 119.5,156.5 Z"/></g>
<g><path style="opacity:0.29" fill="#c0c0c0" d="M 198.5,154.5 C 197.567,157.37 195.9,159.704 193.5,161.5C 194.433,158.63 196.1,156.296 198.5,154.5 Z"/></g>
<g><path style="opacity:1" fill="#aa5b2a" d="M 217.5,153.5 C 219.412,155.657 221.079,157.991 222.5,160.5C 223.075,162.411 224.075,164.078 225.5,165.5C 222.763,165.599 220.096,165.265 217.5,164.5C 216.643,161.08 214.643,158.746 211.5,157.5C 211.833,156.5 212.5,155.833 213.5,155.5C 215.062,155.267 216.395,154.6 217.5,153.5 Z"/></g>
<g><path style="opacity:1" fill="#f1cf62" d="M 296.5,135.5 C 296.194,138.385 296.527,141.052 297.5,143.5C 297.5,149.5 297.5,155.5 297.5,161.5C 300.885,163.245 304.552,163.745 308.5,163C 309.066,162.005 309.733,161.172 310.5,160.5C 310.5,162.5 310.5,164.5 310.5,166.5C 304.167,166.5 297.833,166.5 291.5,166.5C 290.288,165.77 289.288,164.77 288.5,163.5C 287.808,164.025 287.308,164.692 287,165.5C 286.833,163.833 286.667,162.167 286.5,160.5C 288.716,155.086 289.883,149.419 290,143.5C 292.031,140.645 294.197,137.978 296.5,135.5 Z"/></g>
<g><path style="opacity:1" fill="#b3711e" d="M 98.5,149.5 C 101.055,152.627 102.055,156.294 101.5,160.5C 100.167,159.167 98.8333,159.167 97.5,160.5C 97.5,159.833 97.5,159.167 97.5,158.5C 98.4767,155.713 98.81,152.713 98.5,149.5 Z"/></g>
<g><path style="opacity:1" fill="#55595c" d="M 228.5,154.5 C 228.833,154.5 229.167,154.5 229.5,154.5C 230.674,155.514 231.34,156.847 231.5,158.5C 231.427,160.027 232.094,161.027 233.5,161.5C 234.401,162.29 235.068,163.29 235.5,164.5C 235.5,164.833 235.5,165.167 235.5,165.5C 230.409,163.663 228.076,159.996 228.5,154.5 Z"/></g>
<g><path style="opacity:1" fill="#292922" d="M 298.5,143.5 C 299.488,148.64 299.821,153.974 299.5,159.5C 302.228,159.829 304.562,159.163 306.5,157.5C 307.167,157.5 307.5,157.167 307.5,156.5C 309.384,156.288 310.717,155.288 311.5,153.5C 312.812,158.318 312.812,162.985 311.5,167.5C 311.82,164.102 311.487,160.768 310.5,157.5C 309.893,157.624 309.56,157.957 309.5,158.5C 309.167,159.5 308.5,160.167 307.5,160.5C 304.5,160.5 301.5,160.5 298.5,160.5C 298.5,154.833 298.5,149.167 298.5,143.5 Z"/></g>
<g><path style="opacity:1" fill="#2c2605" d="M 106.5,146.5 C 106.833,146.5 107.167,146.5 107.5,146.5C 107.5,153.833 107.5,161.167 107.5,168.5C 107.204,170.403 106.537,172.07 105.5,173.5C 105.5,172.833 105.5,172.167 105.5,171.5C 105.5,170.833 105.5,170.167 105.5,169.5C 106.492,162.018 106.825,154.352 106.5,146.5 Z"/></g>
<g><path style="opacity:1" fill="#343538" d="M 165.5,147.5 C 166.167,147.833 166.833,148.167 167.5,148.5C 167.5,154.833 167.5,161.167 167.5,167.5C 167.167,168.833 166.833,170.167 166.5,171.5C 166.167,171.5 165.833,171.5 165.5,171.5C 165.5,163.5 165.5,155.5 165.5,147.5 Z"/></g>
<g><path style="opacity:0.035" fill="#eaeaeb" d="M 237.5,154.5 C 238.552,156.256 240.219,156.923 242.5,156.5C 242.5,157.5 242.5,158.5 242.5,159.5C 240.703,158.27 238.703,157.604 236.5,157.5C 236.263,156.209 236.596,155.209 237.5,154.5 Z"/></g>
<g><path style="opacity:1" fill="#edbd59" d="M 38.5,152.5 C 44.358,152.178 50.0247,152.511 55.5,153.5C 55.1667,153.5 54.8333,153.5 54.5,153.5C 53.1667,153.5 51.8333,153.5 50.5,153.5C 47.8333,153.5 45.1667,153.5 42.5,153.5C 40.901,153.232 39.5676,153.566 38.5,154.5C 38.5,159.167 38.5,163.833 38.5,168.5C 38.5,169.167 38.1667,169.5 37.5,169.5C 37.1778,163.642 37.5111,157.975 38.5,152.5 Z"/></g>
<g><path style="opacity:1" fill="#e5ba50" d="M 213.5,155.5 C 212.5,155.833 211.833,156.5 211.5,157.5C 210.299,159.909 208.633,161.909 206.5,163.5C 205.414,163.38 204.747,162.713 204.5,161.5C 204.846,160.151 205.179,158.817 205.5,157.5C 207.252,153.69 209.752,150.357 213,147.5C 213.497,150.146 213.664,152.813 213.5,155.5 Z"/></g>
<g><path style="opacity:0.983" fill="#2b2a25" d="M 269.5,157.5 C 271.062,157.267 272.395,156.6 273.5,155.5C 273.5,156.5 273.5,157.5 273.5,158.5C 272.5,159.167 271.5,159.833 270.5,160.5C 267.167,160.5 263.833,160.5 260.5,160.5C 260.5,157.5 260.5,154.5 260.5,151.5C 262.405,150.76 264.072,150.76 265.5,151.5C 266.479,148.375 266.813,145.042 266.5,141.5C 264.901,141.768 263.568,141.434 262.5,140.5C 264.435,139.85 266.435,139.517 268.5,139.5C 268.5,144.833 268.5,150.167 268.5,155.5C 266.278,155.822 264.444,155.155 263,153.5C 262.506,155.134 262.34,156.801 262.5,158.5C 265.059,158.802 267.393,158.468 269.5,157.5 Z"/></g>
<g><path style="opacity:0.043" fill="#e1e3e4" d="M 276.5,172.5 C 276.823,165.978 276.49,159.645 275.5,153.5C 274.5,153.833 273.833,154.5 273.5,155.5C 272.395,156.6 271.062,157.267 269.5,157.5C 269.5,157.167 269.5,156.833 269.5,156.5C 270.962,155.542 272.295,154.376 273.5,153C 274.793,152.51 276.127,152.343 277.5,152.5C 278.273,159.22 277.94,165.887 276.5,172.5 Z"/></g>
<g><path style="opacity:1" fill="#e3a848" d="M 25.5,113.5 C 26.609,113.557 27.609,113.89 28.5,114.5C 30.083,118.339 31.083,122.339 31.5,126.5C 30.5957,139.816 30.2624,153.15 30.5,166.5C 29.5119,161.36 29.1786,156.026 29.5,150.5C 29.7405,140.975 29.7405,131.642 29.5,122.5C 29.6716,121.508 29.3382,120.842 28.5,120.5C 27.7729,118.046 26.7729,115.713 25.5,113.5 Z"/></g>
<g><path style="opacity:1" fill="#d59c4b" d="M 172.5,150.5 C 172.666,155.179 172.499,159.845 172,164.5C 171.722,165.416 171.222,166.082 170.5,166.5C 170.167,166.5 169.833,166.5 169.5,166.5C 169.5,161.833 169.5,157.167 169.5,152.5C 170.5,151.833 171.5,151.167 172.5,150.5 Z"/></g>
<g><path style="opacity:1" fill="#201a15" d="M 211.5,157.5 C 214.643,158.746 216.643,161.08 217.5,164.5C 218.167,165.5 218.833,166.5 219.5,167.5C 224.316,168.326 229.316,168.826 234.5,169C 234.167,169.333 233.833,169.667 233.5,170C 234.737,170.232 235.737,170.732 236.5,171.5C 230.167,171.5 223.833,171.5 217.5,171.5C 217.25,169.326 216.25,167.659 214.5,166.5C 214.443,165.391 214.11,164.391 213.5,163.5C 212.399,162.402 211.066,162.235 209.5,163C 208.627,164.045 207.627,164.878 206.5,165.5C 206.5,164.833 206.5,164.167 206.5,163.5C 208.633,161.909 210.299,159.909 211.5,157.5 Z"/></g>
<g><path style="opacity:0.18" fill="#cacdd0" d="M 231.5,158.5 C 232.906,158.973 233.573,159.973 233.5,161.5C 232.094,161.027 231.427,160.027 231.5,158.5 Z"/></g>
<g><path style="opacity:0.927" fill="#5c5337" d="M 259.5,151.5 C 259.833,151.5 260.167,151.5 260.5,151.5C 260.5,154.5 260.5,157.5 260.5,160.5C 263.833,160.5 267.167,160.5 270.5,160.5C 267.038,161.482 263.371,161.815 259.5,161.5C 259.5,158.167 259.5,154.833 259.5,151.5 Z"/></g>
<g><path style="opacity:1" fill="#e1b154" d="M 259.5,151.5 C 259.5,154.833 259.5,158.167 259.5,161.5C 259.557,162.609 259.89,163.609 260.5,164.5C 258.952,164.821 258.285,165.821 258.5,167.5C 256.265,167.795 254.265,167.461 252.5,166.5C 253.301,164.958 253.634,163.292 253.5,161.5C 253.5,160.167 253.5,158.833 253.5,157.5C 254.117,157.611 254.617,157.944 255,158.5C 255.324,155.294 256.824,152.961 259.5,151.5 Z"/></g>
<g><path style="opacity:0.221" fill="#f3e1ae" d="M 273.5,158.5 C 273.5,159.167 273.5,159.833 273.5,160.5C 270.016,164.132 265.683,165.465 260.5,164.5C 259.89,163.609 259.557,162.609 259.5,161.5C 263.371,161.815 267.038,161.482 270.5,160.5C 271.5,159.833 272.5,159.167 273.5,158.5 Z"/></g>
<g><path style="opacity:1" fill="#b78647" d="M 38.5,154.5 C 39.9063,154.973 40.573,155.973 40.5,157.5C 40.5,161.167 40.5,164.833 40.5,168.5C 40.1667,168.5 39.8333,168.5 39.5,168.5C 39.1667,168.5 38.8333,168.5 38.5,168.5C 38.5,163.833 38.5,159.167 38.5,154.5 Z"/></g>
<g><path style="opacity:1" fill="#e8d591" d="M 179.5,156.5 C 179.198,159.059 179.532,161.393 180.5,163.5C 181.11,164.391 181.443,165.391 181.5,166.5C 180.081,167.451 178.415,167.784 176.5,167.5C 176.611,166.883 176.944,166.383 177.5,166C 176.234,165.691 175.067,165.191 174,164.5C 173.503,162.19 173.337,159.857 173.5,157.5C 175.621,157.675 177.621,157.341 179.5,156.5 Z"/></g>
<g><path style="opacity:0.278" fill="#b3b4b4" d="M 193.5,161.5 C 193.573,163.027 192.906,164.027 191.5,164.5C 191.427,162.973 192.094,161.973 193.5,161.5 Z"/></g>
<g><path style="opacity:1" fill="#e5c676" d="M 204.5,157.5 C 204.833,157.5 205.167,157.5 205.5,157.5C 205.179,158.817 204.846,160.151 204.5,161.5C 204.747,162.713 205.414,163.38 206.5,163.5C 206.5,164.167 206.5,164.833 206.5,165.5C 205.395,166.6 204.062,167.267 202.5,167.5C 202.167,167.5 201.833,167.5 201.5,167.5C 201.167,166.833 200.833,166.167 200.5,165.5C 200.343,164.127 200.51,162.793 201,161.5C 202.376,160.295 203.542,158.962 204.5,157.5 Z"/></g>
<g><path style="opacity:1" fill="#752e1c" d="M 247.5,159.5 C 249.5,160.167 251.5,160.833 253.5,161.5C 253.634,163.292 253.301,164.958 252.5,166.5C 251.292,167.234 249.959,167.567 248.5,167.5C 247.527,165.052 247.194,162.385 247.5,159.5 Z"/></g>
<g><path style="opacity:1" fill="#dbc38b" d="M 222.5,160.5 C 224.234,161.562 225.901,161.562 227.5,160.5C 228.783,162.868 230.45,165.035 232.5,167C 231.207,167.49 229.873,167.657 228.5,167.5C 227.71,166.599 226.71,165.932 225.5,165.5C 224.075,164.078 223.075,162.411 222.5,160.5 Z"/></g>
<g><path style="opacity:0.306" fill="#9b9b9d" d="M 238.5,152.5 C 238.5,153.5 238.5,154.5 238.5,155.5C 240.167,155.5 241.833,155.5 243.5,155.5C 243.5,160.833 243.5,166.167 243.5,171.5C 243.5,171.833 243.5,172.167 243.5,172.5C 242.515,168.366 242.182,164.032 242.5,159.5C 242.5,158.5 242.5,157.5 242.5,156.5C 240.219,156.923 238.552,156.256 237.5,154.5C 237.328,153.508 237.662,152.842 238.5,152.5 Z"/></g>
<g><path style="opacity:1" fill="#271b13" d="M 40.5,157.5 C 44.5,157.5 48.5,157.5 52.5,157.5C 53.3021,164.804 53.6354,172.138 53.5,179.5C 53.1681,189.855 53.5014,200.188 54.5,210.5C 60.4566,207.206 65.4566,202.873 69.5,197.5C 66.5455,203.454 62.2121,208.121 56.5,211.5C 55.8333,211.5 55.5,211.833 55.5,212.5C 54.2921,213.234 52.9587,213.567 51.5,213.5C 51.8302,194.992 51.4968,176.659 50.5,158.5C 47.9407,158.198 45.6074,158.532 43.5,159.5C 42.5119,164.64 42.1786,169.974 42.5,175.5C 41.8333,194.833 41.1667,214.167 40.5,233.5C 40.5,220.833 40.5,208.167 40.5,195.5C 40.5,186.5 40.5,177.5 40.5,168.5C 40.5,164.833 40.5,161.167 40.5,157.5 Z"/></g>
<g><path style="opacity:0.031" fill="#e0e0e2" d="M 213.5,163.5 C 214.11,164.391 214.443,165.391 214.5,166.5C 212.602,165.266 210.935,165.599 209.5,167.5C 209.833,165.167 211.167,163.833 213.5,163.5 Z"/></g>
<g><path style="opacity:0.169" fill="#d1d3d6" d="M 235.5,165.5 C 235.5,165.167 235.5,164.833 235.5,164.5C 237.403,164.796 239.07,165.463 240.5,166.5C 238.708,166.634 237.042,166.301 235.5,165.5 Z"/></g>
<g><path style="opacity:1" fill="#a16225" d="M 273.5,160.5 C 273.5,161.167 273.5,161.833 273.5,162.5C 272.897,164.19 271.897,165.69 270.5,167C 266.514,167.499 262.514,167.666 258.5,167.5C 258.285,165.821 258.952,164.821 260.5,164.5C 265.683,165.465 270.016,164.132 273.5,160.5 Z"/></g>
<g><path style="opacity:1" fill="#f5d177" d="M 174.5,144.5 C 174.5,144.833 174.5,145.167 174.5,145.5C 173.838,149.466 173.505,153.466 173.5,157.5C 173.337,159.857 173.503,162.19 174,164.5C 175.067,165.191 176.234,165.691 177.5,166C 176.944,166.383 176.611,166.883 176.5,167.5C 174.265,167.795 172.265,167.461 170.5,166.5C 171.222,166.082 171.722,165.416 172,164.5C 172.499,159.845 172.666,155.179 172.5,150.5C 172.5,149.833 172.5,149.167 172.5,148.5C 173.167,147.167 173.833,145.833 174.5,144.5 Z"/></g>
<g><path style="opacity:0.357" fill="#a3a4a3" d="M 191.5,164.5 C 191.573,166.027 190.906,167.027 189.5,167.5C 189.427,165.973 190.094,164.973 191.5,164.5 Z"/></g>
<g><path style="opacity:1" fill="#57261e" d="M 199.5,160.5 C 199.216,162.415 199.549,164.081 200.5,165.5C 200.833,166.167 201.167,166.833 201.5,167.5C 199.5,167.5 197.5,167.5 195.5,167.5C 195.998,164.674 197.331,162.34 199.5,160.5 Z"/></g>
<g><path style="opacity:1" fill="#703321" d="M 217.5,164.5 C 220.096,165.265 222.763,165.599 225.5,165.5C 226.71,165.932 227.71,166.599 228.5,167.5C 225.5,167.5 222.5,167.5 219.5,167.5C 218.833,166.5 218.167,165.5 217.5,164.5 Z"/></g>
<g><path style="opacity:1" fill="#a49968" d="M 169.5,166.5 C 169.833,166.5 170.167,166.5 170.5,166.5C 172.265,167.461 174.265,167.795 176.5,167.5C 178.415,167.784 180.081,167.451 181.5,166.5C 182.289,166.783 182.956,167.283 183.5,168C 178.845,168.499 174.179,168.666 169.5,168.5C 169.5,167.833 169.5,167.167 169.5,166.5 Z"/></g>
<g><path style="opacity:1" fill="#795531" d="M 273.5,162.5 C 273.5,164.5 273.5,166.5 273.5,168.5C 264.983,168.826 256.65,168.493 248.5,167.5C 249.959,167.567 251.292,167.234 252.5,166.5C 254.265,167.461 256.265,167.795 258.5,167.5C 262.514,167.666 266.514,167.499 270.5,167C 271.897,165.69 272.897,164.19 273.5,162.5 Z"/></g>
<g><path style="opacity:1" fill="#1a1816" d="M 275.5,153.5 C 275.5,159.5 275.5,165.5 275.5,171.5C 265.167,171.5 254.833,171.5 244.5,171.5C 244.328,170.508 244.662,169.842 245.5,169.5C 255.015,169.827 264.348,169.494 273.5,168.5C 273.5,166.5 273.5,164.5 273.5,162.5C 273.5,161.833 273.5,161.167 273.5,160.5C 273.5,159.833 273.5,159.167 273.5,158.5C 273.5,157.5 273.5,156.5 273.5,155.5C 273.833,154.5 274.5,153.833 275.5,153.5 Z"/></g>
<g><path style="opacity:0.208" fill="#cacbce" d="M 144.5,166.5 C 145.906,166.973 146.573,167.973 146.5,169.5C 145.094,169.027 144.427,168.027 144.5,166.5 Z"/></g>
<g><path style="opacity:0.102" fill="#d6d7d7" d="M 214.5,166.5 C 216.25,167.659 217.25,169.326 217.5,171.5C 215.75,170.341 214.75,168.674 214.5,166.5 Z"/></g>
<g><path style="opacity:1" fill="#2b180b" d="M 242.5,151.5 C 243.183,153.176 244.517,153.843 246.5,153.5C 246.216,155.415 246.549,157.081 247.5,158.5C 247.5,158.833 247.5,159.167 247.5,159.5C 247.194,162.385 247.527,165.052 248.5,167.5C 256.65,168.493 264.983,168.826 273.5,168.5C 264.348,169.494 255.015,169.827 245.5,169.5C 245.5,164.5 245.5,159.5 245.5,154.5C 244.167,154.5 242.833,154.5 241.5,154.5C 241.263,153.209 241.596,152.209 242.5,151.5 Z"/></g>
<g><path style="opacity:1" fill="#1d1d17" d="M 180.5,127.5 C 181.762,132.791 182.762,138.125 183.5,143.5C 183.177,150.022 183.51,156.355 184.5,162.5C 184.427,164.027 185.094,165.027 186.5,165.5C 187.338,165.842 187.672,166.508 187.5,167.5C 191.458,169.22 195.792,170.22 200.5,170.5C 191.87,171.518 180.537,171.852 166.5,171.5C 166.833,170.167 167.167,168.833 167.5,167.5C 167.833,167.5 168.167,167.5 168.5,167.5C 168.5,168.167 168.833,168.5 169.5,168.5C 174.179,168.666 178.845,168.499 183.5,168C 182.956,167.283 182.289,166.783 181.5,166.5C 181.443,165.391 181.11,164.391 180.5,163.5C 180.5,151.5 180.5,139.5 180.5,127.5 Z"/></g>
<g><path style="opacity:0.048" fill="#e2e3e4" d="M 89.5,147.5 C 90.8698,149.25 91.8698,151.25 92.5,153.5C 92.1676,166.184 92.5009,178.851 93.5,191.5C 94.1067,191.376 94.44,191.043 94.5,190.5C 98.1029,188.237 101.436,185.57 104.5,182.5C 101.885,188.12 97.552,191.453 91.5,192.5C 91.3374,179.704 91.3374,167.037 91.5,154.5C 90.4229,152.271 89.7563,149.937 89.5,147.5 Z"/></g>
<g><path style="opacity:1" fill="#282825" d="M 125.5,130.5 C 126.49,136.645 126.823,142.978 126.5,149.5C 125.833,150.167 125.167,150.833 124.5,151.5C 123.596,152.209 123.263,153.209 123.5,154.5C 124.833,154.5 126.167,154.5 127.5,154.5C 127.5,159.833 127.5,165.167 127.5,170.5C 131.846,170.666 136.179,170.499 140.5,170C 141.056,169.617 141.389,169.117 141.5,168.5C 141.672,167.508 141.338,166.842 140.5,166.5C 139.89,165.609 139.557,164.609 139.5,163.5C 139.5,159.167 139.5,154.833 139.5,150.5C 141.483,150.157 142.817,150.824 143.5,152.5C 142.515,156.634 142.182,160.968 142.5,165.5C 142.5,167.167 142.5,168.833 142.5,170.5C 139.914,171.594 134.581,171.928 126.5,171.5C 126.5,166.167 126.5,160.833 126.5,155.5C 124.265,155.795 122.265,155.461 120.5,154.5C 121.723,151.726 123.223,149.059 125,146.5C 125.499,141.177 125.666,135.844 125.5,130.5 Z"/></g>
<g><path style="opacity:1" fill="#221a0e" d="M 124.5,151.5 C 125.183,153.176 126.517,153.843 128.5,153.5C 128.179,158.695 128.513,163.695 129.5,168.5C 133.5,168.5 137.5,168.5 141.5,168.5C 141.389,169.117 141.056,169.617 140.5,170C 136.179,170.499 131.846,170.666 127.5,170.5C 127.5,165.167 127.5,159.833 127.5,154.5C 126.167,154.5 124.833,154.5 123.5,154.5C 123.263,153.209 123.596,152.209 124.5,151.5 Z"/></g>
<g><path style="opacity:1" fill="#f9cb72" d="M 133.5,160.5 C 135.083,162.663 136.416,164.996 137.5,167.5C 135.167,167.5 132.833,167.5 130.5,167.5C 132.075,165.453 133.075,163.119 133.5,160.5 Z"/></g>
<g><path style="opacity:1" fill="#d38b45" d="M 133.5,154.5 C 133.5,156.5 133.5,158.5 133.5,160.5C 133.075,163.119 132.075,165.453 130.5,167.5C 130.167,167.5 129.833,167.5 129.5,167.5C 129.5,164.5 129.5,161.5 129.5,158.5C 130.473,156.861 131.806,155.527 133.5,154.5 Z"/></g>
<g><path style="opacity:1" fill="#edd490" d="M 133.5,151.5 C 135.167,152.833 136.833,152.833 138.5,151.5C 138.183,155.702 138.517,159.702 139.5,163.5C 139.557,164.609 139.89,165.609 140.5,166.5C 139.791,167.404 138.791,167.737 137.5,167.5C 136.416,164.996 135.083,162.663 133.5,160.5C 133.5,158.5 133.5,156.5 133.5,154.5C 133.5,153.5 133.5,152.5 133.5,151.5 Z"/></g>
<g><path style="opacity:0.004" fill="#eaebeb" d="M 209.5,167.5 C 209.33,170.204 207.997,171.871 205.5,172.5C 206.604,170.611 207.937,168.945 209.5,167.5 Z"/></g>
<g><path style="opacity:1" fill="#f1c034" d="M 55.5,153.5 C 56.3019,154.952 56.8019,156.618 57,158.5C 58.0391,157.29 59.2058,156.29 60.5,155.5C 61.1213,168.832 61.288,182.165 61,195.5C 60.3292,194.748 59.4959,194.414 58.5,194.5C 58.0104,191.345 57.3438,188.345 56.5,185.5C 56.6785,174.81 56.3452,164.143 55.5,153.5 Z"/></g>
<g><path style="opacity:0.655" fill="#838485" d="M 119.5,154.5 C 119.833,154.5 120.167,154.5 120.5,154.5C 122.265,155.461 124.265,155.795 126.5,155.5C 126.5,160.833 126.5,166.167 126.5,171.5C 134.581,171.928 139.914,171.594 142.5,170.5C 142.5,168.833 142.5,167.167 142.5,165.5C 143.167,165.833 143.833,166.167 144.5,166.5C 144.427,168.027 145.094,169.027 146.5,169.5C 148.466,170.255 148.8,171.421 147.5,173C 139.988,173.822 132.655,173.655 125.5,172.5C 125.5,167.167 125.5,161.833 125.5,156.5C 123.5,156.5 121.5,156.5 119.5,156.5C 118.494,156.062 118.494,155.396 119.5,154.5 Z"/></g>
<g><path style="opacity:1" fill="#9c8c60" d="M 140.5,166.5 C 141.338,166.842 141.672,167.508 141.5,168.5C 137.5,168.5 133.5,168.5 129.5,168.5C 129.5,168.167 129.5,167.833 129.5,167.5C 129.833,167.5 130.167,167.5 130.5,167.5C 132.833,167.5 135.167,167.5 137.5,167.5C 138.791,167.737 139.791,167.404 140.5,166.5 Z"/></g>
<g><path style="opacity:0.672" fill="#7a7a7a" d="M 213.5,163.5 C 211.167,163.833 209.833,165.167 209.5,167.5C 207.937,168.945 206.604,170.611 205.5,172.5C 192.337,173.706 179.004,173.706 165.5,172.5C 165.5,172.167 165.5,171.833 165.5,171.5C 165.833,171.5 166.167,171.5 166.5,171.5C 180.537,171.852 191.87,171.518 200.5,170.5C 201.263,169.732 202.263,169.232 203.5,169C 202.944,168.617 202.611,168.117 202.5,167.5C 204.062,167.267 205.395,166.6 206.5,165.5C 207.627,164.878 208.627,164.045 209.5,163C 211.066,162.235 212.399,162.402 213.5,163.5 Z"/></g>
<g><path style="opacity:0.329" fill="#abacab" d="M 217.5,171.5 C 223.833,171.5 230.167,171.5 236.5,171.5C 237.833,171.5 239.167,171.5 240.5,171.5C 240.217,172.289 239.717,172.956 239,173.5C 233.563,172.351 228.063,172.351 222.5,173.5C 221.167,173.333 219.833,173.167 218.5,173C 217.944,172.617 217.611,172.117 217.5,171.5 Z"/></g>
<g><path style="opacity:0.703" fill="#797a7a" d="M 275.5,153.5 C 276.49,159.645 276.823,165.978 276.5,172.5C 265.5,173.833 254.5,173.833 243.5,172.5C 243.5,172.167 243.5,171.833 243.5,171.5C 243.833,171.5 244.167,171.5 244.5,171.5C 254.833,171.5 265.167,171.5 275.5,171.5C 275.5,165.5 275.5,159.5 275.5,153.5 Z"/></g>
<g><path style="opacity:0.675" fill="#7e7e7e" d="M 281.5,134.5 C 282.495,146.655 282.829,158.989 282.5,171.5C 292.506,171.666 302.506,171.5 312.5,171C 311.167,170.667 309.833,170.333 308.5,170C 309.737,169.768 310.737,169.268 311.5,168.5C 311.5,168.167 311.5,167.833 311.5,167.5C 312.812,162.985 312.812,158.318 311.5,153.5C 310.717,155.288 309.384,156.288 307.5,156.5C 308.595,154.642 309.929,152.975 311.5,151.5C 312.478,151.977 313.311,152.643 314,153.5C 314.81,160.082 314.643,166.582 313.5,173C 308.167,173.167 302.833,173.333 297.5,173.5C 291.789,173.495 286.456,172.828 281.5,171.5C 281.5,159.167 281.5,146.833 281.5,134.5 Z"/></g>
<g><path style="opacity:1" fill="#9b7335" d="M 309.5,158.5 C 309.56,157.957 309.893,157.624 310.5,157.5C 311.487,160.768 311.82,164.102 311.5,167.5C 311.5,167.833 311.5,168.167 311.5,168.5C 302.651,168.826 293.984,168.493 285.5,167.5C 287.735,167.795 289.735,167.461 291.5,166.5C 297.833,166.5 304.167,166.5 310.5,166.5C 310.5,164.5 310.5,162.5 310.5,160.5C 310.672,159.508 310.338,158.842 309.5,158.5 Z"/></g>
<g><path style="opacity:1" fill="#f5eab4" d="M 309.5,158.5 C 310.338,158.842 310.672,159.508 310.5,160.5C 309.733,161.172 309.066,162.005 308.5,163C 304.552,163.745 300.885,163.245 297.5,161.5C 301.042,161.813 304.375,161.479 307.5,160.5C 308.5,160.167 309.167,159.5 309.5,158.5 Z"/></g>
<g><path style="opacity:0.257" fill="#b8baba" d="M 16.5,159.5 C 16.8333,159.5 17.1667,159.5 17.5,159.5C 17.5,171.167 17.5,182.833 17.5,194.5C 16.609,195.11 15.609,195.443 14.5,195.5C 14.7828,194.711 15.2828,194.044 16,193.5C 16.4999,182.172 16.6665,170.838 16.5,159.5 Z"/></g>
<g><path style="opacity:1" fill="#f9dc45" d="M 38.5,141.5 C 38.8333,141.5 39.1667,141.5 39.5,141.5C 39.5,142.167 39.5,142.833 39.5,143.5C 34.553,144.369 32.2197,147.369 32.5,152.5C 34.945,160.562 36.2783,168.895 36.5,177.5C 36.5,177.833 36.5,178.167 36.5,178.5C 34.8333,179.833 33.1667,181.167 31.5,182.5C 31.5,170.5 31.5,158.5 31.5,146.5C 33.2666,144.11 35.5999,142.443 38.5,141.5 Z"/></g>
<g><path style="opacity:1" fill="#221c17" d="M 20.5,128.5 C 20.5,151.5 20.5,174.5 20.5,197.5C 20.1667,197.5 19.8333,197.5 19.5,197.5C 19.1667,197.5 18.8333,197.5 18.5,197.5C 17.8902,196.609 17.5569,195.609 17.5,194.5C 18.3255,190.018 18.8255,185.351 19,180.5C 19.4999,165.837 19.6666,151.17 19.5,136.5C 19.1936,133.615 19.5269,130.948 20.5,128.5 Z"/></g>
<g><path style="opacity:1" fill="#f3bd4a" d="M 28.5,114.5 C 29.6444,116.1 30.8111,117.767 32,119.5C 32.3001,128.502 32.1335,137.502 31.5,146.5C 31.5,158.5 31.5,170.5 31.5,182.5C 31.5,190.167 31.5,197.833 31.5,205.5C 31.6716,206.492 31.3382,207.158 30.5,207.5C 30.5,193.833 30.5,180.167 30.5,166.5C 30.2624,153.15 30.5957,139.816 31.5,126.5C 31.083,122.339 30.083,118.339 28.5,114.5 Z"/></g>
<g><path style="opacity:1" fill="#f0b534" d="M 60.5,155.5 C 60.8333,155.5 61.1667,155.5 61.5,155.5C 62.4731,157.948 62.8064,160.615 62.5,163.5C 65.4077,164.287 68.0744,165.62 70.5,167.5C 70.5,169.167 70.5,170.833 70.5,172.5C 68.283,171.631 65.9496,171.298 63.5,171.5C 62.318,179.986 62.318,188.319 63.5,196.5C 63.5,197.5 63.5,198.5 63.5,199.5C 60.2984,199.463 58.6317,197.797 58.5,194.5C 59.4959,194.414 60.3292,194.748 61,195.5C 61.288,182.165 61.1213,168.832 60.5,155.5 Z"/></g>
<g><path style="opacity:1" fill="#d48235" d="M 29.5,150.5 C 29.1786,156.026 29.5119,161.36 30.5,166.5C 30.5,180.167 30.5,193.833 30.5,207.5C 29.5,207.167 28.8333,206.5 28.5,205.5C 29.6533,199.347 29.82,193.014 29,186.5C 26.7155,189.432 24.2155,192.098 21.5,194.5C 21.5,181.833 21.5,169.167 21.5,156.5C 21.8333,156.5 22.1667,156.5 22.5,156.5C 22.3345,160.514 22.5012,164.514 23,168.5C 23.1629,170.676 23.9963,172.509 25.5,174C 25.1667,174.333 24.8333,174.667 24.5,175C 25.3247,176.688 26.3247,176.855 27.5,175.5C 28.4977,167.528 28.831,159.528 28.5,151.5C 28.5,150.833 28.8333,150.5 29.5,150.5 Z"/></g>
<g><path style="opacity:1" fill="#efa138" d="M 70.5,172.5 C 70.5,173.833 70.5,175.167 70.5,176.5C 70.6621,178.527 70.4955,180.527 70,182.5C 68,183.167 66,183.833 64,184.5C 63.1901,188.358 63.3567,192.024 64.5,195.5C 64.5,196.167 64.1667,196.5 63.5,196.5C 62.318,188.319 62.318,179.986 63.5,171.5C 65.9496,171.298 68.283,171.631 70.5,172.5 Z"/></g>
<g><path style="opacity:0.129" fill="#c5c5c7" d="M 110.5,147.5 C 110.5,150.5 110.5,153.5 110.5,156.5C 111.016,161.414 110.849,166.414 110,171.5C 109.19,175.787 107.357,179.454 104.5,182.5C 109.032,173.044 110.699,163.044 109.5,152.5C 109.216,150.585 109.549,148.919 110.5,147.5 Z"/></g>
<g><path style="opacity:1" fill="#b2a777" d="M 39.5,168.5 C 39.8333,168.5 40.1667,168.5 40.5,168.5C 40.5,177.5 40.5,186.5 40.5,195.5C 39.5489,196.919 39.2155,198.585 39.5,200.5C 39.1667,200.5 38.8333,200.5 38.5,200.5C 39.2384,189.85 39.5717,179.183 39.5,168.5 Z"/></g>
<g><path style="opacity:0.755" fill="#535a5a" d="M 43.5,159.5 C 43.5,187.5 43.5,215.5 43.5,243.5C 42.221,244.715 41.221,244.382 40.5,242.5C 42.4894,220.525 43.156,198.192 42.5,175.5C 42.1786,169.974 42.5119,164.64 43.5,159.5 Z"/></g>
<g><path style="opacity:0.745" fill="#4e5153" d="M 92.5,153.5 C 92.8414,164.705 93.8414,175.705 95.5,186.5C 94.8592,187.482 94.1925,188.482 93.5,189.5C 93.6236,190.107 93.9569,190.44 94.5,190.5C 94.44,191.043 94.1067,191.376 93.5,191.5C 92.5009,178.851 92.1676,166.184 92.5,153.5 Z"/></g>
<g><path style="opacity:1" fill="#282521" d="M 94.5,150.5 C 94.8333,150.5 95.1667,150.5 95.5,150.5C 95.1721,161.679 95.5054,172.679 96.5,183.5C 96.8333,183.5 97.1667,183.5 97.5,183.5C 98.4959,183.586 99.3292,183.252 100,182.5C 101.856,179.444 103.689,176.444 105.5,173.5C 106.537,172.07 107.204,170.403 107.5,168.5C 108.167,163.167 108.833,157.833 109.5,152.5C 110.699,163.044 109.032,173.044 104.5,182.5C 101.436,185.57 98.1029,188.237 94.5,190.5C 93.9569,190.44 93.6236,190.107 93.5,189.5C 94.1925,188.482 94.8592,187.482 95.5,186.5C 94.5214,174.58 94.1881,162.58 94.5,150.5 Z"/></g>
<g><path style="opacity:1" fill="#512b0f" d="M 105.5,173.5 C 103.689,176.444 101.856,179.444 100,182.5C 99.3292,183.252 98.4959,183.586 97.5,183.5C 98.1098,182.609 98.4431,181.609 98.5,180.5C 99.8923,178.727 101.059,176.727 102,174.5C 103.011,173.663 104.178,173.33 105.5,173.5 Z"/></g>
<g><path style="opacity:1" fill="#c49b48" d="M 97.5,158.5 C 97.5,159.167 97.5,159.833 97.5,160.5C 97.176,167.354 97.5093,174.021 98.5,180.5C 98.4431,181.609 98.1098,182.609 97.5,183.5C 97.1667,183.5 96.8333,183.5 96.5,183.5C 96.1739,174.983 96.5073,166.65 97.5,158.5 Z"/></g>
<g><path style="opacity:1" fill="#d69c2e" d="M 101.5,160.5 C 101.736,163.914 102.402,167.247 103.5,170.5C 104.183,170.863 104.85,171.196 105.5,171.5C 105.5,172.167 105.5,172.833 105.5,173.5C 104.178,173.33 103.011,173.663 102,174.5C 101.059,176.727 99.8923,178.727 98.5,180.5C 97.5093,174.021 97.176,167.354 97.5,160.5C 98.8333,159.167 100.167,159.167 101.5,160.5 Z"/></g>
<g><path style="opacity:1" fill="#f8e18e" d="M 38.5,168.5 C 38.8333,168.5 39.1667,168.5 39.5,168.5C 39.5717,179.183 39.2384,189.85 38.5,200.5C 38.5,202.167 38.5,203.833 38.5,205.5C 38.1667,205.5 37.8333,205.5 37.5,205.5C 37.5,196.167 37.5,186.833 37.5,177.5C 37.5,174.833 37.5,172.167 37.5,169.5C 38.1667,169.5 38.5,169.167 38.5,168.5 Z"/></g>
<g><path style="opacity:1" fill="#b08042" d="M 54.5,153.5 C 54.8333,153.5 55.1667,153.5 55.5,153.5C 56.3452,164.143 56.6785,174.81 56.5,185.5C 56.1771,191.69 56.5104,197.69 57.5,203.5C 57.44,204.043 57.1067,204.376 56.5,204.5C 55.513,201.232 55.1796,197.898 55.5,194.5C 55.6665,183.162 55.4999,171.828 55,160.5C 53.4824,158.187 53.3157,155.854 54.5,153.5 Z"/></g>
<g><path style="opacity:1" fill="#dd9643" d="M 70.5,176.5 C 70.8333,176.5 71.1667,176.5 71.5,176.5C 71.244,180.269 71.5773,183.936 72.5,187.5C 69.5753,189.758 66.9086,192.425 64.5,195.5C 63.3567,192.024 63.1901,188.358 64,184.5C 66,183.833 68,183.167 70,182.5C 70.4955,180.527 70.6621,178.527 70.5,176.5 Z"/></g>
<g><path style="opacity:1" fill="#c36022" d="M 28.5,205.5 C 26.1667,202.833 23.8333,200.167 21.5,197.5C 21.5,196.5 21.5,195.5 21.5,194.5C 24.2155,192.098 26.7155,189.432 29,186.5C 29.82,193.014 29.6533,199.347 28.5,205.5 Z"/></g>
<g><path style="opacity:1" fill="#f3c32f" d="M 36.5,178.5 C 36.5,189.5 36.5,200.5 36.5,211.5C 35.325,211.719 34.325,211.386 33.5,210.5C 32.9724,208.664 32.3058,206.997 31.5,205.5C 31.5,197.833 31.5,190.167 31.5,182.5C 33.1667,181.167 34.8333,179.833 36.5,178.5 Z"/></g>
<g><path style="opacity:1" fill="#622d14" d="M 38.5,154.5 C 39.5676,153.566 40.901,153.232 42.5,153.5C 42.6848,155.89 44.0182,156.89 46.5,156.5C 48.5885,156.38 49.9218,155.38 50.5,153.5C 51.8333,153.5 53.1667,153.5 54.5,153.5C 53.3157,155.854 53.4824,158.187 55,160.5C 55.4999,171.828 55.6665,183.162 55.5,194.5C 54.8333,189.5 54.1667,184.5 53.5,179.5C 53.6354,172.138 53.3021,164.804 52.5,157.5C 48.5,157.5 44.5,157.5 40.5,157.5C 40.573,155.973 39.9063,154.973 38.5,154.5 Z"/></g>
<g><path style="opacity:1" fill="#b5722b" d="M 42.5,153.5 C 45.1667,153.5 47.8333,153.5 50.5,153.5C 49.9218,155.38 48.5885,156.38 46.5,156.5C 44.0182,156.89 42.6848,155.89 42.5,153.5 Z"/></g>
<g><path style="opacity:1" fill="#eec876" d="M 72.5,187.5 C 73.2389,187.369 73.9056,187.536 74.5,188C 73.3353,189.992 72.002,191.825 70.5,193.5C 68.3932,195.727 66.0599,197.727 63.5,199.5C 63.5,198.5 63.5,197.5 63.5,196.5C 64.1667,196.5 64.5,196.167 64.5,195.5C 66.9086,192.425 69.5753,189.758 72.5,187.5 Z"/></g>
<g><path style="opacity:1" fill="#3d4146" d="M 79.5,184.5 C 80.1239,184.917 80.4573,185.584 80.5,186.5C 79.8224,188.516 79.1557,190.516 78.5,192.5C 77.3263,193.514 76.6596,194.847 76.5,196.5C 75.0937,196.973 74.427,197.973 74.5,199.5C 73.8333,199.833 73.1667,200.167 72.5,200.5C 71.7222,199.844 71.0556,199.011 70.5,198C 72.8555,194.457 74.5222,190.623 75.5,186.5C 77.4832,186.843 78.8166,186.176 79.5,184.5 Z"/></g>
<g><path style="opacity:0.994" fill="#2b2e28" d="M 42.5,175.5 C 43.156,198.192 42.4894,220.525 40.5,242.5C 40.5,242.167 40.5,241.833 40.5,241.5C 40.9854,239.915 40.3188,238.415 38.5,237C 40.727,236.296 41.0603,235.129 39.5,233.5C 39.8333,233.5 40.1667,233.5 40.5,233.5C 41.1667,214.167 41.8333,194.833 42.5,175.5 Z"/></g>
<g><path style="opacity:0.071" fill="#d6d7d9" d="M 78.5,192.5 C 78.7709,194.38 78.1042,195.713 76.5,196.5C 76.6596,194.847 77.3263,193.514 78.5,192.5 Z"/></g>
<g><path style="opacity:0.693" fill="#a2a5a6" d="M 50.5,158.5 C 50.5,177.833 50.5,197.167 50.5,216.5C 51.5,216.5 52.5,216.5 53.5,216.5C 52.2493,218.22 50.7493,218.553 49,217.5C 48.5,198.17 48.3334,178.836 48.5,159.5C 47.1667,159.5 45.8333,159.5 44.5,159.5C 44.8313,187.672 44.498,215.672 43.5,243.5C 43.5,215.5 43.5,187.5 43.5,159.5C 45.6074,158.532 47.9407,158.198 50.5,158.5 Z"/></g>
<g><path style="opacity:0.965" fill="#676969" d="M 14.5,195.5 C 14.5774,196.75 15.244,197.583 16.5,198C 15.552,198.483 14.552,198.649 13.5,198.5C 13.5,199.5 13.5,200.5 13.5,201.5C 10.5101,198.826 10.8435,196.826 14.5,195.5 Z"/></g>
<g><path style="opacity:0.024" fill="#dadbdd" d="M 76.5,196.5 C 76.573,198.027 75.9063,199.027 74.5,199.5C 74.427,197.973 75.0937,196.973 76.5,196.5 Z"/></g>
<g><path style="opacity:1" fill="#e0ad54" d="M 56.5,185.5 C 57.3438,188.345 58.0104,191.345 58.5,194.5C 58.6317,197.797 60.2984,199.463 63.5,199.5C 62.1979,201.822 60.1979,203.155 57.5,203.5C 56.5104,197.69 56.1771,191.69 56.5,185.5 Z"/></g>
<g><path style="opacity:0.047" fill="#cccccd" d="M 74.5,199.5 C 72.1667,203.833 68.8333,207.167 64.5,209.5C 67.1667,206.5 69.8333,203.5 72.5,200.5C 73.1667,200.167 73.8333,199.833 74.5,199.5 Z"/></g>
<g><path style="opacity:0.996" fill="#2a2b2c" d="M 50.5,158.5 C 51.4968,176.659 51.8302,194.992 51.5,213.5C 52.9587,213.567 54.2921,213.234 55.5,212.5C 55.5,213.5 55.5,214.5 55.5,215.5C 55.1583,216.338 54.4916,216.672 53.5,216.5C 52.5,216.5 51.5,216.5 50.5,216.5C 50.5,197.167 50.5,177.833 50.5,158.5 Z"/></g>
<g><path style="opacity:1" fill="#471d12" d="M 53.5,179.5 C 54.1667,184.5 54.8333,189.5 55.5,194.5C 55.1796,197.898 55.513,201.232 56.5,204.5C 57.1067,204.376 57.44,204.043 57.5,203.5C 60.1979,203.155 62.1979,201.822 63.5,199.5C 66.0599,197.727 68.3932,195.727 70.5,193.5C 70.1667,194.833 69.8333,196.167 69.5,197.5C 65.4566,202.873 60.4566,207.206 54.5,210.5C 53.5014,200.188 53.1681,189.855 53.5,179.5 Z"/></g>
<g><path style="opacity:0.18" fill="#c8cbd0" d="M 14.5,204.5 C 17.6745,209.516 20.3412,214.849 22.5,220.5C 21.5416,220.047 20.7083,219.381 20,218.5C 17.8699,213.913 16.0366,209.247 14.5,204.5 Z"/></g>
<g><path style="opacity:1" fill="#42464e" d="M 13.5,201.5 C 14.4959,201.414 15.3292,201.748 16,202.5C 18.8261,208.822 22.1595,214.822 26,220.5C 26.4935,222.134 26.6602,223.801 26.5,225.5C 26.1667,225.5 25.8333,225.5 25.5,225.5C 25.573,223.973 24.9063,222.973 23.5,222.5C 22.6618,222.158 22.3284,221.492 22.5,220.5C 20.3412,214.849 17.6745,209.516 14.5,204.5C 13.596,203.791 13.2627,202.791 13.5,201.5 Z"/></g>
<g><path style="opacity:1" fill="#8f6c45" d="M 40.5,195.5 C 40.5,208.167 40.5,220.833 40.5,233.5C 40.1667,233.5 39.8333,233.5 39.5,233.5C 39.1667,232.833 38.8333,232.167 38.5,231.5C 38.5,231.167 38.5,230.833 38.5,230.5C 39.494,220.681 39.8274,210.681 39.5,200.5C 39.2155,198.585 39.5489,196.919 40.5,195.5 Z"/></g>
<g><path style="opacity:1" fill="#f1c54e" d="M 36.5,177.5 C 36.8333,177.5 37.1667,177.5 37.5,177.5C 37.5,186.833 37.5,196.167 37.5,205.5C 37.6653,209.182 37.4986,212.848 37,216.5C 35.5125,218.83 33.6791,219.164 31.5,217.5C 26.2086,212.274 21.8753,206.274 18.5,199.5C 18.8627,198.817 19.1961,198.15 19.5,197.5C 19.8333,197.5 20.1667,197.5 20.5,197.5C 20.8333,197.5 21.1667,197.5 21.5,197.5C 23.8333,200.167 26.1667,202.833 28.5,205.5C 28.8333,206.5 29.5,207.167 30.5,207.5C 31.3382,207.158 31.6716,206.492 31.5,205.5C 32.3058,206.997 32.9724,208.664 33.5,210.5C 34.325,211.386 35.325,211.719 36.5,211.5C 36.5,200.5 36.5,189.5 36.5,178.5C 36.5,178.167 36.5,177.833 36.5,177.5 Z"/></g>
<g><path style="opacity:1" fill="#5a5c5e" d="M 56.5,211.5 C 57.8333,211.5 59.1667,211.5 60.5,211.5C 60.5,211.833 60.5,212.167 60.5,212.5C 59.1007,213.89 57.4341,214.89 55.5,215.5C 55.5,214.5 55.5,213.5 55.5,212.5C 55.5,211.833 55.8333,211.5 56.5,211.5 Z"/></g>
<g><path style="opacity:0.031" fill="#cfd0d0" d="M 63.5,210.5 C 63.0269,211.906 62.0269,212.573 60.5,212.5C 60.5,212.167 60.5,211.833 60.5,211.5C 61.391,210.89 62.391,210.557 63.5,210.5 Z"/></g>
<g><path style="opacity:1" fill="#1f1d1e" d="M 17.5,194.5 C 17.5569,195.609 17.8902,196.609 18.5,197.5C 17.4017,198.601 17.235,199.934 18,201.5C 21.3433,212.205 27.1766,221.205 35.5,228.5C 36.5,229.5 37.5,230.5 38.5,231.5C 38.8333,232.167 39.1667,232.833 39.5,233.5C 41.0603,235.129 40.727,236.296 38.5,237C 40.3188,238.415 40.9854,239.915 40.5,241.5C 38.7541,239.748 36.7541,238.415 34.5,237.5C 33.5806,234.911 31.914,232.911 29.5,231.5C 28.5294,229.517 27.5294,227.517 26.5,225.5C 26.6602,223.801 26.4935,222.134 26,220.5C 22.1595,214.822 18.8261,208.822 16,202.5C 15.3292,201.748 14.4959,201.414 13.5,201.5C 13.5,200.5 13.5,199.5 13.5,198.5C 14.552,198.649 15.552,198.483 16.5,198C 15.244,197.583 14.5774,196.75 14.5,195.5C 15.609,195.443 16.609,195.11 17.5,194.5 Z"/></g>
<g><path style="opacity:1" fill="#edbe79" d="M 37.5,205.5 C 37.8333,205.5 38.1667,205.5 38.5,205.5C 38.8222,211.358 38.4889,217.025 37.5,222.5C 35.2279,221.559 33.2279,220.226 31.5,218.5C 31.5,218.167 31.5,217.833 31.5,217.5C 33.6791,219.164 35.5125,218.83 37,216.5C 37.4986,212.848 37.6653,209.182 37.5,205.5 Z"/></g>
<g><path style="opacity:1" fill="#3a180e" d="M 18.5,197.5 C 18.8333,197.5 19.1667,197.5 19.5,197.5C 19.1961,198.15 18.8627,198.817 18.5,199.5C 21.8753,206.274 26.2086,212.274 31.5,217.5C 31.5,217.833 31.5,218.167 31.5,218.5C 32.8333,221.833 34.1667,225.167 35.5,228.5C 27.1766,221.205 21.3433,212.205 18,201.5C 17.235,199.934 17.4017,198.601 18.5,197.5 Z"/></g>
<g><path style="opacity:0.086" fill="#d7d9dd" d="M 23.5,222.5 C 24.9063,222.973 25.573,223.973 25.5,225.5C 24.0937,225.027 23.427,224.027 23.5,222.5 Z"/></g>
<g><path style="opacity:1" fill="#b07540" d="M 38.5,200.5 C 38.8333,200.5 39.1667,200.5 39.5,200.5C 39.8274,210.681 39.494,220.681 38.5,230.5C 37.7347,227.904 37.4013,225.237 37.5,222.5C 38.4889,217.025 38.8222,211.358 38.5,205.5C 38.5,203.833 38.5,202.167 38.5,200.5 Z"/></g>
<g><path style="opacity:1" fill="#561f09" d="M 31.5,218.5 C 33.2279,220.226 35.2279,221.559 37.5,222.5C 37.4013,225.237 37.7347,227.904 38.5,230.5C 38.5,230.833 38.5,231.167 38.5,231.5C 37.5,230.5 36.5,229.5 35.5,228.5C 34.1667,225.167 32.8333,221.833 31.5,218.5 Z"/></g>
<g><path style="opacity:0.2" fill="#d6d6d9" d="M 25.5,225.5 C 25.8333,225.5 26.1667,225.5 26.5,225.5C 27.5294,227.517 28.5294,229.517 29.5,231.5C 27.1782,230.198 25.8449,228.198 25.5,225.5 Z"/></g>
<g><path style="opacity:0.004" fill="#cfd0d2" d="M 29.5,231.5 C 31.914,232.911 33.5806,234.911 34.5,237.5C 32.086,236.089 30.4194,234.089 29.5,231.5 Z"/></g>
<g><path style="opacity:0.647" fill="#9b9b9d" d="M 34.5,237.5 C 36.7541,238.415 38.7541,239.748 40.5,241.5C 40.5,241.833 40.5,242.167 40.5,242.5C 37.9108,241.581 35.9108,239.914 34.5,237.5 Z"/></g>
</svg>
