<?xml version="1.0" encoding="UTF-8"?>
<!DOCTYPE svg PUBLIC "-//W3C//DTD SVG 1.1//EN" "http://www.w3.org/Graphics/SVG/1.1/DTD/svg11.dtd">
<svg xmlns="http://www.w3.org/2000/svg" version="1.1" width="274px" height="274px" style="shape-rendering:geometricPrecision; text-rendering:geometricPrecision; image-rendering:optimizeQuality; fill-rule:evenodd; clip-rule:evenodd" xmlns:xlink="http://www.w3.org/1999/xlink">
<g><path style="opacity:0.547" fill="#f6e78b" d="M 153.5,13.5 C 145.167,13.5 136.833,13.5 128.5,13.5C 128.739,17.8422 129.073,22.1756 129.5,26.5C 129.167,26.5 128.833,26.5 128.5,26.5C 128.5,25.8333 128.5,25.1667 128.5,24.5C 127.97,21.284 127.304,18.1174 126.5,15C 127.167,14 127.833,13 128.5,12C 137.04,11.3734 145.373,11.8734 153.5,13.5 Z"/></g>
<g><path style="opacity:0.827" fill="#e1cc64" d="M 153.5,13.5 C 156.883,13.2572 160.049,13.9239 163,15.5C 163.516,20.2677 164.35,24.9343 165.5,29.5C 165.5,29.8333 165.5,30.1667 165.5,30.5C 165.5,32.8333 165.5,35.1667 165.5,37.5C 164.247,30.9916 163.081,24.3249 162,17.5C 159.207,16.0145 156.374,14.6811 153.5,13.5 Z"/></g>
<g><path style="opacity:1" fill="#e5cc3e" d="M 107.5,15.5 C 110.833,15.5 114.167,15.5 117.5,15.5C 117.5,18.5 117.5,21.5 117.5,24.5C 117.5,24.8333 117.5,25.1667 117.5,25.5C 117.5,26.1667 117.5,26.8333 117.5,27.5C 117.451,31.0781 116.785,34.4115 115.5,37.5C 115.326,30.4648 115.659,23.4648 116.5,16.5C 109.883,16.301 103.55,17.301 97.5,19.5C 97.8333,18.8333 98.1667,18.1667 98.5,17.5C 101.37,16.3664 104.37,15.6997 107.5,15.5 Z"/></g>
<g><path style="opacity:0.196" fill="#f7ec96" d="M 117.5,24.5 C 117.5,21.5 117.5,18.5 117.5,15.5C 114.167,15.5 110.833,15.5 107.5,15.5C 110.909,14.0966 114.575,13.4299 118.5,13.5C 118.815,17.3714 118.482,21.0381 117.5,24.5 Z"/></g>
<g><path style="opacity:0.886" fill="#ecc96c" d="M 187.5,23.5 C 185.533,23.2606 183.699,23.5939 182,24.5C 181.517,23.552 181.351,22.552 181.5,21.5C 180.5,21.5 179.5,21.5 178.5,21.5C 178.5,22.8333 178.5,24.1667 178.5,25.5C 178.5,26.8333 178.5,28.1667 178.5,29.5C 174.366,17.3933 177.366,15.3933 187.5,23.5 Z"/></g>
<g><path style="opacity:0.741" fill="#fbee9f" d="M 98.5,17.5 C 98.1667,18.1667 97.8333,18.8333 97.5,19.5C 93.0894,20.6927 88.7561,22.1927 84.5,24C 83.0331,26.3785 82.0331,28.8785 81.5,31.5C 81.0196,28.3148 81.6863,25.4815 83.5,23C 88.3316,20.6677 93.3316,18.8343 98.5,17.5 Z"/></g>
<g><path style="opacity:0.141" fill="#e3dcd7" d="M 128.5,24.5 C 128.5,25.1667 128.5,25.8333 128.5,26.5C 126.167,26.5 123.833,26.5 121.5,26.5C 123.715,25.7321 126.048,25.0654 128.5,24.5 Z"/></g>
<g><path style="opacity:1" fill="#f3b001" d="M 170.5,125.5 C 171.5,125.5 172.5,125.5 173.5,125.5C 172.882,136.835 173.382,148.169 175,159.5C 175.71,158.027 176.876,157.36 178.5,157.5C 178.711,164.251 178.044,170.917 176.5,177.5C 178.379,182.103 178.713,186.77 177.5,191.5C 174.126,170.048 171.459,148.381 169.5,126.5C 162.801,127.706 156.135,129.04 149.5,130.5C 151.416,149.089 153.416,167.756 155.5,186.5C 154.778,186.082 154.278,185.416 154,184.5C 152.969,193.129 151.469,193.462 149.5,185.5C 148.278,177.283 148.278,169.116 149.5,161C 148.256,160.544 147.423,161.044 147,162.5C 146.756,154.889 145.922,147.389 144.5,140C 144.555,137.413 144.889,134.913 145.5,132.5C 146.5,132.5 147.5,132.5 148.5,132.5C 144.907,94.7533 140.573,57.0866 135.5,19.5C 142.452,19.4196 149.285,20.0862 156,21.5C 159.092,44.7802 161.759,68.1136 164,91.5C 165.902,103.164 168.068,114.497 170.5,125.5 Z"/></g>
<g><path style="opacity:0.984" fill="#edca65" d="M 191.5,25.5 C 195.505,26.4977 198.839,28.4977 201.5,31.5C 197.269,30.7802 193.936,28.7802 191.5,25.5 Z"/></g>
<g><path style="opacity:1" fill="#f2b002" d="M 106.5,139.5 C 105.949,142.807 105.616,146.14 105.5,149.5C 103.927,158.302 102.76,167.302 102,176.5C 100.847,180.327 99.68,184.16 98.5,188C 100.223,192.721 100.723,197.554 100,202.5C 98.0914,198.433 97.2581,198.766 97.5,203.5C 98.0211,205.924 98.6877,208.257 99.5,210.5C 99.5,213.5 99.5,216.5 99.5,219.5C 99.5,223.5 99.5,227.5 99.5,231.5C 98.5269,233.948 98.1936,236.615 98.5,239.5C 97.5233,242.287 97.19,245.287 97.5,248.5C 97.5,248.833 97.5,249.167 97.5,249.5C 92.9095,250.359 88.5761,249.359 84.5,246.5C 82.5466,245.844 80.5466,245.511 78.5,245.5C 77.5532,242.338 75.5532,240.004 72.5,238.5C 71.5481,236.955 71.2148,235.288 71.5,233.5C 77.2065,237.845 83.5398,240.845 90.5,242.5C 93.8687,208.524 96.8687,174.524 99.5,140.5C 92.8333,140.5 86.1667,140.5 79.5,140.5C 83.0823,103.179 86.4156,65.8456 89.5,28.5C 96.1415,25.4993 103.142,23.4993 110.5,22.5C 106.709,61.4948 103.042,100.495 99.5,139.5C 101.833,139.5 104.167,139.5 106.5,139.5 Z"/></g>
<g><path style="opacity:1" fill="#514649" d="M 117.5,25.5 C 118.708,26.2341 120.041,26.5674 121.5,26.5C 123.833,26.5 126.167,26.5 128.5,26.5C 128.833,26.5 129.167,26.5 129.5,26.5C 129.5,28.1667 129.5,29.8333 129.5,31.5C 125.894,31.2108 122.394,31.5442 119,32.5C 118.802,30.6183 118.302,28.9516 117.5,27.5C 117.5,26.8333 117.5,26.1667 117.5,25.5 Z"/></g>
<g><path style="opacity:0.239" fill="#f7e1a5" d="M 67.5,41.5 C 67.8076,39.076 67.4742,36.7427 66.5,34.5C 65.5832,35.1272 64.5832,35.4606 63.5,35.5C 64.643,33.5001 66.143,32.8334 68,33.5C 68.8007,36.367 68.6341,39.0336 67.5,41.5 Z"/></g>
<g><path style="opacity:1" fill="#2e2725" d="M 117.5,27.5 C 118.302,28.9516 118.802,30.6183 119,32.5C 122.394,31.5442 125.894,31.2108 129.5,31.5C 129.674,33.861 130.007,36.1944 130.5,38.5C 130.5,41.5 130.5,44.5 130.5,47.5C 129.842,46.6016 129.176,45.6016 128.5,44.5C 124.949,44.9521 121.615,45.9521 118.5,47.5C 117.719,46.2713 117.219,44.938 117,43.5C 116.819,46.6946 116.319,49.6946 115.5,52.5C 115.5,47.5 115.5,42.5 115.5,37.5C 116.785,34.4115 117.451,31.0781 117.5,27.5 Z"/></g>
<g><path style="opacity:1" fill="#ce991b" d="M 178.5,25.5 C 212.231,38.2316 235.231,61.5649 247.5,95.5C 245.766,96.562 244.099,96.562 242.5,95.5C 229.644,65.3098 208.31,43.3098 178.5,29.5C 178.5,28.1667 178.5,26.8333 178.5,25.5 Z"/></g>
<g><path style="opacity:1" fill="#b8ad6d" d="M 81.5,31.5 C 81.8214,37.0262 81.4881,42.3595 80.5,47.5C 80.7947,45.2646 80.4614,43.2646 79.5,41.5C 80.0965,38.0588 80.7632,34.7254 81.5,31.5 Z"/></g>
<g><path style="opacity:1" fill="#f6cd10" d="M 115.5,37.5 C 115.5,42.5 115.5,47.5 115.5,52.5C 115.5,54.8333 115.5,57.1667 115.5,59.5C 115.5,59.8333 115.5,60.1667 115.5,60.5C 114.469,62.9608 113.802,65.6275 113.5,68.5C 112.732,69.2625 112.232,70.2625 112,71.5C 111.005,90.2668 109.505,108.933 107.5,127.5C 107.495,131.534 107.162,135.534 106.5,139.5C 104.167,139.5 101.833,139.5 99.5,139.5C 103.042,100.495 106.709,61.4948 110.5,22.5C 103.142,23.4993 96.1415,25.4993 89.5,28.5C 86.4156,65.8456 83.0823,103.179 79.5,140.5C 79.5,140.833 79.5,141.167 79.5,141.5C 77.1667,141.5 74.8333,141.5 72.5,141.5C 72.5,139.5 72.5,137.5 72.5,135.5C 72.3375,130.453 72.6708,125.453 73.5,120.5C 74.1174,120.389 74.6174,120.056 75,119.5C 75.4995,113.509 75.6662,107.509 75.5,101.5C 75.5,101.167 75.5,100.833 75.5,100.5C 77.0784,95.4174 77.7451,90.084 77.5,84.5C 77.2883,75.9857 77.955,67.6524 79.5,59.5C 79.307,55.4338 79.6403,51.4338 80.5,47.5C 81.4881,42.3595 81.8214,37.0262 81.5,31.5C 82.0331,28.8785 83.0331,26.3785 84.5,24C 88.7561,22.1927 93.0894,20.6927 97.5,19.5C 103.55,17.301 109.883,16.301 116.5,16.5C 115.659,23.4648 115.326,30.4648 115.5,37.5 Z"/></g>
<g><path style="opacity:1" fill="#ac9426" d="M 165.5,41.5 C 166.972,45.9192 167.638,50.5859 167.5,55.5C 166.028,51.0808 165.362,46.4141 165.5,41.5 Z"/></g>
<g><path style="opacity:0.612" fill="#f1d26e" d="M 56.5,41.5 C 52.1186,46.5481 47.4519,51.2148 42.5,55.5C 46.1879,49.8121 50.8546,45.1454 56.5,41.5 Z"/></g>
<g><path style="opacity:1" fill="#4f484a" d="M 165.5,30.5 C 165.5,30.1667 165.5,29.8333 165.5,29.5C 202.448,40.4457 227.448,64.1123 240.5,100.5C 240.167,100.5 239.833,100.5 239.5,100.5C 239.565,100.062 239.399,99.7284 239,99.5C 237.67,100.582 236.17,101.249 234.5,101.5C 223.202,68.4933 200.868,46.6599 167.5,36C 166.891,34.0517 166.224,32.2184 165.5,30.5 Z"/></g>
<g><path style="opacity:1" fill="#a89643" d="M 131.5,47.5 C 132.644,51.9637 133.31,56.6304 133.5,61.5C 132.566,60.4324 132.232,59.099 132.5,57.5C 131.586,54.272 131.253,50.9387 131.5,47.5 Z"/></g>
<g><path style="opacity:1" fill="#504d4f" d="M 130.5,47.5 C 130.5,49.5 130.5,51.5 130.5,53.5C 128.234,53.8588 126.401,53.1922 125,51.5C 123.174,53.0738 121.007,53.9071 118.5,54C 117.131,55.7189 116.131,57.5522 115.5,59.5C 115.5,57.1667 115.5,54.8333 115.5,52.5C 116.319,49.6946 116.819,46.6946 117,43.5C 117.219,44.938 117.719,46.2713 118.5,47.5C 121.615,45.9521 124.949,44.9521 128.5,44.5C 129.176,45.6016 129.842,46.6016 130.5,47.5 Z"/></g>
<g><path style="opacity:1" fill="#2a2627" d="M 165.5,30.5 C 166.224,32.2184 166.891,34.0517 167.5,36C 200.868,46.6599 223.202,68.4933 234.5,101.5C 230.9,103.316 227.234,104.983 223.5,106.5C 223.611,105.883 223.944,105.383 224.5,105C 223.484,104.481 222.818,103.647 222.5,102.5C 222.124,95.7007 219.791,89.7007 215.5,84.5C 213.775,83.9851 212.108,83.3184 210.5,82.5C 205.149,77.149 200.149,71.4824 195.5,65.5C 189.453,59.7763 182.453,55.7763 174.5,53.5C 173.914,53.7093 173.414,54.0426 173,54.5C 172,53.1667 171,51.8333 170,50.5C 169.802,52.3817 169.302,54.0484 168.5,55.5C 168.167,55.5 167.833,55.5 167.5,55.5C 167.638,50.5859 166.972,45.9192 165.5,41.5C 165.5,40.1667 165.5,38.8333 165.5,37.5C 165.5,35.1667 165.5,32.8333 165.5,30.5 Z"/></g>
<g><path style="opacity:1" fill="#6c6964" d="M 130.5,38.5 C 131.477,41.2869 131.81,44.2869 131.5,47.5C 131.253,50.9387 131.586,54.272 132.5,57.5C 126.74,58.0368 121.073,59.0368 115.5,60.5C 115.5,60.1667 115.5,59.8333 115.5,59.5C 116.131,57.5522 117.131,55.7189 118.5,54C 121.007,53.9071 123.174,53.0738 125,51.5C 126.401,53.1922 128.234,53.8588 130.5,53.5C 130.5,51.5 130.5,49.5 130.5,47.5C 130.5,44.5 130.5,41.5 130.5,38.5 Z"/></g>
<g><path style="opacity:1" fill="#292526" d="M 79.5,41.5 C 80.4614,43.2646 80.7947,45.2646 80.5,47.5C 79.6403,51.4338 79.307,55.4338 79.5,59.5C 78.6909,61.2922 78.1909,63.2922 78,65.5C 77.5774,64.0439 76.7441,63.5439 75.5,64C 72.0218,66.4911 68.8551,69.3244 66,72.5C 65.6667,73.5 65.3333,74.5 65,75.5C 54.9321,83.3577 49.5988,93.691 49,106.5C 48.2754,108.949 47.2754,111.283 46,113.5C 45.2151,122.487 44.7151,131.487 44.5,140.5C 45.791,140.263 46.791,140.596 47.5,141.5C 42.1536,140.906 36.8202,140.239 31.5,139.5C 31.2051,100.421 47.0384,69.7545 79,47.5C 79.4955,45.5273 79.6621,43.5273 79.5,41.5 Z"/></g>
<g><path style="opacity:1" fill="#f0b322" d="M 187.5,23.5 C 189.153,23.6596 190.486,24.3263 191.5,25.5C 193.936,28.7802 197.269,30.7802 201.5,31.5C 225.831,46.458 242.831,67.458 252.5,94.5C 251.041,94.4326 249.708,94.7659 248.5,95.5C 248.167,95.5 247.833,95.5 247.5,95.5C 235.231,61.5649 212.231,38.2316 178.5,25.5C 178.5,24.1667 178.5,22.8333 178.5,21.5C 179.5,21.5 180.5,21.5 181.5,21.5C 181.351,22.552 181.517,23.552 182,24.5C 183.699,23.5939 185.533,23.2606 187.5,23.5 Z"/></g>
<g><path style="opacity:1" fill="#d4b14e" d="M 54.5,56.5 C 48.0839,64.241 42.0839,72.241 36.5,80.5C 36.3367,78.1432 36.5034,75.8098 37,73.5C 37.414,73.9574 37.914,74.2907 38.5,74.5C 40.3598,70.0979 42.6932,66.0979 45.5,62.5C 46.5,62.5 47.5,62.5 48.5,62.5C 47.5,57.5 49.5,55.5 54.5,56.5 Z"/></g>
<g><path style="opacity:0.708" fill="#f7e47d" d="M 113.5,68.5 C 112.351,88.262 110.684,107.929 108.5,127.5C 108.167,127.5 107.833,127.5 107.5,127.5C 109.505,108.933 111.005,90.2668 112,71.5C 112.232,70.2625 112.732,69.2625 113.5,68.5 Z"/></g>
<g><path style="opacity:1" fill="#d09c24" d="M 67.5,41.5 C 67.6567,42.8734 67.49,44.2068 67,45.5C 62.6653,49.003 58.4986,52.6697 54.5,56.5C 49.5,55.5 47.5,57.5 48.5,62.5C 47.5,62.5 46.5,62.5 45.5,62.5C 42.6932,66.0979 40.3598,70.0979 38.5,74.5C 37.914,74.2907 37.414,73.9574 37,73.5C 36.5034,75.8098 36.3367,78.1432 36.5,80.5C 31.305,90.4262 27.305,100.76 24.5,111.5C 22.9216,116.583 22.2549,121.916 22.5,127.5C 22.5,133.5 22.5,139.5 22.5,145.5C 21.5269,143.052 21.1936,140.385 21.5,137.5C 20.1667,137.5 18.8333,137.5 17.5,137.5C 16.9577,110.466 24.6243,86.1323 40.5,64.5C 47.8257,55.008 56.3257,46.6747 66,39.5C 66.7494,38.365 66.5827,37.365 65.5,36.5C 63.6841,37.8149 62.0175,39.3149 60.5,41C 59.2068,41.49 57.8734,41.6567 56.5,41.5C 58.2393,38.7573 60.5726,36.7573 63.5,35.5C 64.5832,35.4606 65.5832,35.1272 66.5,34.5C 67.4742,36.7427 67.8076,39.076 67.5,41.5 Z"/></g>
<g><path style="opacity:0.675" fill="#f9e991" d="M 169.5,70.5 C 171.221,78.6094 172.221,86.9428 172.5,95.5C 170.679,87.4012 169.679,79.0679 169.5,70.5 Z"/></g>
<g><path style="opacity:1" fill="#efb11b" d="M 17.5,137.5 C 16.1667,137.5 14.8333,137.5 13.5,137.5C 13.5,130.833 13.5,124.167 13.5,117.5C 13.5488,113.922 14.2154,110.589 15.5,107.5C 18.0778,101.767 20.0778,95.7668 21.5,89.5C 26.067,76.6133 33.067,65.28 42.5,55.5C 47.4519,51.2148 52.1186,46.5481 56.5,41.5C 57.8734,41.6567 59.2068,41.49 60.5,41C 62.0175,39.3149 63.6841,37.8149 65.5,36.5C 66.5827,37.365 66.7494,38.365 66,39.5C 56.3257,46.6747 47.8257,55.008 40.5,64.5C 24.6243,86.1323 16.9577,110.466 17.5,137.5 Z"/></g>
<g><path style="opacity:1" fill="#3c3939" d="M 223.5,106.5 C 222.391,106.557 221.391,106.89 220.5,107.5C 219.737,106.732 218.737,106.232 217.5,106C 218.167,105.667 218.833,105.333 219.5,105C 216.779,98.7579 213.112,92.9246 208.5,87.5C 206.187,81.2935 202.187,76.2935 196.5,72.5C 196.02,70.0514 195.02,67.8847 193.5,66C 186.503,63.4552 180.003,59.9552 174,55.5C 173.667,56.8333 173.333,58.1667 173,59.5C 171.644,58.6198 170.144,58.2865 168.5,58.5C 168.5,57.5 168.5,56.5 168.5,55.5C 169.302,54.0484 169.802,52.3817 170,50.5C 171,51.8333 172,53.1667 173,54.5C 173.414,54.0426 173.914,53.7093 174.5,53.5C 182.453,55.7763 189.453,59.7763 195.5,65.5C 200.149,71.4824 205.149,77.149 210.5,82.5C 212.108,83.3184 213.775,83.9851 215.5,84.5C 219.791,89.7007 222.124,95.7007 222.5,102.5C 222.818,103.647 223.484,104.481 224.5,105C 223.944,105.383 223.611,105.883 223.5,106.5 Z"/></g>
<g><path style="opacity:0.298" fill="#fbf096" d="M 135.5,79.5 C 137.748,90.9275 139.081,102.594 139.5,114.5C 137.596,103.037 136.263,91.3707 135.5,79.5 Z"/></g>
<g><path style="opacity:0.996" fill="#737273" d="M 213.5,110.5 C 212.833,110.5 212.5,110.833 212.5,111.5C 211.596,112.209 211.263,113.209 211.5,114.5C 204.717,92.0458 190.717,75.7125 169.5,65.5C 169.5,65.1667 169.5,64.8333 169.5,64.5C 170.268,63.7375 170.768,62.7375 171,61.5C 186.934,68.1005 199.101,78.9338 207.5,94C 206.549,94.7175 206.383,95.5509 207,96.5C 209.39,100.126 211.89,103.626 214.5,107C 212.273,107.704 211.94,108.871 213.5,110.5 Z"/></g>
<g><path style="opacity:1" fill="#545152" d="M 167.5,55.5 C 167.833,55.5 168.167,55.5 168.5,55.5C 168.5,56.5 168.5,57.5 168.5,58.5C 170.144,58.2865 171.644,58.6198 173,59.5C 173.333,58.1667 173.667,56.8333 174,55.5C 180.003,59.9552 186.503,63.4552 193.5,66C 195.02,67.8847 196.02,70.0514 196.5,72.5C 202.187,76.2935 206.187,81.2935 208.5,87.5C 213.112,92.9246 216.779,98.7579 219.5,105C 218.833,105.333 218.167,105.667 217.5,106C 218.737,106.232 219.737,106.732 220.5,107.5C 219.833,107.5 219.5,107.833 219.5,108.5C 218.508,108.328 217.842,108.662 217.5,109.5C 216.167,109.833 214.833,110.167 213.5,110.5C 211.94,108.871 212.273,107.704 214.5,107C 211.89,103.626 209.39,100.126 207,96.5C 206.383,95.5509 206.549,94.7175 207.5,94C 199.101,78.9338 186.934,68.1005 171,61.5C 170.768,62.7375 170.268,63.7375 169.5,64.5C 168.343,61.7273 167.676,58.7273 167.5,55.5 Z"/></g>
<g><path style="opacity:1" fill="#f7d012" d="M 153.5,13.5 C 156.374,14.6811 159.207,16.0145 162,17.5C 163.081,24.3249 164.247,30.9916 165.5,37.5C 165.5,38.8333 165.5,40.1667 165.5,41.5C 165.362,46.4141 166.028,51.0808 167.5,55.5C 167.676,58.7273 168.343,61.7273 169.5,64.5C 169.5,64.8333 169.5,65.1667 169.5,65.5C 169.5,67.1667 169.5,68.8333 169.5,70.5C 169.679,79.0679 170.679,87.4012 172.5,95.5C 172.527,101.051 173.194,106.384 174.5,111.5C 175.473,113.948 175.806,116.615 175.5,119.5C 174.549,120.919 174.216,122.585 174.5,124.5C 172.901,124.232 171.568,124.566 170.5,125.5C 168.068,114.497 165.902,103.164 164,91.5C 161.759,68.1136 159.092,44.7802 156,21.5C 149.285,20.0862 142.452,19.4196 135.5,19.5C 140.573,57.0866 144.907,94.7533 148.5,132.5C 147.5,132.5 146.5,132.5 145.5,132.5C 144.5,132.5 143.5,132.5 142.5,132.5C 141.781,127.882 141.281,123.215 141,118.5C 140.722,117.584 140.222,116.918 139.5,116.5C 139.5,115.833 139.5,115.167 139.5,114.5C 139.081,102.594 137.748,90.9275 135.5,79.5C 134.19,73.7118 133.523,67.7118 133.5,61.5C 133.31,56.6304 132.644,51.9637 131.5,47.5C 131.81,44.2869 131.477,41.2869 130.5,38.5C 130.007,36.1944 129.674,33.861 129.5,31.5C 129.5,29.8333 129.5,28.1667 129.5,26.5C 129.073,22.1756 128.739,17.8422 128.5,13.5C 136.833,13.5 145.167,13.5 153.5,13.5 Z"/></g>
<g><path style="opacity:0.467" fill="#f8eb8a" d="M 76.5,84.5 C 76.8333,84.5 77.1667,84.5 77.5,84.5C 77.7451,90.084 77.0784,95.4174 75.5,100.5C 75.9144,95.6355 75.9144,90.9688 75.5,86.5C 75.8333,85.8333 76.1667,85.1667 76.5,84.5 Z"/></g>
<g><path style="opacity:0.706" fill="#f1d374" d="M 21.5,89.5 C 20.0778,95.7668 18.0778,101.767 15.5,107.5C 16.5271,101.085 18.5271,95.0852 21.5,89.5 Z"/></g>
<g><path style="opacity:1" fill="#575556" d="M 76.5,84.5 C 75.8826,84.3893 75.3826,84.056 75,83.5C 74,84.5 73,85.5 72,86.5C 71.586,86.0426 71.086,85.7093 70.5,85.5C 64.189,94.0921 60.189,103.425 58.5,113.5C 58.8495,116.045 58.0162,118.045 56,119.5C 55.3658,126.574 54.1991,133.407 52.5,140C 53.7375,140.232 54.7375,140.732 55.5,141.5C 54.5,141.5 53.5,141.5 52.5,141.5C 52.1667,141.5 51.8333,141.5 51.5,141.5C 47.7403,116.324 54.907,94.6576 73,76.5C 73.4828,75.552 73.6495,74.552 73.5,73.5C 74.5,73.5 75.5,73.5 76.5,73.5C 76.5,77.1667 76.5,80.8333 76.5,84.5 Z"/></g>
<g><path style="opacity:0.996" fill="#51494c" d="M 79.5,41.5 C 79.6621,43.5273 79.4955,45.5273 79,47.5C 47.0384,69.7545 31.2051,100.421 31.5,139.5C 29.8333,139.5 28.1667,139.5 26.5,139.5C 26.5,142.167 26.5,144.833 26.5,147.5C 22.8655,101.436 40.5322,66.1023 79.5,41.5 Z"/></g>
<g><path style="opacity:1" fill="#403c3c" d="M 79.5,59.5 C 77.955,67.6524 77.2883,75.9857 77.5,84.5C 77.1667,84.5 76.8333,84.5 76.5,84.5C 76.5,80.8333 76.5,77.1667 76.5,73.5C 75.5,73.5 74.5,73.5 73.5,73.5C 73.6495,74.552 73.4828,75.552 73,76.5C 54.907,94.6576 47.7403,116.324 51.5,141.5C 50.8333,141.5 50.1667,141.5 49.5,141.5C 48.8333,141.5 48.1667,141.5 47.5,141.5C 46.791,140.596 45.791,140.263 44.5,140.5C 44.7151,131.487 45.2151,122.487 46,113.5C 47.2754,111.283 48.2754,108.949 49,106.5C 49.5988,93.691 54.9321,83.3577 65,75.5C 65.3333,74.5 65.6667,73.5 66,72.5C 68.8551,69.3244 72.0218,66.4911 75.5,64C 76.7441,63.5439 77.5774,64.0439 78,65.5C 78.1909,63.2922 78.6909,61.2922 79.5,59.5 Z"/></g>
<g><path style="opacity:1" fill="#706f6f" d="M 76.5,84.5 C 76.1667,85.1667 75.8333,85.8333 75.5,86.5C 69.5679,94.0216 64.9012,102.355 61.5,111.5C 60.7777,112.551 59.7777,113.218 58.5,113.5C 60.189,103.425 64.189,94.0921 70.5,85.5C 71.086,85.7093 71.586,86.0426 72,86.5C 73,85.5 74,84.5 75,83.5C 75.3826,84.056 75.8826,84.3893 76.5,84.5 Z"/></g>
<g><path style="opacity:0.812" fill="#e49e48" d="M 252.5,94.5 C 254.923,99.8403 256.589,105.507 257.5,111.5C 256.5,111.5 255.5,111.5 254.5,111.5C 253.833,105.833 253.167,100.167 252.5,94.5 Z"/></g>
<g><path style="opacity:1" fill="#0f0d0e" d="M 239.5,100.5 C 238.544,101.659 237.544,102.826 236.5,104C 242.894,124.131 243.061,144.298 237,164.5C 235.152,170.188 233.318,175.855 231.5,181.5C 232.959,181.433 234.292,181.766 235.5,182.5C 235.5,182.833 235.5,183.167 235.5,183.5C 234.5,183.5 233.5,183.5 232.5,183.5C 228.64,183.808 224.974,184.475 221.5,185.5C 216.819,185.669 212.152,186.002 207.5,186.5C 209.277,185.4 211.277,184.566 213.5,184C 213.043,183.586 212.709,183.086 212.5,182.5C 225.724,159.638 229.057,135.471 222.5,110C 221.263,109.768 220.263,109.268 219.5,108.5C 219.5,107.833 219.833,107.5 220.5,107.5C 221.391,106.89 222.391,106.557 223.5,106.5C 227.234,104.983 230.9,103.316 234.5,101.5C 236.17,101.249 237.67,100.582 239,99.5C 239.399,99.7284 239.565,100.062 239.5,100.5 Z"/></g>
<g><path style="opacity:1" fill="#ba7c30" d="M 242.5,95.5 C 244.099,96.562 245.766,96.562 247.5,95.5C 247.833,95.5 248.167,95.5 248.5,95.5C 249.15,97.4352 249.483,99.4352 249.5,101.5C 250.751,115.651 250.751,129.651 249.5,143.5C 250.197,127.021 247.864,111.021 242.5,95.5 Z"/></g>
<g><path style="opacity:0.227" fill="#fceda1" d="M 172.5,95.5 C 173.957,100.598 174.624,105.931 174.5,111.5C 173.194,106.384 172.527,101.051 172.5,95.5 Z"/></g>
<g><path style="opacity:1" fill="#1f1d1e" d="M 219.5,108.5 C 220.263,109.268 221.263,109.768 222.5,110C 229.057,135.471 225.724,159.638 212.5,182.5C 212.709,183.086 213.043,183.586 213.5,184C 211.277,184.566 209.277,185.4 207.5,186.5C 207.5,186.833 207.5,187.167 207.5,187.5C 203.466,187.505 199.466,187.838 195.5,188.5C 195.5,187.833 195.833,187.5 196.5,187.5C 199.804,186.506 203.137,185.506 206.5,184.5C 207.474,182.257 207.808,179.924 207.5,177.5C 208.552,177.649 209.552,177.483 210.5,177C 222.41,155.649 224.743,133.149 217.5,109.5C 217.842,108.662 218.508,108.328 219.5,108.5 Z"/></g>
<g><path style="opacity:0.376" fill="#6b6e76" d="M 241.5,104.5 C 242.924,106.515 243.59,108.848 243.5,111.5C 242.076,109.485 241.41,107.152 241.5,104.5 Z"/></g>
<g><path style="opacity:0.998" fill="#4c4b4c" d="M 212.5,111.5 C 215.76,116.233 217.594,121.566 218,127.5C 218.443,134.856 218.11,142.189 217,149.5C 215.168,156.378 213.502,163.045 212,169.5C 209.749,173.425 207.083,177.092 204,180.5C 203.617,179.944 203.117,179.611 202.5,179.5C 202.5,178.833 202.5,178.167 202.5,177.5C 204.138,173.23 206.138,169.23 208.5,165.5C 211.196,162.079 212.53,158.079 212.5,153.5C 213.339,143.19 213.672,132.857 213.5,122.5C 214.485,119.461 213.818,116.794 211.5,114.5C 211.263,113.209 211.596,112.209 212.5,111.5 Z"/></g>
<g><path style="opacity:0.899" fill="#848384" d="M 61.5,111.5 C 57.6978,125.66 57.0311,139.66 59.5,153.5C 58.3907,149.312 57.0574,145.312 55.5,141.5C 54.7375,140.732 53.7375,140.232 52.5,140C 54.1991,133.407 55.3658,126.574 56,119.5C 58.0162,118.045 58.8495,116.045 58.5,113.5C 59.7777,113.218 60.7777,112.551 61.5,111.5 Z"/></g>
<g><path style="opacity:0.808" fill="#f5e487" d="M 75.5,101.5 C 75.6662,107.509 75.4995,113.509 75,119.5C 74.6174,120.056 74.1174,120.389 73.5,120.5C 73.6972,113.974 74.3639,107.641 75.5,101.5 Z"/></g>
<g><path style="opacity:0.875" fill="#8c8c8c" d="M 211.5,114.5 C 213.818,116.794 214.485,119.461 213.5,122.5C 212.232,120.095 211.565,117.428 211.5,114.5 Z"/></g>
<g><path style="opacity:1" fill="#2e2c2d" d="M 217.5,109.5 C 224.743,133.149 222.41,155.649 210.5,177C 209.552,177.483 208.552,177.649 207.5,177.5C 207.808,179.924 207.474,182.257 206.5,184.5C 203.137,185.506 199.804,186.506 196.5,187.5C 196.5,186.833 196.5,186.167 196.5,185.5C 197.167,185.5 197.5,185.167 197.5,184.5C 199.262,183.738 200.262,182.404 200.5,180.5C 201.167,180.167 201.833,179.833 202.5,179.5C 203.117,179.611 203.617,179.944 204,180.5C 207.083,177.092 209.749,173.425 212,169.5C 213.502,163.045 215.168,156.378 217,149.5C 218.11,142.189 218.443,134.856 218,127.5C 217.594,121.566 215.76,116.233 212.5,111.5C 212.5,110.833 212.833,110.5 213.5,110.5C 214.833,110.167 216.167,109.833 217.5,109.5 Z"/></g>
<g><path style="opacity:0.235" fill="#f0d994" d="M 24.5,111.5 C 24.3315,117.034 23.6649,122.367 22.5,127.5C 22.2549,121.916 22.9216,116.583 24.5,111.5 Z"/></g>
<g><path style="opacity:0.471" fill="#faea9a" d="M 139.5,116.5 C 140.222,116.918 140.722,117.584 141,118.5C 141.281,123.215 141.781,127.882 142.5,132.5C 142.5,134.5 142.5,136.5 142.5,138.5C 140.928,131.381 139.928,124.047 139.5,116.5 Z"/></g>
<g><path style="opacity:0.512" fill="#edcb84" d="M 13.5,117.5 C 13.5,124.167 13.5,130.833 13.5,137.5C 13.5015,144.52 13.8348,151.52 14.5,158.5C 11.322,144.887 10.9886,131.22 13.5,117.5 Z"/></g>
<g><path style="opacity:1" fill="#e98401" d="M 177.5,191.5 C 177.5,193.833 177.5,196.167 177.5,198.5C 197.692,195.456 217.859,192.456 238,189.5C 238.5,189.833 239,190.167 239.5,190.5C 235.029,198.606 229.696,206.106 223.5,213C 202.15,215.768 180.817,218.601 159.5,221.5C 159.033,209.631 157.7,197.964 155.5,186.5C 153.416,167.756 151.416,149.089 149.5,130.5C 156.135,129.04 162.801,127.706 169.5,126.5C 171.459,148.381 174.126,170.048 177.5,191.5 Z"/></g>
<g><path style="opacity:1" fill="#e7870d" d="M 252.5,94.5 C 253.167,100.167 253.833,105.833 254.5,111.5C 255.5,111.5 256.5,111.5 257.5,111.5C 257.5,111.833 257.5,112.167 257.5,112.5C 258.488,125.152 258.655,137.819 258,150.5C 257.058,155.973 255.891,161.306 254.5,166.5C 253.167,166.5 251.833,166.5 250.5,166.5C 257.466,144.661 257.133,122.995 249.5,101.5C 249.483,99.4352 249.15,97.4352 248.5,95.5C 249.708,94.7659 251.041,94.4326 252.5,94.5 Z"/></g>
<g><path style="opacity:0.61" fill="#e4a559" d="M 257.5,112.5 C 258.314,114.631 258.814,116.964 259,119.5C 259.667,130.833 259.667,142.167 259,153.5C 258.472,157.943 257.472,162.277 256,166.5C 254.301,167.406 252.467,167.739 250.5,167.5C 250.5,167.167 250.5,166.833 250.5,166.5C 251.833,166.5 253.167,166.5 254.5,166.5C 255.891,161.306 257.058,155.973 258,150.5C 258.655,137.819 258.488,125.152 257.5,112.5 Z"/></g>
<g><path style="opacity:1" fill="#eabd43" d="M 142.5,132.5 C 143.5,132.5 144.5,132.5 145.5,132.5C 144.889,134.913 144.555,137.413 144.5,140C 145.922,147.389 146.756,154.889 147,162.5C 147.423,161.044 148.256,160.544 149.5,161C 148.278,169.116 148.278,177.283 149.5,185.5C 148.833,184.833 148.167,184.167 147.5,183.5C 147.5,182.5 147.5,181.5 147.5,180.5C 147.665,177.15 147.498,173.817 147,170.5C 146.768,169.263 146.268,168.263 145.5,167.5C 145.5,166.5 145.5,165.5 145.5,164.5C 145.665,160.818 145.499,157.152 145,153.5C 144.768,152.263 144.268,151.263 143.5,150.5C 142.728,146.548 142.395,142.548 142.5,138.5C 142.5,136.5 142.5,134.5 142.5,132.5 Z"/></g>
<g><path style="opacity:1" fill="#b16404" d="M 249.5,101.5 C 257.133,122.995 257.466,144.661 250.5,166.5C 250.5,166.833 250.5,167.167 250.5,167.5C 249.244,167.539 248.244,167.039 247.5,166C 248.711,160.272 249.377,154.438 249.5,148.5C 249.5,146.833 249.5,145.167 249.5,143.5C 250.751,129.651 250.751,115.651 249.5,101.5 Z"/></g>
<g><path style="opacity:0.122" fill="#f8e3a1" d="M 176.5,128.5 C 177.889,133.269 178.556,138.269 178.5,143.5C 176.969,138.75 176.302,133.75 176.5,128.5 Z"/></g>
<g><path style="opacity:1" fill="#b16100" d="M 17.5,138.5 C 18.5,138.5 19.5,138.5 20.5,138.5C 20.3337,145.508 20.5004,152.508 21,159.5C 21.3333,158.5 21.6667,157.5 22,156.5C 22.3333,160.833 22.6667,165.167 23,169.5C 23.3333,169.167 23.6667,168.833 24,168.5C 24.2896,170.044 24.9563,171.377 26,172.5C 26.7203,174.112 26.5536,175.612 25.5,177C 27.0456,178.44 27.879,180.273 28,182.5C 28.7697,183.598 29.603,183.598 30.5,182.5C 30.7947,184.735 30.4614,186.735 29.5,188.5C 23.1372,177.119 19.3039,164.785 18,151.5C 17.501,147.179 17.3343,142.846 17.5,138.5 Z"/></g>
<g><path style="opacity:1" fill="#ea8401" d="M 79.5,140.5 C 86.1667,140.5 92.8333,140.5 99.5,140.5C 96.8687,174.524 93.8687,208.524 90.5,242.5C 83.5398,240.845 77.2065,237.845 71.5,233.5C 73.4048,202.742 76.0714,172.076 79.5,141.5C 79.5,141.167 79.5,140.833 79.5,140.5 Z"/></g>
<g><path style="opacity:0.243" fill="#fae6a1" d="M 107.5,127.5 C 107.833,127.5 108.167,127.5 108.5,127.5C 108.079,138.697 107.079,149.697 105.5,160.5C 105.5,156.833 105.5,153.167 105.5,149.5C 105.616,146.14 105.949,142.807 106.5,139.5C 107.162,135.534 107.495,131.534 107.5,127.5 Z"/></g>
<g><path style="opacity:1" fill="#282525" d="M 239.5,100.5 C 239.833,100.5 240.167,100.5 240.5,100.5C 241.234,101.708 241.567,103.041 241.5,104.5C 241.41,107.152 242.076,109.485 243.5,111.5C 249.266,135.851 246.933,159.518 236.5,182.5C 236.167,182.5 235.833,182.5 235.5,182.5C 234.292,181.766 232.959,181.433 231.5,181.5C 233.318,175.855 235.152,170.188 237,164.5C 243.061,144.298 242.894,124.131 236.5,104C 237.544,102.826 238.544,101.659 239.5,100.5 Z"/></g>
<g><path style="opacity:0.994" fill="#3a3939" d="M 52.5,141.5 C 53.5,141.5 54.5,141.5 55.5,141.5C 57.0574,145.312 58.3907,149.312 59.5,153.5C 59.5,153.833 59.5,154.167 59.5,154.5C 59.4095,157.152 60.0762,159.485 61.5,161.5C 63.8333,166.167 66.1667,170.833 68.5,175.5C 68.5,175.833 68.5,176.167 68.5,176.5C 67.1529,177.171 65.9862,177.171 65,176.5C 64.1245,173.117 63.1245,169.784 62,166.5C 60.7318,166.616 59.3985,166.949 58,167.5C 55.8811,164.319 55.3811,160.985 56.5,157.5C 56.174,151.815 54.8407,146.482 52.5,141.5 Z"/></g>
<g><path style="opacity:1" fill="#ac6d1b" d="M 17.5,138.5 C 17.5,138.167 17.5,137.833 17.5,137.5C 18.8333,137.5 20.1667,137.5 21.5,137.5C 21.1936,140.385 21.5269,143.052 22.5,145.5C 22.1228,150.453 22.7895,155.119 24.5,159.5C 25.6641,163.011 26.6641,166.677 27.5,170.5C 27.7481,174.757 28.7481,178.757 30.5,182.5C 29.603,183.598 28.7697,183.598 28,182.5C 27.879,180.273 27.0456,178.44 25.5,177C 26.5536,175.612 26.7203,174.112 26,172.5C 24.9563,171.377 24.2896,170.044 24,168.5C 23.6667,168.833 23.3333,169.167 23,169.5C 22.6667,165.167 22.3333,160.833 22,156.5C 21.6667,157.5 21.3333,158.5 21,159.5C 20.5004,152.508 20.3337,145.508 20.5,138.5C 19.5,138.5 18.5,138.5 17.5,138.5 Z"/></g>
<g><path style="opacity:0.643" fill="#f2d78b" d="M 178.5,144.5 C 179.926,151.639 180.926,158.972 181.5,166.5C 180.732,165.737 180.232,164.737 180,163.5C 179.235,157.183 178.735,150.849 178.5,144.5 Z"/></g>
<g><path style="opacity:0.675" fill="#d7b07e" d="M 22.5,145.5 C 23.8015,149.943 24.4681,154.609 24.5,159.5C 22.7895,155.119 22.1228,150.453 22.5,145.5 Z"/></g>
<g><path style="opacity:0.251" fill="#f6e5ab" d="M 143.5,150.5 C 144.268,151.263 144.768,152.263 145,153.5C 145.499,157.152 145.665,160.818 145.5,164.5C 144.578,160.005 143.911,155.338 143.5,150.5 Z"/></g>
<g><path style="opacity:0.643" fill="#888888" d="M 59.5,154.5 C 60.9238,156.515 61.5905,158.848 61.5,161.5C 60.0762,159.485 59.4095,157.152 59.5,154.5 Z"/></g>
<g><path style="opacity:1" fill="#2a2727" d="M 49.5,141.5 C 50.1667,141.5 50.8333,141.5 51.5,141.5C 51.8333,141.5 52.1667,141.5 52.5,141.5C 54.8407,146.482 56.174,151.815 56.5,157.5C 55.3811,160.985 55.8811,164.319 58,167.5C 59.3985,166.949 60.7318,166.616 62,166.5C 63.1245,169.784 64.1245,173.117 65,176.5C 65.9862,177.171 67.1529,177.171 68.5,176.5C 68.6773,180.234 68.3439,183.901 67.5,187.5C 66.4415,186.4 65.6082,185.066 65,183.5C 64.586,183.957 64.086,184.291 63.5,184.5C 54.0874,171.839 49.4208,157.506 49.5,141.5 Z"/></g>
<g><path style="opacity:0.667" fill="#9d9b9c" d="M 212.5,153.5 C 212.53,158.079 211.196,162.079 208.5,165.5C 209.319,161.225 210.653,157.225 212.5,153.5 Z"/></g>
<g><path style="opacity:0.627" fill="#b99357" d="M 249.5,148.5 C 249.377,154.438 248.711,160.272 247.5,166C 248.244,167.039 249.244,167.539 250.5,167.5C 249.399,168.598 248.066,168.765 246.5,168C 245.941,167.275 245.608,166.442 245.5,165.5C 246.855,159.702 248.188,154.036 249.5,148.5 Z"/></g>
<g><path style="opacity:0.635" fill="#e3ae63" d="M 14.5,159.5 C 17.5686,166.717 19.902,174.384 21.5,182.5C 17.7917,175.354 15.4584,167.687 14.5,159.5 Z"/></g>
<g><path style="opacity:0.243" fill="#f4d98a" d="M 72.5,135.5 C 72.5,137.5 72.5,139.5 72.5,141.5C 71.8011,149.475 71.3011,157.475 71,165.5C 70.79,167.058 70.29,168.391 69.5,169.5C 69.7996,157.958 70.7996,146.625 72.5,135.5 Z"/></g>
<g><path style="opacity:0.502" fill="#f1d68f" d="M 105.5,163.5 C 105.132,170.008 104.465,176.342 103.5,182.5C 103.334,177.156 103.501,171.823 104,166.5C 104.232,165.263 104.732,164.263 105.5,163.5 Z"/></g>
<g><path style="opacity:1" fill="#edb117" d="M 72.5,141.5 C 74.8333,141.5 77.1667,141.5 79.5,141.5C 76.0714,172.076 73.4048,202.742 71.5,233.5C 71.2148,235.288 71.5481,236.955 72.5,238.5C 75.5532,240.004 77.5532,242.338 78.5,245.5C 73.1454,243.494 68.4787,240.494 64.5,236.5C 65.2197,230.862 65.553,225.196 65.5,219.5C 65.5,218.5 65.5,217.5 65.5,216.5C 66.9538,206.907 67.6205,197.241 67.5,187.5C 68.3439,183.901 68.6773,180.234 68.5,176.5C 68.5,176.167 68.5,175.833 68.5,175.5C 68.5172,173.435 68.8505,171.435 69.5,169.5C 70.29,168.391 70.79,167.058 71,165.5C 71.3011,157.475 71.8011,149.475 72.5,141.5 Z"/></g>
<g><path style="opacity:0.243" fill="#f6e8ad" d="M 145.5,167.5 C 146.268,168.263 146.768,169.263 147,170.5C 147.498,173.817 147.665,177.15 147.5,180.5C 146.551,176.343 145.884,172.01 145.5,167.5 Z"/></g>
<g><path style="opacity:0.961" fill="#c69d67" d="M 27.5,170.5 C 29.4022,174.655 31.0689,178.989 32.5,183.5C 31.8333,183.167 31.1667,182.833 30.5,182.5C 28.7481,178.757 27.7481,174.757 27.5,170.5 Z"/></g>
<g><path style="opacity:1" fill="#100e0e" d="M 31.5,139.5 C 36.8202,140.239 42.1536,140.906 47.5,141.5C 48.1667,141.5 48.8333,141.5 49.5,141.5C 49.4208,157.506 54.0874,171.839 63.5,184.5C 64.086,184.291 64.586,183.957 65,183.5C 65.6082,185.066 66.4415,186.4 67.5,187.5C 67.6205,197.241 66.9538,206.907 65.5,216.5C 64.5489,215.081 64.2155,213.415 64.5,211.5C 62.6096,211.703 61.1096,211.037 60,209.5C 44.7603,193.021 35.427,173.687 32,151.5C 31.5012,147.514 31.3345,143.514 31.5,139.5 Z"/></g>
<g><path style="opacity:0.592" fill="#efd389" d="M 181.5,168.5 C 182.487,173.32 183.153,178.32 183.5,183.5C 182.732,182.737 182.232,181.737 182,180.5C 181.501,176.514 181.334,172.514 181.5,168.5 Z"/></g>
<g><path style="opacity:0.176" fill="#cdd0d0" d="M 202.5,177.5 C 202.5,178.167 202.5,178.833 202.5,179.5C 201.833,179.833 201.167,180.167 200.5,180.5C 200.427,178.973 201.094,177.973 202.5,177.5 Z"/></g>
<g><path style="opacity:1" fill="#eab522" d="M 105.5,149.5 C 105.5,153.167 105.5,156.833 105.5,160.5C 105.5,161.5 105.5,162.5 105.5,163.5C 104.732,164.263 104.232,165.263 104,166.5C 103.501,171.823 103.334,177.156 103.5,182.5C 103.5,183.5 103.5,184.5 103.5,185.5C 101.779,192.253 101.112,199.253 101.5,206.5C 100.833,207.833 100.167,209.167 99.5,210.5C 98.6877,208.257 98.0211,205.924 97.5,203.5C 97.2581,198.766 98.0914,198.433 100,202.5C 100.723,197.554 100.223,192.721 98.5,188C 99.68,184.16 100.847,180.327 102,176.5C 102.76,167.302 103.927,158.302 105.5,149.5 Z"/></g>
<g><path style="opacity:0.267" fill="#cecbca" d="M 200.5,180.5 C 200.262,182.404 199.262,183.738 197.5,184.5C 197.738,182.596 198.738,181.262 200.5,180.5 Z"/></g>
<g><path style="opacity:0.918" fill="#f1c870" d="M 249.5,181.5 C 245.097,183.299 240.43,183.966 235.5,183.5C 235.5,183.167 235.5,182.833 235.5,182.5C 235.833,182.5 236.167,182.5 236.5,182.5C 240.406,182.286 244.239,181.619 248,180.5C 248.765,180.57 249.265,180.903 249.5,181.5 Z"/></g>
<g><path style="opacity:0.11" fill="#fff2be" d="M 250.5,181.5 C 251.853,183.128 251.519,184.462 249.5,185.5C 249.833,184.167 250.167,182.833 250.5,181.5 Z"/></g>
<g><path style="opacity:1" fill="#ebcb5c" d="M 249.5,185.5 C 248.674,188.485 247.341,191.151 245.5,193.5C 244.951,189.774 246.285,187.107 249.5,185.5 Z"/></g>
<g><path style="opacity:1" fill="#e6891c" d="M 13.5,137.5 C 14.8333,137.5 16.1667,137.5 17.5,137.5C 17.5,137.833 17.5,138.167 17.5,138.5C 17.3343,142.846 17.501,147.179 18,151.5C 19.3039,164.785 23.1372,177.119 29.5,188.5C 34.8557,200.523 42.189,211.19 51.5,220.5C 51.5,221.833 51.5,223.167 51.5,224.5C 50.448,224.649 49.448,224.483 48.5,224C 36.8526,211.867 27.8526,198.034 21.5,182.5C 19.902,174.384 17.5686,166.717 14.5,159.5C 14.5,159.167 14.5,158.833 14.5,158.5C 13.8348,151.52 13.5015,144.52 13.5,137.5 Z"/></g>
<g><path style="opacity:1" fill="#b56f23" d="M 30.5,182.5 C 31.1667,182.833 31.8333,183.167 32.5,183.5C 37.5698,194.081 44.0698,203.747 52,212.5C 52.8007,215.367 52.6341,218.034 51.5,220.5C 42.189,211.19 34.8557,200.523 29.5,188.5C 30.4614,186.735 30.7947,184.735 30.5,182.5 Z"/></g>
<g><path style="opacity:0.408" fill="#f7dea2" d="M 103.5,185.5 C 102.835,192.48 102.502,199.48 102.5,206.5C 102.167,206.5 101.833,206.5 101.5,206.5C 101.112,199.253 101.779,192.253 103.5,185.5 Z"/></g>
<g><path style="opacity:1" fill="#262224" d="M 31.5,139.5 C 31.3345,143.514 31.5012,147.514 32,151.5C 35.427,173.687 44.7603,193.021 60,209.5C 61.1096,211.037 62.6096,211.703 64.5,211.5C 64.2155,213.415 64.5489,215.081 65.5,216.5C 65.5,217.5 65.5,218.5 65.5,219.5C 65.1667,219.5 64.8333,219.5 64.5,219.5C 41.994,200.918 29.3273,176.918 26.5,147.5C 26.5,144.833 26.5,142.167 26.5,139.5C 28.1667,139.5 29.8333,139.5 31.5,139.5 Z"/></g>
<g><path style="opacity:0.282" fill="#edda90" d="M 147.5,183.5 C 148.167,184.167 148.833,184.833 149.5,185.5C 150.814,194.768 151.48,204.101 151.5,213.5C 151.167,213.5 150.833,213.5 150.5,213.5C 150.167,213.5 149.833,213.5 149.5,213.5C 150.086,211.757 150.419,209.924 150.5,208C 149.389,199.837 148.389,191.67 147.5,183.5 Z"/></g>
<g><path style="opacity:1" fill="#edc049" d="M 241.5,200.5 C 239.237,205.365 236.237,209.698 232.5,213.5C 232.5,211.5 232.5,209.5 232.5,207.5C 235.534,207.391 236.534,206.057 235.5,203.5C 237.704,202.794 239.704,201.794 241.5,200.5 Z"/></g>
<g><path style="opacity:1" fill="#a37c20" d="M 101.5,206.5 C 101.599,209.237 101.265,211.904 100.5,214.5C 100.784,216.415 100.451,218.081 99.5,219.5C 99.5,216.5 99.5,213.5 99.5,210.5C 100.167,209.167 100.833,207.833 101.5,206.5 Z"/></g>
<g><path style="opacity:1" fill="#3e3d3e" d="M 102.5,206.5 C 117.459,213.275 133.126,215.608 149.5,213.5C 148.432,214.434 147.099,214.768 145.5,214.5C 145.313,216.564 144.813,218.564 144,220.5C 131.573,220.576 119.407,218.743 107.5,215C 106.069,214.535 104.903,213.701 104,212.5C 103.667,212.833 103.333,213.167 103,213.5C 102.503,211.19 102.337,208.857 102.5,206.5 Z"/></g>
<g><path style="opacity:1" fill="#f0b110" d="M 175.5,119.5 C 176.477,122.287 176.81,125.287 176.5,128.5C 176.302,133.75 176.969,138.75 178.5,143.5C 178.5,143.833 178.5,144.167 178.5,144.5C 178.735,150.849 179.235,157.183 180,163.5C 180.232,164.737 180.732,165.737 181.5,166.5C 181.5,167.167 181.5,167.833 181.5,168.5C 181.334,172.514 181.501,176.514 182,180.5C 182.232,181.737 182.732,182.737 183.5,183.5C 183.5,184.833 183.5,186.167 183.5,187.5C 183.5,188.5 183.5,189.5 183.5,190.5C 187.674,190.666 191.674,190 195.5,188.5C 199.466,187.838 203.466,187.505 207.5,187.5C 212.414,187.638 217.081,186.972 221.5,185.5C 225.489,185.884 229.155,185.217 232.5,183.5C 233.5,183.5 234.5,183.5 235.5,183.5C 240.43,183.966 245.097,183.299 249.5,181.5C 249.833,181.5 250.167,181.5 250.5,181.5C 250.167,182.833 249.833,184.167 249.5,185.5C 246.285,187.107 244.951,189.774 245.5,193.5C 244.921,196.331 243.588,198.664 241.5,200.5C 239.704,201.794 237.704,202.794 235.5,203.5C 236.534,206.057 235.534,207.391 232.5,207.5C 232.5,209.5 232.5,211.5 232.5,213.5C 230.761,216.243 228.427,218.243 225.5,219.5C 218.156,219.779 210.823,220.279 203.5,221C 202.142,221.934 200.808,222.768 199.5,223.5C 196.287,223.19 193.287,223.523 190.5,224.5C 180.227,226.206 169.894,227.539 159.5,228.5C 157.114,228.741 155.114,228.075 153.5,226.5C 152.725,222.186 152.059,217.853 151.5,213.5C 151.48,204.101 150.814,194.768 149.5,185.5C 151.469,193.462 152.969,193.129 154,184.5C 154.278,185.416 154.778,186.082 155.5,186.5C 157.7,197.964 159.033,209.631 159.5,221.5C 180.817,218.601 202.15,215.768 223.5,213C 229.696,206.106 235.029,198.606 239.5,190.5C 239,190.167 238.5,189.833 238,189.5C 217.859,192.456 197.692,195.456 177.5,198.5C 177.5,196.167 177.5,193.833 177.5,191.5C 178.713,186.77 178.379,182.103 176.5,177.5C 178.044,170.917 178.711,164.251 178.5,157.5C 176.876,157.36 175.71,158.027 175,159.5C 173.382,148.169 172.882,136.835 173.5,125.5C 172.5,125.5 171.5,125.5 170.5,125.5C 171.568,124.566 172.901,124.232 174.5,124.5C 174.216,122.585 174.549,120.919 175.5,119.5 Z"/></g>
<g><path style="opacity:0.655" fill="#f1d893" d="M 196.5,185.5 C 196.5,186.167 196.5,186.833 196.5,187.5C 195.833,187.5 195.5,187.833 195.5,188.5C 191.674,190 187.674,190.666 183.5,190.5C 183.5,189.5 183.5,188.5 183.5,187.5C 188.14,189.937 192.473,189.27 196.5,185.5 Z"/></g>
<g><path style="opacity:1" fill="#ad8824" d="M 221.5,185.5 C 217.081,186.972 212.414,187.638 207.5,187.5C 207.5,187.167 207.5,186.833 207.5,186.5C 212.152,186.002 216.819,185.669 221.5,185.5 Z"/></g>
<g><path style="opacity:1" fill="#96771a" d="M 232.5,183.5 C 229.155,185.217 225.489,185.884 221.5,185.5C 224.974,184.475 228.64,183.808 232.5,183.5 Z"/></g>
<g><path style="opacity:0.863" fill="#e0b555" d="M 225.5,219.5 C 217.494,220.979 209.494,222.646 201.5,224.5C 201.158,223.662 200.492,223.328 199.5,223.5C 200.808,222.768 202.142,221.934 203.5,221C 210.823,220.279 218.156,219.779 225.5,219.5 Z"/></g>
<g><path style="opacity:1" fill="#262323" d="M 101.5,206.5 C 101.833,206.5 102.167,206.5 102.5,206.5C 102.337,208.857 102.503,211.19 103,213.5C 103.333,213.167 103.667,212.833 104,212.5C 104.903,213.701 106.069,214.535 107.5,215C 119.407,218.743 131.573,220.576 144,220.5C 144.813,218.564 145.313,216.564 145.5,214.5C 147.099,214.768 148.432,214.434 149.5,213.5C 149.833,213.5 150.167,213.5 150.5,213.5C 150.813,216.247 150.48,218.914 149.5,221.5C 148.914,221.291 148.414,220.957 148,220.5C 147.418,223.668 146.418,224.001 145,221.5C 140.923,222.798 136.589,223.464 132,223.5C 122.682,224.544 114.182,222.544 106.5,217.5C 105.833,218.167 105.167,218.833 104.5,219.5C 103.165,217.799 101.832,216.132 100.5,214.5C 101.265,211.904 101.599,209.237 101.5,206.5 Z"/></g>
<g><path style="opacity:1" fill="#100d0d" d="M 150.5,213.5 C 150.833,213.5 151.167,213.5 151.5,213.5C 152.059,217.853 152.725,222.186 153.5,226.5C 153.5,227.5 153.5,228.5 153.5,229.5C 155.735,229.795 157.735,229.461 159.5,228.5C 169.894,227.539 180.227,226.206 190.5,224.5C 192.857,224.337 195.19,224.503 197.5,225C 195.261,227.614 192.595,228.114 189.5,226.5C 160.793,242.304 130.793,245.304 99.5,235.5C 99.5,234.167 99.5,232.833 99.5,231.5C 99.5,227.5 99.5,223.5 99.5,219.5C 100.451,218.081 100.784,216.415 100.5,214.5C 101.832,216.132 103.165,217.799 104.5,219.5C 105.167,218.833 105.833,218.167 106.5,217.5C 114.182,222.544 122.682,224.544 132,223.5C 136.589,223.464 140.923,222.798 145,221.5C 146.418,224.001 147.418,223.668 148,220.5C 148.414,220.957 148.914,221.291 149.5,221.5C 150.48,218.914 150.813,216.247 150.5,213.5 Z"/></g>
<g><path style="opacity:1" fill="#957a1f" d="M 153.5,226.5 C 155.114,228.075 157.114,228.741 159.5,228.5C 157.735,229.461 155.735,229.795 153.5,229.5C 153.5,228.5 153.5,227.5 153.5,226.5 Z"/></g>
<g><path style="opacity:0.231" fill="#ebd282" d="M 64.5,219.5 C 64.8333,219.5 65.1667,219.5 65.5,219.5C 65.553,225.196 65.2197,230.862 64.5,236.5C 63.6,231 63.6,225.333 64.5,219.5 Z"/></g>
<g><path style="opacity:0.725" fill="#e4b376" d="M 202.5,240.5 C 202.5,239.5 202.5,238.5 202.5,237.5C 200.5,237.5 198.5,237.5 196.5,237.5C 196.167,237.5 195.833,237.5 195.5,237.5C 199.295,236.383 203.295,235.717 207.5,235.5C 207.037,238.255 205.37,239.922 202.5,240.5 Z"/></g>
<g><path style="opacity:1" fill="#272324" d="M 190.5,224.5 C 193.287,223.523 196.287,223.19 199.5,223.5C 200.492,223.328 201.158,223.662 201.5,224.5C 179.716,240.953 155.049,248.119 127.5,246C 117.958,245.125 108.625,243.292 99.5,240.5C 99.5,239.833 99.1667,239.5 98.5,239.5C 98.1936,236.615 98.5269,233.948 99.5,231.5C 99.5,232.833 99.5,234.167 99.5,235.5C 130.793,245.304 160.793,242.304 189.5,226.5C 192.595,228.114 195.261,227.614 197.5,225C 195.19,224.503 192.857,224.337 190.5,224.5 Z"/></g>
<g><path style="opacity:0.616" fill="#d5aa78" d="M 178.5,242.5 C 175.495,244.277 172.162,245.277 168.5,245.5C 171.505,243.723 174.838,242.723 178.5,242.5 Z"/></g>
<g><path style="opacity:0.029" fill="#faf0b6" d="M 98.5,239.5 C 99.1667,239.5 99.5,239.833 99.5,240.5C 98.8333,243.167 98.1667,245.833 97.5,248.5C 97.19,245.287 97.5233,242.287 98.5,239.5 Z"/></g>
<g><path style="opacity:1" fill="#eac051" d="M 78.5,245.5 C 80.5466,245.511 82.5466,245.844 84.5,246.5C 88.5761,249.359 92.9095,250.359 97.5,249.5C 97.7778,251.346 97.1112,252.68 95.5,253.5C 89.5598,251.198 83.8932,248.531 78.5,245.5 Z"/></g>
<g><path style="opacity:0.722" fill="#c59b5f" d="M 120.5,249.5 C 117.5,249.5 114.5,249.5 111.5,249.5C 111.5,250.5 111.5,251.5 111.5,252.5C 111.5,253.833 111.5,255.167 111.5,256.5C 109.276,247.766 112.276,245.432 120.5,249.5 Z"/></g>
<g><path style="opacity:0.714" fill="#b58d52" d="M 167.5,245.5 C 162.724,248.64 157.391,249.973 151.5,249.5C 156.775,248.418 162.108,247.085 167.5,245.5 Z"/></g>
<g><path style="opacity:0.463" fill="#e19e47" d="M 200.5,241.5 C 193.276,246.694 185.276,250.36 176.5,252.5C 181.07,250.215 185.736,247.882 190.5,245.5C 190.291,244.914 189.957,244.414 189.5,244C 191.473,243.505 193.473,243.338 195.5,243.5C 195.281,242.325 195.614,241.325 196.5,240.5C 197.736,241.246 199.07,241.579 200.5,241.5 Z"/></g>
<g><path style="opacity:1" fill="#b46a17" d="M 195.5,237.5 C 195.833,237.5 196.167,237.5 196.5,237.5C 192.732,240.225 188.732,242.725 184.5,245C 160.945,254.633 136.611,257.133 111.5,252.5C 111.5,251.5 111.5,250.5 111.5,249.5C 114.5,249.5 117.5,249.5 120.5,249.5C 130.833,249.5 141.167,249.5 151.5,249.5C 157.391,249.973 162.724,248.64 167.5,245.5C 167.833,245.5 168.167,245.5 168.5,245.5C 172.162,245.277 175.495,244.277 178.5,242.5C 183.502,238.957 189.169,237.29 195.5,237.5 Z"/></g>
<g><path style="opacity:1" fill="#e5860c" d="M 196.5,237.5 C 198.5,237.5 200.5,237.5 202.5,237.5C 202.5,238.5 202.5,239.5 202.5,240.5C 202.158,241.338 201.492,241.672 200.5,241.5C 199.07,241.579 197.736,241.246 196.5,240.5C 195.614,241.325 195.281,242.325 195.5,243.5C 193.473,243.338 191.473,243.505 189.5,244C 189.957,244.414 190.291,244.914 190.5,245.5C 185.736,247.882 181.07,250.215 176.5,252.5C 174.786,253.738 172.786,254.405 170.5,254.5C 162.481,255.447 154.481,256.613 146.5,258C 135.819,258.61 125.153,258.444 114.5,257.5C 113.209,257.737 112.209,257.404 111.5,256.5C 111.5,255.167 111.5,253.833 111.5,252.5C 136.611,257.133 160.945,254.633 184.5,245C 188.732,242.725 192.732,240.225 196.5,237.5 Z"/></g>
<g><path style="opacity:0.541" fill="#e39e47" d="M 170.5,254.5 C 164.455,256.68 158.122,258.18 151.5,259C 141.167,259.667 130.833,259.667 120.5,259C 118.292,258.809 116.292,258.309 114.5,257.5C 125.153,258.444 135.819,258.61 146.5,258C 154.481,256.613 162.481,255.447 170.5,254.5 Z"/></g>
</svg>
